<?xml version="1.0" encoding="UTF-8"?>
<svg id="Ebene_2" data-name="Ebene 2" xmlns="http://www.w3.org/2000/svg" viewBox="0 0 107.34 52.16">
  <defs>
    <style>
      .cls-1 {
        fill: #72b62b;
        stroke-width: 0px;
      }
    </style>
  </defs>
  <g id="Ebene_1-2" data-name="Ebene 1">
    <g>
      <path class="cls-1" d="m3.32,0h5.42v.78H3.32v-.78Z"/>
      <path class="cls-1" d="m8.92,0h5.42v.78h-5.42v-.78Z"/>
      <path class="cls-1" d="m14.53,0h5.42v.78h-5.42v-.78Z"/>
      <path class="cls-1" d="m20.13,0h5.42v.78h-5.42v-.78Z"/>
      <path class="cls-1" d="m42.55,0h5.42v.78h-5.42v-.78Z"/>
      <path class="cls-1" d="m59.36,0h5.42v.78h-5.42v-.78Z"/>
      <path class="cls-1" d="m98.59,0h5.42v.78h-5.42v-.78Z"/>
      <path class="cls-1" d="m0,1.37h.86v9.68h-.86V1.37Z"/>
      <path class="cls-1" d="m14.53,10.27h5.42v.79h-5.42v-.79Z"/>
      <path class="cls-1" d="m26.43,1.37h.93l3.1,9.68h-.94l-3.09-9.68Z"/>
      <path class="cls-1" d="m41.16,2.02c-.7.54-1.23,1.16-1.59,1.86-.37.7-.55,1.47-.55,2.3,0,.42.04.81.13,1.19.09.37.22.73.39,1.08.18.34.4.68.67,1,.27.32.6.64.97.96l-.5.67c-.86-.63-1.5-1.37-1.92-2.21-.42-.84-.63-1.73-.63-2.66s.21-1.81.64-2.66c.43-.84,1.06-1.58,1.92-2.2l.49.67h-.01Z"/>
      <path class="cls-1" d="m42.55,10.27h5.42v.79h-5.42v-.79Z"/>
      <path class="cls-1" d="m49.35,10.41c.7-.54,1.23-1.16,1.6-1.86s.56-1.47.56-2.3c0-.42-.04-.81-.13-1.19-.09-.37-.22-.73-.4-1.08s-.41-.68-.68-1c-.27-.32-.6-.64-.97-.96l.5-.67c.86.64,1.5,1.37,1.92,2.21.42.84.63,1.73.63,2.66,0,.46-.05.92-.16,1.37-.11.45-.27.88-.48,1.29-.21.41-.48.81-.8,1.18-.32.37-.69.71-1.12,1.01l-.49-.67h.01Z"/>
      <path class="cls-1" d="m56.04,1.37h.86v9.68h-.86V1.37Z"/>
      <path class="cls-1" d="m67.25,1.37h.86v9.68h-.86V1.37Z"/>
      <path class="cls-1" d="m95.27,1.37h.86v9.68h-.86V1.37Z"/>
      <path class="cls-1" d="m106.48,1.37h.86v9.68h-.86V1.37Z"/>
      <path class="cls-1" d="m0,11.65h.86v9.68h-.86v-9.68Z"/>
      <path class="cls-1" d="m11.21,11.65h.86v9.68h-.86v-9.68Z"/>
      <path class="cls-1" d="m14.53,20.55h5.42v.79h-5.42v-.79Z"/>
      <path class="cls-1" d="m21.33,20.68c.7-.54,1.23-1.16,1.6-1.86s.56-1.47.56-2.3c0-.42-.04-.81-.13-1.19-.09-.37-.22-.73-.4-1.08s-.41-.68-.68-1-.6-.64-.97-.96l.5-.67c.86.63,1.5,1.37,1.92,2.21.42.84.63,1.73.63,2.66,0,.46-.05.92-.16,1.37-.11.45-.27.88-.48,1.29-.21.41-.48.81-.8,1.18-.32.37-.69.71-1.12,1.01l-.49-.67h.01Z"/>
      <path class="cls-1" d="m33.63,11.65h.86v9.68h-.86v-9.68Z"/>
      <path class="cls-1" d="m42.55,20.55h5.42v.79h-5.42v-.79Z"/>
      <path class="cls-1" d="m56.04,11.65h.86v9.68h-.86v-9.68Z"/>
      <path class="cls-1" d="m67.25,11.65h.86v9.68h-.86v-9.68Z"/>
      <path class="cls-1" d="m81.78,20.55h5.42v.79h-5.42v-.79Z"/>
      <path class="cls-1" d="m87.38,20.55h5.42v.79h-5.42v-.79Z"/>
      <path class="cls-1" d="m95.27,11.65h.86v9.68h-.86v-9.68Z"/>
      <path class="cls-1" d="m106.48,11.65h.86v9.68h-.86v-9.68Z"/>
      <path class="cls-1" d="m0,21.92h.86v9.68h-.86v-9.68Z"/>
      <path class="cls-1" d="m14.53,30.82h5.42v.79h-5.42v-.79Z"/>
      <path class="cls-1" d="m27.23,26.9l3.55,1.47-.26.77-4.33-1.84v-.8l4.33-1.84.26.77-3.55,1.46Z"/>
      <path class="cls-1" d="m39.23,21.92h.86v9.68h-.86v-9.68Z"/>
      <path class="cls-1" d="m50.44,21.92h.86v9.68h-.86v-9.68Z"/>
      <path class="cls-1" d="m56.04,21.92h.86v9.68h-.86v-9.68Z"/>
      <path class="cls-1" d="m67.25,21.92h.86v9.68h-.86v-9.68Z"/>
      <path class="cls-1" d="m77.81,31.61h-.95l3.13-9.68h.93l-3.1,9.68Z"/>
      <path class="cls-1" d="m87.38,30.82h5.42v.79h-5.42v-.79Z"/>
      <path class="cls-1" d="m95.32,21.99l1.28,1.55-.47.42-1.4-1.37.59-.59Z"/>
      <path class="cls-1" d="m106.48,21.92h.86v9.68h-.86v-9.68Z"/>
      <path class="cls-1" d="m0,32.2h.86v9.68h-.86v-9.68Z"/>
      <path class="cls-1" d="m11.21,32.2h.86v9.68h-.86v-9.68Z"/>
      <path class="cls-1" d="m14.53,41.1h5.42v.79h-5.42v-.79Z"/>
      <path class="cls-1" d="m21.33,41.23c.7-.54,1.23-1.16,1.6-1.86s.56-1.47.56-2.3c0-.42-.04-.81-.13-1.19-.09-.37-.22-.73-.4-1.08s-.41-.68-.68-1-.6-.64-.97-.96l.5-.67c.86.63,1.5,1.37,1.92,2.21.42.84.63,1.73.63,2.66,0,.46-.05.92-.16,1.37-.11.45-.27.88-.48,1.29-.21.41-.48.81-.8,1.18-.32.37-.69.71-1.12,1.01l-.49-.67h.01Z"/>
      <path class="cls-1" d="m33.63,32.2h.86v9.68h-.86v-9.68Z"/>
      <path class="cls-1" d="m39.23,32.2h.86v9.68h-.86v-9.68Z"/>
      <path class="cls-1" d="m50.44,32.2h.86v9.68h-.86v-9.68Z"/>
      <path class="cls-1" d="m56.04,32.2h.86v9.68h-.86v-9.68Z"/>
      <path class="cls-1" d="m67.25,32.2h.86v9.68h-.86v-9.68Z"/>
      <path class="cls-1" d="m72.86,32.2h.86v9.68h-.86v-9.68Z"/>
      <path class="cls-1" d="m85.99,32.85c-.7.54-1.23,1.16-1.59,1.86s-.55,1.47-.55,2.3c0,.42.04.81.13,1.19.09.37.22.73.39,1.08.18.34.4.68.67,1,.27.32.6.64.97.96l-.5.67c-.86-.63-1.5-1.37-1.92-2.21-.42-.84-.63-1.73-.63-2.66s.21-1.81.64-2.66c.43-.84,1.06-1.58,1.92-2.2l.49.67h-.01Z"/>
      <path class="cls-1" d="m87.38,41.1h5.42v.79h-5.42v-.79Z"/>
      <path class="cls-1" d="m95.27,32.2h.86v9.68h-.86v-9.68Z"/>
      <path class="cls-1" d="m106.48,32.2h.86v9.68h-.86v-9.68Z"/>
      <path class="cls-1" d="m0,42.47h.86v9.68h-.86v-9.68Z"/>
      <path class="cls-1" d="m3.32,51.37h5.42v.79H3.32v-.79Z"/>
      <path class="cls-1" d="m8.92,51.37h5.42v.79h-5.42v-.79Z"/>
      <path class="cls-1" d="m14.53,51.37h5.42v.79h-5.42v-.79Z"/>
      <path class="cls-1" d="m20.13,51.37h5.42v.79h-5.42v-.79Z"/>
      <path class="cls-1" d="m27.37,52.16h-.95l3.13-9.68h.93l-3.1,9.68Z"/>
      <path class="cls-1" d="m39.23,42.47h.86v9.68h-.86v-9.68Z"/>
      <path class="cls-1" d="m42.55,51.37h5.42v.79h-5.42v-.79Z"/>
      <path class="cls-1" d="m50.44,42.47h.86v9.68h-.86v-9.68Z"/>
      <path class="cls-1" d="m56.04,42.47h.86v9.68h-.86v-9.68Z"/>
      <path class="cls-1" d="m59.36,51.37h5.42v.79h-5.42v-.79Z"/>
      <path class="cls-1" d="m67.25,42.47h.86v9.68h-.86v-9.68Z"/>
      <path class="cls-1" d="m76.87,42.47h.93l3.1,9.68h-.94l-3.09-9.68Z"/>
      <path class="cls-1" d="m81.78,51.37h5.42v.79h-5.42v-.79Z"/>
      <path class="cls-1" d="m87.38,51.37h5.42v.79h-5.42v-.79Z"/>
      <path class="cls-1" d="m94.57,51.19c.13-.03.27-.06.4-.09.13-.03.25-.07.36-.13.11-.06.21-.13.3-.21.09-.09.16-.2.21-.35-.24-.02-.41-.11-.52-.27-.11-.16-.16-.32-.16-.48,0-.3.08-.52.25-.68.17-.15.36-.23.58-.23.28,0,.49.1.63.3s.21.44.21.72c0,.22-.04.44-.13.68-.09.24-.22.46-.39.66-.18.21-.39.38-.66.53-.26.15-.57.24-.93.29l-.16-.73Z"/>
      <path class="cls-1" d="m98.59,51.37h5.42v.79h-5.42v-.79Z"/>
      <path class="cls-1" d="m106.48,42.47h.86v9.68h-.86v-9.68Z"/>
    </g>
  </g>
</svg>