<?xml version="1.0" encoding="UTF-8"?>
<svg id="Ebene_2" data-name="Ebene 2" xmlns="http://www.w3.org/2000/svg" viewBox="0 0 169.48 185.53">
  <defs>
    <style>
      .cls-1 {
        fill: #72b62b;
        stroke-width: 0px;
      }
    </style>
  </defs>
  <g id="Ebene_1-2" data-name="Ebene 1">
    <g>
      <path class="cls-1" d="m33.05,136.32l12.26-32.23h7.88l12.44,32.23h-7.84l-2.62-6.85h-12.48l-2.25,6.85h-7.4Zm20.52-12.26l-3.61-10.41c-.1-.31-.23-.84-.4-1.59s-.33-1.67-.51-2.75c-.19,1.04-.37,1.98-.55,2.81s-.31,1.38-.4,1.66l-3.48,10.28h8.94Z"/>
      <path class="cls-1" d="m76.4,136.32l-11.91-32.23h7.62l6.27,20.1c.12.41.3,1.17.55,2.29s.51,2.39.79,3.81c.19-1.38.4-2.61.63-3.68s.45-1.95.67-2.64l6.36-19.88h7.53l-12,32.23h-6.52Z"/>
      <path class="cls-1" d="m98.53,136.32v-32.23h6.89v32.23h-6.89Z"/>
      <path class="cls-1" d="m112.77,136.32v-32.23h18.98v5.81h-12.09v6.63h12.09v5.86h-12.09v13.94h-6.89Z"/>
    </g>
    <path class="cls-1" d="m18.04,83.44c0,1.54,1.24,2.77,2.77,2.77s2.77-1.24,2.77-2.77V5.54h96.97l25.32,25.32v52.58c0,1.54,1.24,2.77,2.77,2.77s2.77-1.24,2.77-2.77V29.72c0-.7-.27-1.42-.81-1.96L123.67.83c-.5-.5-1.2-.82-1.97-.82H20.81c-1.54,0-2.77,1.24-2.77,2.77v80.67h0Zm133.37,73.54c0-1.54-1.24-2.77-2.77-2.77s-2.77,1.24-2.77,2.77v23.03H23.59v-23.03c0-1.54-1.24-2.77-2.77-2.77s-2.77,1.24-2.77,2.77v25.79c0,1.54,1.24,2.77,2.77,2.77h127.84c1.54,0,2.77-1.24,2.77-2.77v-25.79h0Z"/>
    <path class="cls-1" d="m124.47,2.77c0-1.54-1.24-2.77-2.77-2.77s-2.77,1.24-2.77,2.77v13.48c0,4.46,1.83,8.53,4.77,11.47,2.94,2.94,7.01,4.77,11.47,4.77h13.48c1.54,0,2.77-1.24,2.77-2.77s-1.24-2.77-2.77-2.77h-13.48c-2.94,0-5.61-1.21-7.56-3.14-1.95-1.95-3.14-4.62-3.14-7.56V2.78h-.01Z"/>
    <path class="cls-1" d="m5.53,154.2h158.42v-67.99H5.53v67.99Zm161.18,5.54H2.77c-1.54,0-2.77-1.24-2.77-2.77v-73.54c0-1.54,1.24-2.77,2.77-2.77h163.94c1.54,0,2.77,1.24,2.77,2.77v73.54c0,1.54-1.24,2.77-2.77,2.77Z"/>
    <path class="cls-1" d="m42.73,31.73c-1.54,0-2.77,1.24-2.77,2.77s1.24,2.77,2.77,2.77h59.66c1.54,0,2.77-1.24,2.77-2.77s-1.24-2.77-2.77-2.77h-59.66Z"/>
    <path class="cls-1" d="m42.73,47.02c-1.54,0-2.77,1.24-2.77,2.77s1.24,2.77,2.77,2.77h84.01c1.54,0,2.77-1.24,2.77-2.77s-1.24-2.77-2.77-2.77H42.73Z"/>
    <path class="cls-1" d="m42.73,62.29c-1.54,0-2.77,1.24-2.77,2.77s1.24,2.77,2.77,2.77h84.01c1.54,0,2.77-1.24,2.77-2.77s-1.24-2.77-2.77-2.77H42.73Z"/>
  </g>
</svg>