<?xml version="1.0" encoding="UTF-8"?>
<svg id="Ebene_2" data-name="Ebene 2" xmlns="http://www.w3.org/2000/svg" viewBox="0 0 125.28 93.35">
  <defs>
    <style>
      .cls-1 {
        fill: #72b62b;
        fill-rule: evenodd;
        stroke-width: 0px;
      }
    </style>
  </defs>
  <g id="Ebene_1-2" data-name="Ebene 1">
    <path class="cls-1" d="m12.69,0C5.69,0,0,5.75,0,12.78v67.78c0,7.03,5.69,12.78,12.69,12.78h99.9c7,0,12.67-5.75,12.67-12.78v-6.84c.02-.15.02-.3,0-.45V12.79C125.26,5.76,119.59,0,112.59,0H12.69Zm0,4.32h99.9c4.66,0,8.35,3.73,8.35,8.47v56.14s-30.83-25.23-30.83-25.23c-.83-.68-2.02-.65-2.82.06l-17.19,15.45-26.7-27.73c-.4-.41-.95-.65-1.52-.66-.57-.01-1.13.21-1.54.62L4.32,66.02V12.79c0-4.74,3.71-8.47,8.37-8.47h0Zm56.17,13.73c-5.05,0-9.17,4.18-9.17,9.24s4.11,9.23,9.17,9.23,9.18-4.16,9.18-9.23-4.13-9.24-9.18-9.24h0Zm0,4.33c2.69,0,4.86,2.17,4.86,4.92s-2.16,4.91-4.86,4.91-4.84-2.15-4.84-4.91,2.15-4.92,4.84-4.92Zm-27.09,13.67l31.47,32.66c.83.85,2.19.87,3.05.05.85-.83.88-2.19.06-3.05l-3.26-3.39,15.71-14.12,32.13,26.32v6.04c0,4.74-3.69,8.46-8.35,8.46H12.69c-4.66,0-8.37-3.73-8.37-8.46v-8.56l37.46-35.96Z"/>
  </g>
</svg>