<?xml version="1.0" encoding="UTF-8"?>
<svg id="Ebene_2" data-name="Ebene 2" xmlns="http://www.w3.org/2000/svg" viewBox="0 0 270 247.5">
  <defs>
    <style>
      .cls-1 {
        fill: #72b62b;
        stroke-width: 0px;
      }
    </style>
  </defs>
  <g id="Ebene_1-2" data-name="Ebene 1">
    <g>
      <path class="cls-1" d="m255,105v7.5h7.5v7.5h-7.5v-7.5h-7.5v7.5h-7.5v-7.5h7.5v-7.5h-7.5v-7.5h-7.5v7.5h-7.5v7.5h7.5v7.5h-7.5v-7.5h-7.5v7.5h-7.5v-7.5h7.5v-7.5h-7.5v-7.5h-7.5v7.5h-7.5v7.5h7.5v7.5h-7.5v-7.5h-7.5v7.5h-7.5v-7.5h7.5v-7.5h-7.5v-7.5h-7.5v7.5h-7.5v7.5h7.5v7.5h-7.5v-7.5h-7.5v7.5h-7.5v-7.5h7.5v-7.5h-7.5v-7.5h-7.5v7.5h-7.5v7.5h7.5v7.5h-7.5v-7.5h-7.5v7.5h-7.5v-7.5h7.5v-7.5h-7.5v-7.5h-7.5v7.5h-7.5v7.5h7.5v7.5h-7.5v-7.5h-7.5v7.5h-7.5v-7.5h7.5v-7.5h-7.5v-7.5h-7.5v7.5h-7.5v7.5h7.5v7.5h-7.5v-7.5h-7.5v7.5h-7.5v-7.5h7.5v-7.5h-7.5v-7.5h-7.5v7.5h-7.5v7.5h7.5v7.5h-7.5v-7.5h-7.5v7.5h-7.5v-7.5h7.5v-7.5h-7.5v-7.5h-7.5v7.5h-7.5v7.5h7.5v7.5h-7.5v-7.5h-7.5v7.5H0v7.5h7.5v7.5H0v7.5h7.5v7.5H0v7.5h7.5v7.5H0v7.5h7.5v7.5H0v67.5h270V97.5h-7.5v7.5h-7.5ZM22.5,195h-7.5v-7.5h7.5v7.5Zm0-30h-7.5v-7.5h7.5v7.5Zm0-15h-7.5v-7.5h7.5v7.5Zm0-15h-7.5v-7.5h7.5v7.5Zm15,45h-7.5v-7.5h7.5v7.5Zm0-15h-7.5v-7.5h7.5v7.5Zm0-15h-7.5v-7.5h7.5v7.5Zm0-15h-7.5v-7.5h7.5v7.5Zm15,60h-7.5v-7.5h7.5v7.5Zm0-30h-7.5v-7.5h7.5v7.5Zm0-15h-7.5v-7.5h7.5v7.5Zm0-15h-7.5v-7.5h7.5v7.5Zm15,45h-7.5v-7.5h7.5v7.5Zm0-15h-7.5v-7.5h7.5v7.5Zm0-15h-7.5v-7.5h7.5v7.5Zm0-15h-7.5v-7.5h7.5v7.5Zm15,60h-7.5v-7.5h7.5v7.5Zm0-30h-7.5v-7.5h7.5v7.5Zm0-15h-7.5v-7.5h7.5v7.5Zm0-15h-7.5v-7.5h7.5v7.5Zm15,45h-7.5v-7.5h7.5v7.5Zm0-15h-7.5v-7.5h7.5v7.5Zm0-15h-7.5v-7.5h7.5v7.5Zm0-15h-7.5v-7.5h7.5v7.5Zm15,60h-7.5v-7.5h7.5v7.5Zm0-30h-7.5v-7.5h7.5v7.5Zm0-15h-7.5v-7.5h7.5v7.5Zm0-15h-7.5v-7.5h7.5v7.5Zm15,45h-7.5v-7.5h7.5v7.5Zm0-15h-7.5v-7.5h7.5v7.5Zm0-15h-7.5v-7.5h7.5v7.5Zm0-15h-7.5v-7.5h7.5v7.5Zm15,60h-7.5v-7.5h7.5v7.5Zm0-30h-7.5v-7.5h7.5v7.5Zm0-15h-7.5v-7.5h7.5v7.5Zm0-15h-7.5v-7.5h7.5v7.5Zm15,45h-7.5v-7.5h7.5v7.5Zm0-15h-7.5v-7.5h7.5v7.5Zm0-15h-7.5v-7.5h7.5v7.5Zm0-15h-7.5v-7.5h7.5v7.5Zm15,60h-7.5v-7.5h7.5v7.5Zm0-30h-7.5v-7.5h7.5v7.5Zm0-15h-7.5v-7.5h7.5v7.5Zm0-15h-7.5v-7.5h7.5v7.5Zm15,45h-7.5v-7.5h7.5v7.5Zm0-15h-7.5v-7.5h7.5v7.5Zm0-15h-7.5v-7.5h7.5v7.5Zm0-15h-7.5v-7.5h7.5v7.5Zm15,60h-7.5v-7.5h7.5v7.5Zm0-30h-7.5v-7.5h7.5v7.5Zm0-15h-7.5v-7.5h7.5v7.5Zm0-15h-7.5v-7.5h7.5v7.5Zm15,45h-7.5v-7.5h7.5v7.5Zm0-15h-7.5v-7.5h7.5v7.5Zm0-15h-7.5v-7.5h7.5v7.5Zm0-15h-7.5v-7.5h7.5v7.5Zm15,60h-7.5v-7.5h7.5v7.5Zm0-30h-7.5v-7.5h7.5v7.5Zm0-15h-7.5v-7.5h7.5v7.5Zm0-15h-7.5v-7.5h7.5v7.5Zm15,45h-7.5v-7.5h7.5v7.5Zm0-15h-7.5v-7.5h7.5v7.5Zm0-15h-7.5v-7.5h7.5v7.5Zm0-15h-7.5v-7.5h7.5v7.5Zm15,60h-7.5v-7.5h7.5v7.5Zm0-30h-7.5v-7.5h7.5v7.5Zm0-15h-7.5v-7.5h7.5v7.5Zm0-15h-7.5v-7.5h7.5v7.5Z"/>
      <path class="cls-1" d="m247.5,97.5h7.5v7.5h-7.5v-7.5Z"/>
      <path class="cls-1" d="m255,90h7.5v7.5h-7.5v-7.5Z"/>
      <path class="cls-1" d="m240,90h7.5v7.5h-7.5v-7.5Z"/>
      <path class="cls-1" d="m247.5,82.5h7.5v7.5h-7.5v-7.5Z"/>
      <path class="cls-1" d="m262.5,82.5h7.5v7.5h-7.5v-7.5Z"/>
      <path class="cls-1" d="m232.5,82.5h7.5v7.5h-7.5v-7.5Z"/>
      <path class="cls-1" d="m225,90h7.5v7.5h-7.5v-7.5Z"/>
      <path class="cls-1" d="m210,90h7.5v7.5h-7.5v-7.5Z"/>
      <path class="cls-1" d="m195,90h7.5v7.5h-7.5v-7.5Z"/>
      <path class="cls-1" d="m202.5,82.5h7.5v7.5h-7.5v-7.5Z"/>
      <path class="cls-1" d="m217.5,82.5h7.5v7.5h-7.5v-7.5Z"/>
      <path class="cls-1" d="m187.5,82.5h7.5v7.5h-7.5v-7.5Z"/>
      <path class="cls-1" d="m180,90h7.5v7.5h-7.5v-7.5Z"/>
      <path class="cls-1" d="m165,90h7.5v7.5h-7.5v-7.5Z"/>
      <path class="cls-1" d="m150,90h7.5v7.5h-7.5v-7.5Z"/>
      <path class="cls-1" d="m157.5,82.5h7.5v7.5h-7.5v-7.5Z"/>
      <path class="cls-1" d="m172.5,82.5h7.5v7.5h-7.5v-7.5Z"/>
      <path class="cls-1" d="m142.5,82.5h7.5v7.5h-7.5v-7.5Z"/>
      <path class="cls-1" d="m135,90h7.5v7.5h-7.5v-7.5Z"/>
      <path class="cls-1" d="m120,90h7.5v7.5h-7.5v-7.5Z"/>
      <path class="cls-1" d="m105,90h7.5v7.5h-7.5v-7.5Z"/>
      <path class="cls-1" d="m112.5,82.5h7.5v7.5h-7.5v-7.5Z"/>
      <path class="cls-1" d="m127.5,82.5h7.5v7.5h-7.5v-7.5Z"/>
      <path class="cls-1" d="m97.5,82.5h7.5v7.5h-7.5v-7.5Z"/>
      <path class="cls-1" d="m90,90h7.5v7.5h-7.5v-7.5Z"/>
      <path class="cls-1" d="m75,90h7.5v7.5h-7.5v-7.5Z"/>
      <path class="cls-1" d="m60,90h7.5v7.5h-7.5v-7.5Z"/>
      <path class="cls-1" d="m67.5,82.5h7.5v7.5h-7.5v-7.5Z"/>
      <path class="cls-1" d="m82.5,82.5h7.5v7.5h-7.5v-7.5Z"/>
      <path class="cls-1" d="m52.5,82.5h7.5v7.5h-7.5v-7.5Z"/>
      <path class="cls-1" d="m45,90h7.5v7.5h-7.5v-7.5Z"/>
      <path class="cls-1" d="m30,90h7.5v7.5h-7.5v-7.5Z"/>
      <path class="cls-1" d="m15,90h7.5v7.5h-7.5v-7.5Z"/>
      <path class="cls-1" d="m22.5,82.5h7.5v7.5h-7.5v-7.5Z"/>
      <path class="cls-1" d="m37.5,82.5h7.5v7.5h-7.5v-7.5Z"/>
      <path class="cls-1" d="m7.5,82.5h7.5v7.5h-7.5v-7.5Z"/>
      <path class="cls-1" d="m240,75h7.5v7.5h-7.5v-7.5Z"/>
      <path class="cls-1" d="m255,75h7.5v7.5h-7.5v-7.5Z"/>
      <path class="cls-1" d="m225,75h7.5v7.5h-7.5v-7.5Z"/>
      <path class="cls-1" d="m195,75h7.5v7.5h-7.5v-7.5Z"/>
      <path class="cls-1" d="m210,75h7.5v7.5h-7.5v-7.5Z"/>
      <path class="cls-1" d="m180,75h7.5v7.5h-7.5v-7.5Z"/>
      <path class="cls-1" d="m150,75h7.5v7.5h-7.5v-7.5Z"/>
      <path class="cls-1" d="m165,75h7.5v7.5h-7.5v-7.5Z"/>
      <path class="cls-1" d="m135,75h7.5v7.5h-7.5v-7.5Z"/>
      <path class="cls-1" d="m105,75h7.5v7.5h-7.5v-7.5Z"/>
      <path class="cls-1" d="m120,75h7.5v7.5h-7.5v-7.5Z"/>
      <path class="cls-1" d="m90,75h7.5v7.5h-7.5v-7.5Z"/>
      <path class="cls-1" d="m60,75h7.5v7.5h-7.5v-7.5Z"/>
      <path class="cls-1" d="m75,75h7.5v7.5h-7.5v-7.5Z"/>
      <path class="cls-1" d="m45,75h7.5v7.5h-7.5v-7.5Z"/>
      <path class="cls-1" d="m15,75h7.5v7.5h-7.5v-7.5Z"/>
      <path class="cls-1" d="m262.5,67.5h7.5v7.5h-7.5v-7.5Z"/>
      <path class="cls-1" d="m232.5,67.5h7.5v7.5h-7.5v-7.5Z"/>
      <path class="cls-1" d="m202.5,67.5h7.5v7.5h-7.5v-7.5Z"/>
      <path class="cls-1" d="m172.5,67.5h7.5v7.5h-7.5v-7.5Z"/>
      <path class="cls-1" d="m142.5,67.5h7.5v7.5h-7.5v-7.5Z"/>
      <path class="cls-1" d="m112.5,67.5h7.5v7.5h-7.5v-7.5Z"/>
      <path class="cls-1" d="m82.5,67.5h7.5v7.5h-7.5v-7.5Z"/>
      <path class="cls-1" d="m52.5,67.5h7.5v7.5h-7.5v-7.5Z"/>
      <path class="cls-1" d="m22.5,67.5h7.5v7.5h-7.5v-7.5Z"/>
      <path class="cls-1" d="m247.5,52.5h7.5v7.5h-7.5v-7.5Z"/>
      <path class="cls-1" d="m217.5,52.5h7.5v7.5h-7.5v-7.5Z"/>
      <path class="cls-1" d="m187.5,52.5h7.5v7.5h-7.5v-7.5Z"/>
      <path class="cls-1" d="m157.5,52.5h7.5v7.5h-7.5v-7.5Z"/>
      <path class="cls-1" d="m127.5,52.5h7.5v7.5h-7.5v-7.5Z"/>
      <path class="cls-1" d="m97.5,52.5h7.5v7.5h-7.5v-7.5Z"/>
      <path class="cls-1" d="m67.5,52.5h7.5v7.5h-7.5v-7.5Z"/>
      <path class="cls-1" d="m37.5,52.5h7.5v7.5h-7.5v-7.5Z"/>
      <path class="cls-1" d="m7.5,52.5h7.5v7.5h-7.5v-7.5Z"/>
      <path class="cls-1" d="m255,60h7.5v7.5h-7.5v-7.5Z"/>
      <path class="cls-1" d="m225,60h7.5v7.5h-7.5v-7.5Z"/>
      <path class="cls-1" d="m195,60h7.5v7.5h-7.5v-7.5Z"/>
      <path class="cls-1" d="m165,60h7.5v7.5h-7.5v-7.5Z"/>
      <path class="cls-1" d="m135,60h7.5v7.5h-7.5v-7.5Z"/>
      <path class="cls-1" d="m105,60h7.5v7.5h-7.5v-7.5Z"/>
      <path class="cls-1" d="m75,60h7.5v7.5h-7.5v-7.5Z"/>
      <path class="cls-1" d="m45,60h7.5v7.5h-7.5v-7.5Z"/>
      <path class="cls-1" d="m15,60h7.5v7.5h-7.5v-7.5Z"/>
      <path class="cls-1" d="m240,60h7.5v7.5h-7.5v-7.5Z"/>
      <path class="cls-1" d="m210,60h7.5v7.5h-7.5v-7.5Z"/>
      <path class="cls-1" d="m180,60h7.5v7.5h-7.5v-7.5Z"/>
      <path class="cls-1" d="m150,60h7.5v7.5h-7.5v-7.5Z"/>
      <path class="cls-1" d="m120,60h7.5v7.5h-7.5v-7.5Z"/>
      <path class="cls-1" d="m90,60h7.5v7.5h-7.5v-7.5Z"/>
      <path class="cls-1" d="m60,60h7.5v7.5h-7.5v-7.5Z"/>
      <path class="cls-1" d="m30,60h7.5v7.5h-7.5v-7.5Z"/>
      <path class="cls-1" d="m0,60h7.5v7.5H0v-7.5Z"/>
      <path class="cls-1" d="m255,45h7.5v7.5h-7.5v-7.5Z"/>
      <path class="cls-1" d="m225,45h7.5v7.5h-7.5v-7.5Z"/>
      <path class="cls-1" d="m195,45h7.5v7.5h-7.5v-7.5Z"/>
      <path class="cls-1" d="m165,45h7.5v7.5h-7.5v-7.5Z"/>
      <path class="cls-1" d="m135,45h7.5v7.5h-7.5v-7.5Z"/>
      <path class="cls-1" d="m105,45h7.5v7.5h-7.5v-7.5Z"/>
      <path class="cls-1" d="m75,45h7.5v7.5h-7.5v-7.5Z"/>
      <path class="cls-1" d="m45,45h7.5v7.5h-7.5v-7.5Z"/>
      <path class="cls-1" d="m15,45h7.5v7.5h-7.5v-7.5Z"/>
      <path class="cls-1" d="m240,45h7.5v7.5h-7.5v-7.5Z"/>
      <path class="cls-1" d="m210,45h7.5v7.5h-7.5v-7.5Z"/>
      <path class="cls-1" d="m180,45h7.5v7.5h-7.5v-7.5Z"/>
      <path class="cls-1" d="m150,45h7.5v7.5h-7.5v-7.5Z"/>
      <path class="cls-1" d="m120,45h7.5v7.5h-7.5v-7.5Z"/>
      <path class="cls-1" d="m90,45h7.5v7.5h-7.5v-7.5Z"/>
      <path class="cls-1" d="m60,45h7.5v7.5h-7.5v-7.5Z"/>
      <path class="cls-1" d="m30,45h7.5v7.5h-7.5v-7.5Z"/>
      <path class="cls-1" d="m0,45h7.5v7.5H0v-7.5Z"/>
      <path class="cls-1" d="m255,30h7.5v7.5h-7.5v-7.5Z"/>
      <path class="cls-1" d="m225,30h7.5v7.5h-7.5v-7.5Z"/>
      <path class="cls-1" d="m195,30h7.5v7.5h-7.5v-7.5Z"/>
      <path class="cls-1" d="m165,30h7.5v7.5h-7.5v-7.5Z"/>
      <path class="cls-1" d="m135,30h7.5v7.5h-7.5v-7.5Z"/>
      <path class="cls-1" d="m105,30h7.5v7.5h-7.5v-7.5Z"/>
      <path class="cls-1" d="m75,30h7.5v7.5h-7.5v-7.5Z"/>
      <path class="cls-1" d="m45,30h7.5v7.5h-7.5v-7.5Z"/>
      <path class="cls-1" d="m15,30h7.5v7.5h-7.5v-7.5Z"/>
      <path class="cls-1" d="m240,30h7.5v7.5h-7.5v-7.5Z"/>
      <path class="cls-1" d="m210,30h7.5v7.5h-7.5v-7.5Z"/>
      <path class="cls-1" d="m180,30h7.5v7.5h-7.5v-7.5Z"/>
      <path class="cls-1" d="m150,30h7.5v7.5h-7.5v-7.5Z"/>
      <path class="cls-1" d="m120,30h7.5v7.5h-7.5v-7.5Z"/>
      <path class="cls-1" d="m90,30h7.5v7.5h-7.5v-7.5Z"/>
      <path class="cls-1" d="m60,30h7.5v7.5h-7.5v-7.5Z"/>
      <path class="cls-1" d="m30,30h7.5v7.5h-7.5v-7.5Z"/>
      <path class="cls-1" d="m0,30h7.5v7.5H0v-7.5Z"/>
      <path class="cls-1" d="m240,15h7.5v7.5h-7.5v-7.5Z"/>
      <path class="cls-1" d="m210,15h7.5v7.5h-7.5v-7.5Z"/>
      <path class="cls-1" d="m180,15h7.5v7.5h-7.5v-7.5Z"/>
      <path class="cls-1" d="m150,15h7.5v7.5h-7.5v-7.5Z"/>
      <path class="cls-1" d="m120,15h7.5v7.5h-7.5v-7.5Z"/>
      <path class="cls-1" d="m90,15h7.5v7.5h-7.5v-7.5Z"/>
      <path class="cls-1" d="m60,15h7.5v7.5h-7.5v-7.5Z"/>
      <path class="cls-1" d="m30,15h7.5v7.5h-7.5v-7.5Z"/>
      <path class="cls-1" d="m0,15h7.5v7.5H0v-7.5Z"/>
      <path class="cls-1" d="m255,0h7.5v7.5h-7.5V0Z"/>
      <path class="cls-1" d="m225,0h7.5v7.5h-7.5V0Z"/>
      <path class="cls-1" d="m195,0h7.5v7.5h-7.5V0Z"/>
      <path class="cls-1" d="m165,0h7.5v7.5h-7.5V0Z"/>
      <path class="cls-1" d="m135,0h7.5v7.5h-7.5V0Z"/>
      <path class="cls-1" d="m105,0h7.5v7.5h-7.5V0Z"/>
      <path class="cls-1" d="m75,0h7.5v7.5h-7.5V0Z"/>
      <path class="cls-1" d="m45,0h7.5v7.5h-7.5V0Z"/>
      <path class="cls-1" d="m15,0h7.5v7.5h-7.5V0Z"/>
      <path class="cls-1" d="m30,75h7.5v7.5h-7.5v-7.5Z"/>
      <path class="cls-1" d="m0,75h7.5v7.5H0v-7.5Z"/>
      <path class="cls-1" d="m0,90h7.5v7.5H0v-7.5Z"/>
      <path class="cls-1" d="m7.5,97.5h7.5v7.5h-7.5v-7.5Z"/>
      <path class="cls-1" d="m0,105h7.5v7.5H0v-7.5Z"/>
    </g>
  </g>
</svg>