<?xml version="1.0" encoding="UTF-8"?>
<svg id="Ebene_2" data-name="Ebene 2" xmlns="http://www.w3.org/2000/svg" viewBox="0 0 107.38 76.96">
  <defs>
    <style>
      .cls-1 {
        fill: #72b62b;
        stroke-width: 0px;
      }
    </style>
  </defs>
  <g id="Ebene_1-2" data-name="Ebene 1">
    <g>
      <path class="cls-1" d="m13.71,9.86c0,3.53-5.29,3.53-5.29,0s5.29-3.53,5.29,0"/>
      <path class="cls-1" d="m22.25,9.86c0,3.53-5.29,3.53-5.29,0s5.29-3.53,5.29,0"/>
      <path class="cls-1" d="m30.79,9.86c0,3.53-5.29,3.53-5.29,0s5.29-3.53,5.29,0"/>
      <path class="cls-1" d="m84.41,51.95H22.97c-.96,0-1.8.84-1.8,1.8s.84,1.8,1.8,1.8h61.45c.96,0,1.8-.84,1.8-1.8,0-.96-.85-1.8-1.81-1.8h0Z"/>
      <path class="cls-1" d="m74.19,60.36h-40.88c-.96,0-1.8.84-1.8,1.8s.84,1.8,1.8,1.8h40.88c.96,0,1.8-.84,1.8-1.8s-.84-1.8-1.8-1.8Z"/>
      <path class="cls-1" d="m97.52,0H9.86C4.45,0,0,4.45,0,9.86v57.24c0,5.41,4.45,9.86,9.86,9.86h87.66c5.41,0,9.86-4.45,9.86-9.86V9.86c0-5.41-4.44-9.86-9.85-9.86h0Zm6.25,67.1c0,3.37-2.77,6.25-6.25,6.25H9.86c-3.37,0-6.25-2.77-6.25-6.25V9.86c0-3.37,2.77-6.25,6.25-6.25h87.66c3.37,0,6.25,2.77,6.25,6.25v57.24Z"/>
      <path class="cls-1" d="m70.47,41.25c0-.96-.24-1.93-.84-2.64l-11.79-18.4c-.96-1.44-2.53-2.28-4.21-2.28s-3.25.84-4.21,2.28l-11.79,18.4c-.96,1.56-1.08,3.49-.12,5.05.84,1.56,2.53,2.53,4.33,2.53h23.57c1.8,0,3.49-.96,4.33-2.53.48-.72.72-1.56.72-2.4h0Zm-3.37.96c-.36.6-.96.96-1.68.96h-23.45c-.72,0-1.32-.36-1.68-.96-.36-.6-.24-1.32.12-1.93l11.79-18.4c.36-.48.96-.84,1.56-.84s1.2.36,1.56.84l11.78,18.4c.24.24.24.6.24.96s-.12.6-.24.96h0Z"/>
      <path class="cls-1" d="m52.19,37.4h3.01v2.77h-3.01v-2.77Z"/>
      <path class="cls-1" d="m52.19,26.94h3.01v8.42h-3.01v-8.42Z"/>
    </g>
  </g>
</svg>