<?xml version="1.0" encoding="UTF-8"?>
<svg id="Ebene_2" data-name="Ebene 2" xmlns="http://www.w3.org/2000/svg" viewBox="0 0 83.04 83.04">
  <defs>
    <style>
      .cls-1 {
        fill: #72b62b;
        stroke-width: 0px;
      }
    </style>
  </defs>
  <g id="Ebene_1-2" data-name="Ebene 1">
    <g>
      <path class="cls-1" d="m39.64,41.48l24.96,24.96c.54.47,1.36.4,1.83-.14.42-.49.42-1.2,0-1.69l-24.96-24.96c8.77-9.77,7.95-24.8-1.82-33.57C35.3,2.16,29.64,0,23.77,0,10.64,0,0,10.66,0,23.79c0,6.3,2.5,12.34,6.96,16.8,8.93,8.93,23.28,9.32,32.68.89ZM2.59,23.78c0-11.69,9.49-21.17,21.18-21.17,11.69,0,21.17,9.49,21.17,21.18,0,11.69-9.49,21.17-21.18,21.17-5.61,0-11-2.23-14.97-6.2-3.98-3.97-6.22-9.36-6.2-14.98Z"/>
      <path class="cls-1" d="m76.02,16.87h-24.77c-.72,0-1.3.58-1.3,1.3s.58,1.3,1.3,1.3h24.77c2.44,0,4.42,1.98,4.42,4.42v11.15h-31.79c-.72,0-1.3.58-1.3,1.3s.58,1.3,1.3,1.3h31.79v38.43c0,2.42-1.96,4.39-4.39,4.39H23.86c-2.43,0-4.4-1.97-4.41-4.41v-24.79c0-.72-.58-1.3-1.3-1.3s-1.3.58-1.3,1.3v24.79c0,3.86,3.14,7,7,7h52.19c3.85,0,6.97-3.13,6.98-6.98V23.89c0-3.88-3.14-7.02-7.02-7.02Z"/>
      <path class="cls-1" d="m76.55,27.25c0-2.15-1.74-3.89-3.89-3.89s-3.89,1.74-3.89,3.89,1.74,3.89,3.89,3.89,3.89-1.74,3.89-3.89Zm-5.19,0c0-.72.58-1.3,1.3-1.3s1.3.58,1.3,1.3-.58,1.3-1.3,1.3-1.3-.58-1.3-1.3Z"/>
      <path class="cls-1" d="m64.87,27.25c0-2.15-1.74-3.89-3.89-3.89s-3.89,1.74-3.89,3.89,1.74,3.89,3.89,3.89,3.89-1.74,3.89-3.89Zm-5.19,0c0-.72.58-1.3,1.3-1.3s1.3.58,1.3,1.3-.58,1.3-1.3,1.3-1.3-.58-1.3-1.3Z"/>
      <path class="cls-1" d="m21.26,25.11c2.46,0,4.45-1.99,4.45-4.45s-1.99-4.45-4.45-4.45c-2.46,0-4.45,1.99-4.45,4.45,0,2.46,1.99,4.45,4.45,4.45Zm0-6.31c1.02,0,1.86.83,1.86,1.86s-.83,1.86-1.86,1.86-1.86-.83-1.86-1.86c.01-1.02.84-1.84,1.86-1.84h0Z"/>
      <path class="cls-1" d="m36.98,35.68V12.33c0-.72-.58-1.3-1.3-1.3H12.32c-.72,0-1.3.58-1.3,1.3v23.35c0,.72.58,1.3,1.3,1.3h23.35c.72,0,1.3-.58,1.3-1.3Zm-11.14-5.88l4.77-3.04,3.78,1.62v4.98l-8.54-3.56Zm8.54-16.17v11.94l-3.38-1.45c-.39-.17-.85-.13-1.21.1l-6.88,4.37-2.96-1.23c-.36-.15-.78-.13-1.12.06l-5.19,2.85V13.62h20.73Zm-20.76,19.59l5.92-3.24,10.56,4.42H13.62v-1.17Z"/>
    </g>
  </g>
</svg>