<?xml version="1.0" encoding="UTF-8"?>
<svg id="Ebene_2" data-name="Ebene 2" xmlns="http://www.w3.org/2000/svg" viewBox="0 0 119.22 92.55">
  <defs>
    <style>
      .cls-1 {
        fill: #72b62b;
        stroke-width: 0px;
      }
    </style>
  </defs>
  <g id="Ebene_1-2" data-name="Ebene 1">
    <g>
      <path class="cls-1" d="m115.55,20.11l-8.09-5.32c-1.39-.92-3-1.39-4.39-1.39v-2.31c0-6.24-5.08-11.09-11.09-11.09H11.09C4.85,0,0,5.08,0,11.09v58.47c0,6.24,5.08,11.09,11.09,11.09h49.22v6.24c0,3.47,3.24,6.24,6.7,5.55,1.39-.23,3-1.16,4.39-1.85,3-1.39,6.24-2.77,9.24-4.16.92-.46,1.85-1.16,2.31-2.08l2.54-3.93h6.47c6.24,0,11.09-5.08,11.09-11.09v-15.71l14.79-22.65c2.54-3.24,1.39-8.32-2.31-10.86h0ZM4.62,11.32c0-3.7,3-6.47,6.47-6.47h80.89c3.7,0,6.47,3,6.47,6.47v3.7c-.69.46-1.62,1.16-2.08,2.08l-13.87,21.26-24.5,8.55c-3.7,1.39-8.09.69-11.32-1.62l-4.85-3.47c-4.62-3.24-10.4-3.93-15.71-1.62l-21.49,9.01V11.32Zm56.62,59.16c-.69.92-.92,1.85-.92,3v2.77H11.32c-3.7,0-6.7-3-6.7-6.7v-15.02l23.34-9.71c3.7-1.62,7.86-1.16,11.32,1.16l4.85,3.47c4.62,3.24,10.4,3.93,15.48,2.08l18.72-6.7-17.1,25.65Zm37.21-.92c0,3.7-3,6.47-6.47,6.47h-3.47l9.94-15.25v8.78Zm15.48-40.67l-34.9,53.15c0,.23-.23.23-.46.46l-12.48,5.55c-.69.23-1.39-.23-1.39-.92l.23-13.63c0-.23,0-.46.23-.46,0,0,20.34-30.74,20.34-30.97l14.79-22.42c.69-.92,1.85-1.62,3-1.62.69,0,1.39.23,1.85.46l8.09,5.32c1.39,1.16,1.85,3.47.69,5.08h0Z"/>
      <path class="cls-1" d="m36.52,21.72c0-5.32-4.39-9.71-9.71-9.71s-9.71,4.39-9.71,9.71,4.39,9.71,9.71,9.71,9.71-4.39,9.71-9.71Zm-15.02,0c0-2.77,2.31-5.08,5.08-5.08s5.08,2.31,5.08,5.08-2.31,5.08-5.08,5.08-5.08-2.31-5.08-5.08Z"/>
    </g>
  </g>
</svg>