<?xml version="1.0" encoding="UTF-8"?>
<svg id="Ebene_2" data-name="Ebene 2" xmlns="http://www.w3.org/2000/svg" viewBox="0 0 188.39 143.39">
  <defs>
    <style>
      .cls-1 {
        fill: #72b62b;
        stroke-width: 0px;
      }
    </style>
  </defs>
  <g id="Ebene_1-2" data-name="Ebene 1">
    <g>
      <path class="cls-1" d="m184.2,113.39H4.2c-1.11,0-2.18-.43-2.96-1.23-.8-.79-1.23-1.85-1.23-2.96V4.2C0,1.87,1.88,0,4.2,0h180c1.11,0,2.18.43,2.96,1.23.8.79,1.23,1.85,1.23,2.96v105c0,1.11-.43,2.18-1.23,2.96-.79.8-1.85,1.23-2.96,1.23h0ZM8.39,105h171.61V8.39H8.39v96.61Z"/>
      <path class="cls-1" d="m139.2,143.39c-.66.01-1.31-.14-1.89-.45-29.02-14.48-57.21-14.48-86.21,0h-.01c-2.06,1-4.54.15-5.57-1.9-1.03-2.04-.23-4.54,1.79-5.6,29.32-15.56,64.45-15.56,93.77,0,1.73.88,2.65,2.82,2.2,4.72-.46,1.89-2.14,3.22-4.09,3.22h0Z"/>
      <path class="cls-1" d="m94.2,132.14c-2.32,0-4.2-1.88-4.2-4.2v-18.75c0-2.32,1.88-4.2,4.2-4.2s4.2,1.88,4.2,4.2v18.75c0,1.11-.43,2.18-1.23,2.96-.79.8-1.85,1.23-2.96,1.23h0Z"/>
    </g>
  </g>
</svg>