<?xml version="1.0" encoding="UTF-8"?>
<svg id="Ebene_2" data-name="Ebene 2" xmlns="http://www.w3.org/2000/svg" viewBox="0 0 270 249">
  <defs>
    <style>
      .cls-1 {
        fill: #72b62b;
        stroke-width: 0px;
      }
    </style>
  </defs>
  <g id="Ebene_1-2" data-name="Ebene 1">
    <path class="cls-1" d="m215.4,91.5c.3-3.3.6-6.9.6-10.5C216,36.31,179.69,0,135,0S54,36.31,54,81c0,3.6.3,6.9.6,10.5C22.8,102.3,0,132.6,0,168c0,44.69,36.31,81,81,81,20.7,0,39.6-7.8,54-20.7,14.4,12.9,33.31,20.7,54,20.7,44.69,0,81-36.31,81-81,0-35.4-22.8-65.69-54.6-76.5h0Zm-149.4-10.5c0-38.1,30.9-69,69-69s69,30.9,69,69c0,2.4,0,4.8-.3,7.2-4.8-.9-9.6-1.2-14.7-1.2-20.7,0-39.6,7.8-54,20.7-14.4-12.9-33.31-20.7-54-20.7-5.1,0-9.9.6-14.7,1.2-.3-2.39-.3-4.79-.3-7.2h0Zm84,87c0,16.2-5.7,31.19-15,42.9-9.3-11.7-15-26.7-15-42.9,0-2.4,0-4.8.3-7.2,4.8.9,9.6,1.2,14.7,1.2s9.9-.6,14.7-1.2c.3,2.39.3,4.79.3,7.2h0Zm-15-18c-4.2,0-8.4-.3-12.3-1.2,2.4-8.7,6.6-16.8,12.3-23.7,5.4,6.9,9.9,15,12.3,23.7-3.9.89-8.11,1.2-12.3,1.2Zm-24-4.2c-20.4-7.5-36.31-24.6-42.31-45.6,3.9-.6,8.1-1.2,12.3-1.2,17.4,0,33.6,6.6,45.6,17.4-6.9,8.39-12.29,18.28-15.6,29.39h0Zm32.4-29.4c12.3-10.8,28.2-17.4,45.6-17.4,4.2,0,8.4.3,12.3,1.2-6,21-21.9,38.1-42.31,45.6-3.3-11.1-8.7-20.99-15.6-29.39h0ZM12,168c0-29.7,18.9-54.9,45-64.81,7.2,25.5,26.7,45.9,51.6,54.31-.3,3.3-.6,6.9-.6,10.5,0,19.5,6.9,37.5,18.6,51.6-12.3,10.8-28.2,17.4-45.6,17.4-38.1,0-69-30.9-69-69h0Zm177,69c-17.4,0-33.6-6.6-45.6-17.4,11.7-14.1,18.6-32.1,18.6-51.6,0-3.6-.3-6.9-.6-10.5,24.9-8.7,44.4-28.8,51.6-54.31,26.4,9.6,45,35.1,45,64.81,0,38.1-30.9,69-69,69h0Z"/>
  </g>
</svg>