<?xml version="1.0" encoding="UTF-8"?>
<svg id="Ebene_2" data-name="Ebene 2" xmlns="http://www.w3.org/2000/svg" viewBox="0 0 100.07 100.07">
  <defs>
    <style>
      .cls-1 {
        fill: #72b62b;
        fill-rule: evenodd;
        stroke-width: 0px;
      }
    </style>
  </defs>
  <g id="Ebene_1-2" data-name="Ebene 1">
    <path class="cls-1" d="m1.72,0C.77,0,0,.77,0,1.72v96.64c0,.2.05.4.12.58.01.05.03.09.05.13.17.37.47.66.84.83.04.02.08.03.12.05.19.07.39.12.59.12h96.62c.95,0,1.73-.76,1.73-1.72V1.72c0-.95-.78-1.72-1.73-1.72H1.72Zm1.73,3.45h93.17v93.17h-49.97v-41.48c0-.46-.18-.9-.5-1.23-.33-.33-.77-.51-1.23-.5H3.45V3.45Zm58.55,11.6h0c-.46,0-.9.18-1.23.5-.32.32-.51.76-.51,1.22s.18.9.5,1.23c.33.33.77.51,1.23.51h17.12l-25.29,25.29c-.33.32-.51.76-.51,1.22s.18.9.51,1.23c.32.32.76.51,1.22.51s.9-.19,1.23-.51l25.29-25.31v18.42h0c0,.45.19.89.51,1.22.32.32.76.5,1.22.5.95,0,1.72-.77,1.72-1.72v-22.58s0-.02,0-.03c0-.1-.01-.2-.03-.3-.02-.11-.06-.22-.1-.32-.09-.21-.21-.4-.37-.56t0,0s-.09-.07-.14-.11c-.04-.03-.09-.07-.13-.1-.06-.03-.12-.07-.18-.1-.05-.02-.09-.04-.14-.06-.07-.03-.15-.05-.23-.07-.03,0-.06-.02-.1-.02-.08-.02-.16-.03-.24-.03-.02,0-.04,0-.06,0h-21.3ZM3.45,56.87h39.75v39.75H3.45v-39.75Z"/>
  </g>
</svg>