<?xml version="1.0" encoding="UTF-8"?>
<svg id="Ebene_2" data-name="Ebene 2" xmlns="http://www.w3.org/2000/svg" viewBox="0 0 103.46 103.46">
  <defs>
    <style>
      .cls-1 {
        fill: #72b62b;
        stroke-width: 0px;
      }
    </style>
  </defs>
  <g id="Ebene_1-2" data-name="Ebene 1">
    <g>
      <path class="cls-1" d="m51.73,92.42c-1.08,0-1.96-.88-1.96-1.96V13c0-1.08.88-1.96,1.96-1.96,10.87,0,21.09,4.23,28.78,11.92,7.69,7.69,11.92,17.9,11.92,28.78s-4.23,21.09-11.92,28.78c-7.69,7.68-17.9,11.92-28.78,11.92h0Zm1.96-77.41v73.43c19.36-1.02,34.8-17.1,34.8-36.71s-15.44-35.69-34.8-36.71h0Z"/>
      <path class="cls-1" d="m51.73,103.46c-6.99,0-13.76-1.37-20.14-4.06-6.16-2.6-11.69-6.34-16.44-11.09-4.75-4.75-8.48-10.28-11.09-16.44-2.7-6.38-4.07-13.15-4.07-20.14s1.37-13.76,4.06-20.14c2.6-6.16,6.34-11.69,11.09-16.44,4.75-4.75,10.28-8.48,16.44-11.09C37.97,1.37,44.75,0,51.73,0s13.76,1.37,20.14,4.06c6.16,2.6,11.69,6.34,16.44,11.09,4.75,4.75,8.48,10.28,11.09,16.44,2.7,6.38,4.06,13.15,4.06,20.14s-1.37,13.76-4.06,20.14c-2.6,6.16-6.34,11.69-11.09,16.44-4.75,4.75-10.28,8.48-16.44,11.09-6.37,2.7-13.14,4.07-20.13,4.07h0Zm0-99.54C25.37,3.92,3.93,25.37,3.93,51.73s21.45,47.81,47.81,47.81,47.81-21.44,47.81-47.81S78.1,3.92,51.73,3.92h0Z"/>
    </g>
  </g>
</svg>