<?xml version="1.0" encoding="UTF-8"?>
<svg id="Ebene_2" data-name="Ebene 2" xmlns="http://www.w3.org/2000/svg" viewBox="0 0 78.48 62.19">
  <defs>
    <style>
      .cls-1 {
        fill: #72b62b;
        stroke-width: 0px;
      }
    </style>
  </defs>
  <g id="Ebene_1-2" data-name="Ebene 1">
    <path class="cls-1" d="m62.13,58.51c3.5,0,6.66-1.42,8.96-3.71,2.27-2.27,3.68-5.39,3.71-8.84l-.84-4.66c-.64-1.67-1.63-3.17-2.87-4.41-2.29-2.29-5.46-3.71-8.96-3.71s-6.66,1.42-8.96,3.71-3.71,5.46-3.71,8.96,1.42,6.66,3.71,8.96c2.29,2.29,5.46,3.71,8.96,3.71h0ZM.99,40.24L7.41,4.56c.27-1.5,1.12-2.74,2.27-3.55C10.84.2,12.3-.18,13.79.08l.33.06c1.47.25,2.71,1.06,3.53,2.18.82,1.11,1.22,2.53,1.02,4l-2.42,18.07c-.13,1-1.05,1.71-2.06,1.58-1-.13-1.71-1.05-1.58-2.06l2.42-18.07c.07-.5-.07-.98-.35-1.36-.28-.38-.69-.65-1.19-.73l-.33-.06c-.51-.09-1.01.04-1.39.31-.39.28-.68.69-.77,1.2l-5.04,28.01c2.82-2.32,6.44-3.71,10.37-3.71,4.51,0,8.6,1.83,11.56,4.79,1.9,1.9,3.34,4.27,4.12,6.92,2.18-1.62,4.7-2.43,7.21-2.43s5.03.81,7.21,2.43c.78-2.65,2.22-5.02,4.12-6.92,2.96-2.96,7.04-4.79,11.56-4.79,3.94,0,7.55,1.39,10.37,3.71l-5.04-28.01c-.09-.5-.38-.93-.77-1.2-.39-.27-.89-.4-1.39-.31l-.33.06c-.49.08-.91.36-1.19.73-.28.38-.42.86-.35,1.36l2.42,18.07c.13,1-.58,1.92-1.58,2.06-1,.13-1.92-.58-2.06-1.58l-2.42-18.07c-.2-1.47.21-2.89,1.02-4,.82-1.12,2.06-1.93,3.53-2.18l.33-.06c1.49-.26,2.95.12,4.11.93,1.15.81,2.01,2.06,2.27,3.55l6.42,35.68c.64,1.75.99,3.63.99,5.6,0,4.51-1.83,8.6-4.79,11.56-2.96,2.96-7.04,4.79-11.56,4.79s-8.6-1.83-11.56-4.79c-2.96-2.96-4.79-7.04-4.79-11.56,0-.09,0-.19,0-.28-.43-.49-.89-.93-1.38-1.3-1.56-1.2-3.36-1.81-5.17-1.81s-3.61.6-5.17,1.81c-.48.38-.95.81-1.38,1.3,0,.09,0,.19,0,.28,0,4.51-1.83,8.6-4.79,11.56-2.96,2.96-7.04,4.79-11.56,4.79s-8.6-1.83-11.56-4.79c-2.96-2.96-4.79-7.04-4.79-11.56,0-1.97.35-3.85.99-5.6h0Zm3.53,1.06l-.84,4.66c.03,3.45,1.45,6.57,3.71,8.84,2.29,2.29,5.46,3.71,8.96,3.71s6.66-1.42,8.96-3.71c2.29-2.29,3.71-5.46,3.71-8.96s-1.42-6.66-3.71-8.96-5.46-3.71-8.96-3.71-6.66,1.42-8.96,3.71c-1.24,1.24-2.23,2.74-2.87,4.41h0Z"/>
  </g>
</svg>