<?xml version="1.0" encoding="UTF-8"?>
<svg id="Ebene_2" data-name="Ebene 2" xmlns="http://www.w3.org/2000/svg" viewBox="0 0 118.37 103.01">
  <defs>
    <style>
      .cls-1 {
        fill: #72b62b;
        stroke-width: 0px;
      }
    </style>
  </defs>
  <g id="Ebene_1-2" data-name="Ebene 1">
    <path class="cls-1" d="m11.67,24.16c5.94,0,10.85-4.56,11.57-10.44h17.89c-5.46,3.14-10,7.67-13.15,13.13-3.16,5.45-4.82,11.65-4.81,17.95v33.8h-9.95v24.41h24.41v-24.41h-11.44v-33.8c0-6.56,1.96-12.98,5.64-18.42,3.68-5.43,8.91-9.64,15-12.07v10.1h24.41v-10.11c6.1,2.44,11.32,6.65,15,12.08,3.68,5.44,5.65,11.85,5.65,18.42v33.8h-11.44v24.41h24.41v-24.41h-9.95v-33.8c0-6.3-1.66-12.49-4.82-17.95-3.16-5.46-7.69-9.99-13.15-13.13h17.63c.76,5.72,5.79,10.16,11.85,10.16,6.59,0,11.96-5.23,11.96-11.67S113.01.54,106.41.54c-6.07,0-11.09,4.44-11.85,10.16h-23.32V0h-24.41v10.7h-23.59C22.52,4.82,17.6.25,11.67.25,5.24.25,0,5.61,0,12.2s5.23,11.95,11.67,11.95h0Zm22.94,75.83h-18.38v-18.38h18.38v18.38Zm67.23,0h-18.38v-18.38h18.38v18.38ZM106.41,3.55c4.93,0,8.94,3.88,8.94,8.65s-4.01,8.65-8.94,8.65-8.94-3.88-8.94-8.65,4.01-8.65,8.94-8.65Zm-56.56-.54h18.38v18.38h-18.38V3.02Zm-38.18.25c4.77,0,8.66,4.01,8.66,8.94s-3.88,8.94-8.66,8.94S3.02,17.14,3.02,12.2,6.9,3.27,11.67,3.27h0Z"/>
  </g>
</svg>