<?xml version="1.0" encoding="UTF-8"?>
<svg id="Ebene_2" data-name="Ebene 2" xmlns="http://www.w3.org/2000/svg" viewBox="0 0 169.48 185.53">
  <defs>
    <style>
      .cls-1 {
        fill: #72b62b;
        stroke-width: 0px;
      }
    </style>
  </defs>
  <g id="Ebene_1-2" data-name="Ebene 1">
    <g>
      <path class="cls-1" d="m52.21,103.03l4.93,18.05c.32,1.15.61,2.39.89,3.71s.53,2.8.77,4.43c.03-1.38.13-2.74.31-4.08s.44-2.69.78-4.06l4.32-18.05h7.02l-8.71,33.28h-6.84l-5.96-21.23c-.29-.97-.52-1.95-.68-2.93s-.28-2.01-.34-3.07c-.08,1.12-.19,2.18-.35,3.18s-.37,1.94-.63,2.82l-6,21.23h-6.84l-8.71-33.28h7.11l4.39,18.48c.24,1.06.44,2.21.59,3.44s.27,2.58.34,4.03c.29-1.92.82-4.36,1.59-7.32l.11-.48,4.89-18.16h7Z"/>
      <path class="cls-1" d="m94.51,126.76h-16.75c.26,1.61.84,2.81,1.75,3.6s2.14,1.19,3.71,1.19c1.18,0,2.2-.23,3.06-.68s1.57-1.14,2.15-2.07l5.23,2.61c-1.21,1.95-2.68,3.41-4.41,4.35s-3.78,1.42-6.16,1.42c-3.61,0-6.46-1.08-8.57-3.23s-3.16-5.05-3.16-8.68,1.1-6.38,3.31-8.64,5.03-3.39,8.47-3.39,6.35,1.06,8.41,3.17,3.09,5,3.09,8.65c0,.2,0,.41-.02.65s-.05.58-.09,1.03Zm-6.41-3.91c-.18-1.41-.69-2.47-1.53-3.19s-1.99-1.08-3.44-1.08-2.62.36-3.49,1.08-1.43,1.78-1.67,3.19h10.14Z"/>
      <path class="cls-1" d="m99.42,136.31v-35.23h6.21v12.71c0,.7-.03,1.39-.08,2.08s-.13,1.36-.22,2.01c1.06-1.61,2.21-2.78,3.45-3.51s2.67-1.1,4.27-1.1c3.18,0,5.66,1.05,7.44,3.15,1.78,2.1,2.67,5.03,2.67,8.79s-.9,6.53-2.7,8.72-4.17,3.28-7.11,3.28c-1.77,0-3.28-.33-4.51-.99s-2.29-1.69-3.17-3.1l.05,3.2h-6.3Zm5.91-11.18c0,2.02.5,3.58,1.49,4.71s2.38,1.68,4.15,1.68,3.16-.56,4.15-1.68,1.49-2.69,1.49-4.71-.5-3.6-1.51-4.76-2.4-1.74-4.17-1.74-3.07.58-4.08,1.75-1.51,2.75-1.51,4.75Z"/>
      <path class="cls-1" d="m128.68,136.31v-33.28h8.18c4.36,0,7.59.83,9.67,2.5s3.13,4.24,3.13,7.73c0,3.23-1.05,5.76-3.15,7.59s-5,2.75-8.72,2.75h-1.95v12.71h-7.16Zm7.16-18.25h1.02c1.94,0,3.35-.4,4.23-1.2s1.32-2.09,1.32-3.86c0-1.64-.44-2.83-1.32-3.58s-2.29-1.13-4.23-1.13h-1.02v9.77Z"/>
    </g>
    <path class="cls-1" d="m18.04,83.44c0,1.54,1.24,2.77,2.77,2.77s2.77-1.24,2.77-2.77V5.54h96.97l25.32,25.32v52.58c0,1.54,1.24,2.77,2.77,2.77s2.77-1.24,2.77-2.77V29.72c0-.7-.27-1.42-.81-1.96L123.67.83c-.5-.5-1.2-.82-1.97-.82H20.81c-1.54,0-2.77,1.24-2.77,2.77v80.67h0Zm133.37,73.54c0-1.54-1.24-2.77-2.77-2.77s-2.77,1.24-2.77,2.77v23.03H23.59v-23.03c0-1.54-1.24-2.77-2.77-2.77s-2.77,1.24-2.77,2.77v25.79c0,1.54,1.24,2.77,2.77,2.77h127.84c1.54,0,2.77-1.24,2.77-2.77v-25.79h0Z"/>
    <path class="cls-1" d="m124.47,2.77c0-1.54-1.24-2.77-2.77-2.77s-2.77,1.24-2.77,2.77v13.48c0,4.46,1.83,8.53,4.77,11.47,2.94,2.94,7.01,4.77,11.47,4.77h13.48c1.54,0,2.77-1.24,2.77-2.77s-1.24-2.77-2.77-2.77h-13.48c-2.94,0-5.61-1.21-7.56-3.14-1.95-1.95-3.14-4.62-3.14-7.56V2.78h-.01Z"/>
    <path class="cls-1" d="m5.53,154.2h158.42v-67.99H5.53v67.99Zm161.18,5.54H2.77c-1.54,0-2.77-1.24-2.77-2.77v-73.54c0-1.54,1.24-2.77,2.77-2.77h163.94c1.54,0,2.77,1.24,2.77,2.77v73.54c0,1.54-1.24,2.77-2.77,2.77Z"/>
    <path class="cls-1" d="m42.73,31.73c-1.54,0-2.77,1.24-2.77,2.77s1.24,2.77,2.77,2.77h59.66c1.54,0,2.77-1.24,2.77-2.77s-1.24-2.77-2.77-2.77h-59.66Z"/>
    <path class="cls-1" d="m42.73,47.02c-1.54,0-2.77,1.24-2.77,2.77s1.24,2.77,2.77,2.77h84.01c1.54,0,2.77-1.24,2.77-2.77s-1.24-2.77-2.77-2.77H42.73Z"/>
    <path class="cls-1" d="m42.73,62.29c-1.54,0-2.77,1.24-2.77,2.77s1.24,2.77,2.77,2.77h84.01c1.54,0,2.77-1.24,2.77-2.77s-1.24-2.77-2.77-2.77H42.73Z"/>
  </g>
</svg>