<?xml version="1.0" encoding="UTF-8"?>
<svg id="Ebene_2" data-name="Ebene 2" xmlns="http://www.w3.org/2000/svg" viewBox="0 0 169.48 185.53">
  <defs>
    <style>
      .cls-1 {
        fill: #72b62b;
        stroke-width: 0px;
      }
    </style>
  </defs>
  <g id="Ebene_1-2" data-name="Ebene 1">
    <path class="cls-1" d="m18.04,83.44c0,1.54,1.24,2.77,2.77,2.77s2.77-1.24,2.77-2.77V5.54h96.97l25.32,25.32v52.58c0,1.54,1.24,2.77,2.77,2.77s2.77-1.24,2.77-2.77V29.72c0-.7-.27-1.42-.81-1.96L123.67.83c-.5-.5-1.2-.82-1.97-.82H20.81c-1.54,0-2.77,1.24-2.77,2.77v80.67h0Zm133.37,73.54c0-1.54-1.24-2.77-2.77-2.77s-2.77,1.24-2.77,2.77v23.03H23.59v-23.03c0-1.54-1.24-2.77-2.77-2.77s-2.77,1.24-2.77,2.77v25.79c0,1.54,1.24,2.77,2.77,2.77h127.84c1.54,0,2.77-1.24,2.77-2.77v-25.79h0Z"/>
    <path class="cls-1" d="m124.47,2.77c0-1.54-1.24-2.77-2.77-2.77s-2.77,1.24-2.77,2.77v13.48c0,4.46,1.83,8.53,4.77,11.47,2.94,2.94,7.01,4.77,11.47,4.77h13.48c1.54,0,2.77-1.24,2.77-2.77s-1.24-2.77-2.77-2.77h-13.48c-2.94,0-5.61-1.21-7.56-3.14-1.95-1.95-3.14-4.62-3.14-7.56V2.78h-.01Z"/>
    <path class="cls-1" d="m5.53,154.2h158.42v-67.99H5.53v67.99Zm161.18,5.54H2.77c-1.54,0-2.77-1.24-2.77-2.77v-73.54c0-1.54,1.24-2.77,2.77-2.77h163.94c1.54,0,2.77,1.24,2.77,2.77v73.54c0,1.54-1.24,2.77-2.77,2.77Z"/>
    <path class="cls-1" d="m42.73,31.73c-1.54,0-2.77,1.24-2.77,2.77s1.24,2.77,2.77,2.77h59.66c1.54,0,2.77-1.24,2.77-2.77s-1.24-2.77-2.77-2.77h-59.66Z"/>
    <path class="cls-1" d="m42.73,47.02c-1.54,0-2.77,1.24-2.77,2.77s1.24,2.77,2.77,2.77h84.01c1.54,0,2.77-1.24,2.77-2.77s-1.24-2.77-2.77-2.77H42.73Z"/>
    <path class="cls-1" d="m42.73,62.29c-1.54,0-2.77,1.24-2.77,2.77s1.24,2.77,2.77,2.77h84.01c1.54,0,2.77-1.24,2.77-2.77s-1.24-2.77-2.77-2.77H42.73Z"/>
    <g>
      <path class="cls-1" d="m37.68,136.04l4.82-31.63c.08-.51.51-.88,1.02-.88h5.91c.45,0,.85.29.98.71l6.26,19.13c.14.41.29,1.02.45,1.82s.31,1.71.45,2.74c.12-1.04.26-1.98.41-2.8s.3-1.42.44-1.81l6.37-19.09c.14-.42.54-.71.98-.71h5.8c.51,0,.95.37,1.02.88l4.84,31.63c.1.63-.39,1.19-1.02,1.19h-4.71c-.52,0-.97-.39-1.03-.91l-2.35-19.42c-.18-1.5-.31-2.64-.37-3.41s-.09-1.48-.09-2.14c0-.35,0-.62.01-.79s.02-.33.03-.47c-.23,1.32-.45,2.46-.66,3.42s-.4,1.68-.56,2.18l-6.9,20.84c-.14.42-.54.71-.98.71h-2.55c-.45,0-.85-.29-.98-.71l-6.79-20.83c-.06-.2-.2-.75-.4-1.66s-.49-2.23-.86-3.96v.99c0,1.57-.14,3.48-.41,5.76l-.02.09-2.33,19.42c-.06.52-.5.91-1.03.91h-4.71c-.63,0-1.12-.56-1.02-1.19Z"/>
      <path class="cls-1" d="m82.3,136.19v-31.63c0-.57.46-1.04,1.04-1.04h7.25c4.42,0,7.69.84,9.8,2.53s3.17,4.3,3.17,7.83c0,3.27-1.06,5.83-3.19,7.69s-5.07,2.79-8.83,2.79h-.94c-.57,0-1.04.46-1.04,1.04v10.8c0,.57-.46,1.04-1.04,1.04h-5.18c-.57,0-1.04-.46-1.04-1.04Zm7.25-18.49c0,.57.46,1.04,1.04,1.04h0c1.96,0,3.39-.41,4.28-1.22s1.34-2.12,1.34-3.91c0-1.66-.45-2.87-1.34-3.63s-2.32-1.14-4.28-1.14h0c-.57,0-1.04.46-1.04,1.04v7.83Z"/>
      <path class="cls-1" d="m122.06,136.19v-4.4c0-.57-.46-1.04-1.04-1.04h-14.16c-.57,0-1.04-.46-1.04-1.04v-1.76c0-.2.06-.4.17-.57l15.75-23.75c.19-.29.52-.46.86-.46h4.58c.57,0,1.04.46,1.04,1.04v20.72c0,.57.46,1.04,1.04,1.04h1.47c.57,0,1.04.46,1.04,1.04v2.72c0,.57-.46,1.04-1.04,1.04h-1.47c-.57,0-1.04.46-1.04,1.04v4.4c0,.57-.46,1.04-1.04,1.04h-4.1c-.57,0-1.04-.46-1.04-1.04Zm-.94-10.22c.57,0,1.04-.46,1.04-1.04v-10.57c0-1.14.02-2,.06-2.58s.1-1.12.17-1.61c-.29.78-.64,1.57-1.04,2.35s-.84,1.55-1.31,2.3l-6.23,9.54c-.45.69.04,1.6.87,1.6h6.44Z"/>
    </g>
  </g>
</svg>