<?xml version="1.0" encoding="UTF-8"?>
<svg id="Ebene_2" data-name="Ebene 2" xmlns="http://www.w3.org/2000/svg" viewBox="0 0 274.99 216.66">
  <defs>
    <style>
      .cls-1 {
        fill: #72b62b;
        stroke-width: 0px;
      }
    </style>
  </defs>
  <g id="Ebene_1-2" data-name="Ebene 1">
    <path class="cls-1" d="m254.17,41.66h-20.84v-20.84c-.01-11.5-9.34-20.81-20.84-20.82H20.82C9.33.01.01,9.33,0,20.82v133.34c.01,11.5,9.33,20.82,20.82,20.84h20.84v20.84c.01,11.5,9.34,20.81,20.84,20.82h191.67c11.5-.01,20.81-9.33,20.82-20.82V62.5c-.01-11.5-9.33-20.82-20.82-20.84h0ZM20.83,166.66c-6.89-.01-12.49-5.6-12.49-12.5V20.83c0-6.9,5.6-12.49,12.49-12.49h191.67c6.9,0,12.49,5.59,12.5,12.49v133.33c-.01,6.9-5.6,12.49-12.5,12.5H20.83Zm245.83,29.17c0,6.9-5.6,12.49-12.49,12.49H62.5c-6.9,0-12.49-5.59-12.5-12.49v-20.84h162.5c11.5-.01,20.82-9.34,20.84-20.84V49.99h20.84c6.89.01,12.49,5.6,12.49,12.5v133.34Z"/>
    <path class="cls-1" d="m92.65,112.5c2.74-.01,5.44-.64,7.9-1.86l48.02-24.02c5.98-2.99,9.76-9.09,9.76-15.79s-3.79-12.8-9.76-15.79l-48.02-24.02c-5.47-2.73-11.98-2.44-17.18.77-5.2,3.22-8.37,8.91-8.37,15.02v48.02c.01,9.75,7.9,17.65,17.65,17.66h0Zm-9.32-65.69c0-3.23,1.66-6.23,4.42-7.93,2.74-1.7,6.18-1.85,9.06-.4l48.04,24.01c3.15,1.58,5.16,4.8,5.16,8.33s-2,6.75-5.16,8.33l-48.04,24.01c-2.88,1.45-6.32,1.3-9.06-.4-2.75-1.7-4.42-4.7-4.42-7.93v-48.02Z"/>
    <path class="cls-1" d="m216.67,141.66c0-1.1-.45-2.16-1.23-2.94-.77-.79-1.84-1.22-2.94-1.22H58.32c-2.3,0-4.16,1.86-4.16,4.16s1.86,4.17,4.16,4.17h154.17c1.1,0,2.17-.43,2.94-1.22.79-.79,1.23-1.84,1.23-2.95h0Z"/>
    <path class="cls-1" d="m45.83,129.16c-1.11,0-2.17.43-2.95,1.22-.77.79-1.22,1.84-1.22,2.94v4.17h-20.84c-2.3,0-4.16,1.86-4.16,4.16s1.86,4.17,4.16,4.17h20.84v4.17c0,2.3,1.86,4.16,4.17,4.16s4.16-1.86,4.16-4.16v-16.68c0-1.1-.43-2.16-1.22-2.94-.77-.79-1.84-1.22-2.94-1.22h0Z"/>
  </g>
</svg>