<?xml version="1.0" encoding="UTF-8"?>
<svg id="Ebene_2" data-name="Ebene 2" xmlns="http://www.w3.org/2000/svg" viewBox="0 0 169.48 185.53">
  <defs>
    <style>
      .cls-1 {
        fill: #72b62b;
        stroke-width: 0px;
      }
    </style>
  </defs>
  <g id="Ebene_1-2" data-name="Ebene 1">
    <path class="cls-1" d="m18.04,83.44c0,1.54,1.24,2.77,2.77,2.77s2.77-1.24,2.77-2.77V5.54h96.97l25.32,25.32v52.58c0,1.54,1.24,2.77,2.77,2.77s2.77-1.24,2.77-2.77V29.72c0-.7-.27-1.42-.81-1.96L123.67.83c-.5-.5-1.2-.82-1.97-.82H20.81c-1.54,0-2.77,1.24-2.77,2.77v80.67h0Zm133.37,73.54c0-1.54-1.24-2.77-2.77-2.77s-2.77,1.24-2.77,2.77v23.03H23.59v-23.03c0-1.54-1.24-2.77-2.77-2.77s-2.77,1.24-2.77,2.77v25.79c0,1.54,1.24,2.77,2.77,2.77h127.84c1.54,0,2.77-1.24,2.77-2.77v-25.79h0Z"/>
    <path class="cls-1" d="m124.47,2.77c0-1.54-1.24-2.77-2.77-2.77s-2.77,1.24-2.77,2.77v13.48c0,4.46,1.83,8.53,4.77,11.47,2.94,2.94,7.01,4.77,11.47,4.77h13.48c1.54,0,2.77-1.24,2.77-2.77s-1.24-2.77-2.77-2.77h-13.48c-2.94,0-5.61-1.21-7.56-3.14-1.95-1.95-3.14-4.62-3.14-7.56V2.78h-.01Z"/>
    <path class="cls-1" d="m5.53,154.2h158.42v-67.99H5.53v67.99Zm161.18,5.54H2.77c-1.54,0-2.77-1.24-2.77-2.77v-73.54c0-1.54,1.24-2.77,2.77-2.77h163.94c1.54,0,2.77,1.24,2.77,2.77v73.54c0,1.54-1.24,2.77-2.77,2.77Z"/>
    <path class="cls-1" d="m42.73,31.73c-1.54,0-2.77,1.24-2.77,2.77s1.24,2.77,2.77,2.77h59.66c1.54,0,2.77-1.24,2.77-2.77s-1.24-2.77-2.77-2.77h-59.66Z"/>
    <path class="cls-1" d="m42.73,47.02c-1.54,0-2.77,1.24-2.77,2.77s1.24,2.77,2.77,2.77h84.01c1.54,0,2.77-1.24,2.77-2.77s-1.24-2.77-2.77-2.77H42.73Z"/>
    <path class="cls-1" d="m42.73,62.29c-1.54,0-2.77,1.24-2.77,2.77s1.24,2.77,2.77,2.77h84.01c1.54,0,2.77-1.24,2.77-2.77s-1.24-2.77-2.77-2.77H42.73Z"/>
    <g>
      <path class="cls-1" d="m41.11,104.09l4.94,18.06c.32,1.15.61,2.39.89,3.71s.53,2.8.77,4.44c.03-1.38.13-2.74.31-4.08s.44-2.7.78-4.06l4.32-18.06h7.03l-8.71,33.3h-6.85l-5.96-21.24c-.29-.97-.52-1.95-.68-2.93s-.28-2.01-.34-3.07c-.08,1.12-.19,2.18-.35,3.18s-.37,1.94-.63,2.82l-6,21.24h-6.85l-8.71-33.3h7.12l4.39,18.49c.24,1.06.44,2.21.59,3.45s.27,2.58.34,4.04c.29-1.93.82-4.37,1.59-7.32l.11-.48,4.89-18.17h7.01Z"/>
      <path class="cls-1" d="m83.44,127.84h-16.76c.26,1.61.84,2.81,1.75,3.61s2.15,1.19,3.71,1.19c1.18,0,2.2-.23,3.06-.68s1.57-1.14,2.15-2.07l5.23,2.62c-1.21,1.96-2.68,3.41-4.41,4.36s-3.78,1.42-6.16,1.42c-3.61,0-6.47-1.08-8.58-3.23s-3.16-5.05-3.16-8.69,1.1-6.38,3.31-8.64,5.03-3.39,8.47-3.39,6.35,1.06,8.42,3.17,3.09,5,3.09,8.65c0,.2,0,.41-.02.65s-.05.58-.09,1.03Zm-6.41-3.91c-.18-1.41-.69-2.48-1.54-3.2s-1.99-1.08-3.45-1.08-2.62.36-3.49,1.08-1.43,1.79-1.67,3.2h10.14Z"/>
      <path class="cls-1" d="m88.35,137.39v-35.26h6.21v12.72c0,.7-.03,1.39-.08,2.08s-.13,1.36-.22,2.01c1.06-1.61,2.21-2.78,3.46-3.51s2.67-1.1,4.28-1.1c3.18,0,5.67,1.05,7.45,3.15s2.67,5.03,2.67,8.79-.9,6.53-2.71,8.72-4.18,3.29-7.12,3.29c-1.77,0-3.28-.33-4.52-.99s-2.29-1.69-3.17-3.1l.05,3.21h-6.3Zm5.91-11.19c0,2.02.5,3.59,1.49,4.71s2.38,1.68,4.15,1.68,3.16-.56,4.15-1.68,1.49-2.69,1.49-4.71-.5-3.61-1.51-4.77-2.4-1.74-4.17-1.74-3.07.58-4.08,1.75-1.51,2.75-1.51,4.75Z"/>
      <path class="cls-1" d="m114.74,137.39l5.07-33.3h7.46l6.41,19.61c.14.41.28,1.01.44,1.8s.31,1.69.44,2.71c.12-1.03.26-1.95.41-2.76s.3-1.41.43-1.79l6.53-19.56h7.35l5.1,33.3h-6.76l-2.43-20.08c-.18-1.49-.3-2.61-.36-3.37s-.09-1.46-.09-2.12c0-.35,0-.61.01-.78s.02-.33.03-.47c-.23,1.3-.44,2.43-.65,3.38s-.39,1.66-.56,2.15l-7.05,21.29h-4l-6.94-21.29c-.06-.2-.19-.74-.4-1.64s-.49-2.2-.85-3.91v.98c0,1.55-.14,3.44-.41,5.69l-.02.09-2.41,20.08h-6.76Z"/>
    </g>
  </g>
</svg>