<?xml version="1.0" encoding="UTF-8"?>
<svg id="Ebene_2" data-name="Ebene 2" xmlns="http://www.w3.org/2000/svg" viewBox="0 0 86.91 91.74">
  <defs>
    <style>
      .cls-1 {
        fill: #72b62b;
        fill-rule: evenodd;
        stroke-width: 0px;
      }
    </style>
  </defs>
  <g id="Ebene_1-2" data-name="Ebene 1">
    <path class="cls-1" d="m24.07,2.99c.05-.19.07-.38.07-.57C24.14,1.08,23.06,0,21.73,0,20.56,0,19.58.83,19.36,1.94L.07,88.75c-.05.19-.07.38-.07.57,0,1.34,1.08,2.41,2.41,2.41,1.17,0,2.15-.83,2.37-1.94L24.07,2.99Zm11.67,1.84l-18.24,82.09h51.92L51.18,4.83h-15.44Zm-4.38-2.56C31.65.94,32.83,0,34.19,0h18.54C54.09,0,55.26.94,55.56,2.27l19.1,85.95c.4,1.81-.98,3.53-2.83,3.53H15.09c-1.85,0-3.23-1.72-2.83-3.53L31.36,2.27Zm12.1,21.87c-1.34,0-2.41-1.08-2.41-2.41v-9.66c0-1.33,1.08-2.41,2.41-2.41s2.41,1.08,2.41,2.41v9.66c0,1.33-1.08,2.41-2.41,2.41Zm-2.41,16.9c0,1.34,1.08,2.42,2.41,2.42s2.41-1.08,2.41-2.42v-9.66c0-1.34-1.08-2.41-2.41-2.41s-2.41,1.08-2.41,2.41v9.66Zm2.41,21.73c-1.34,0-2.41-1.08-2.41-2.41v-9.66c0-1.34,1.08-2.42,2.41-2.42s2.41,1.08,2.41,2.42v9.66c0,1.34-1.08,2.41-2.41,2.41Zm-2.41,16.9c0,1.33,1.08,2.41,2.41,2.41s2.41-1.08,2.41-2.41v-9.66c0-1.33-1.08-2.41-2.41-2.41s-2.41,1.08-2.41,2.41v9.66ZM62.77,2.41c0,.2.02.39.07.57l19.29,86.81c.22,1.11,1.2,1.94,2.37,1.94,1.33,0,2.41-1.08,2.41-2.41,0-.2-.02-.39-.07-.57L67.55,1.94c-.22-1.11-1.2-1.94-2.37-1.94-1.34,0-2.41,1.08-2.41,2.41h0Z"/>
  </g>
</svg>