<?xml version="1.0" encoding="UTF-8"?>
<svg id="Ebene_2" data-name="Ebene 2" xmlns="http://www.w3.org/2000/svg" viewBox="0 0 77.71 69.96">
  <defs>
    <style>
      .cls-1 {
        fill: none;
      }

      .cls-1, .cls-2 {
        stroke-width: 0px;
      }

      .cls-2 {
        fill: #72b62b;
      }
    </style>
  </defs>
  <g id="Ebene_1-2" data-name="Ebene 1">
    <g>
      <path class="cls-1" d="m54.4,36.28h-31.09c-1.43,0-2.59,1.16-2.59,2.59h36.27c0-1.43-1.16-2.59-2.59-2.59Z"/>
      <path class="cls-1" d="m20.72,62.19c0,1.43,1.16,2.59,2.59,2.59h2.59v-10.36c0-1.43,1.16-2.59,2.59-2.59s2.59,1.16,2.59,2.59v10.36h5.18v-5.18c0-1.43,1.16-2.59,2.59-2.59s2.59,1.16,2.59,2.59v5.18h5.18v-12.95c0-1.43,1.16-2.59,2.59-2.59s2.59,1.16,2.59,2.59v12.95h2.59c1.43,0,2.59-1.16,2.59-2.59v-18.13H20.72v18.13Z"/>
      <path class="cls-1" d="m41.45,7.79c0-1.43-1.16-2.59-2.59-2.59s-2.59,1.16-2.59,2.59v23.32h5.18V7.79Z"/>
      <path class="cls-2" d="m54.4,31.1h-7.77V7.79C46.63,3.49,43.15.02,38.86.02s-7.77,3.48-7.77,7.77v23.32h-7.77c-4.29,0-7.77,3.48-7.77,7.77v23.32c0,4.29,3.48,7.77,7.77,7.77h31.09c4.29,0,7.77-3.48,7.77-7.77v-23.32c0-4.29-3.48-7.77-7.77-7.77ZM36.27,7.79c0-1.43,1.16-2.59,2.59-2.59s2.59,1.16,2.59,2.59v23.32h-5.18V7.79Zm-12.95,28.5h31.09c1.43,0,2.59,1.16,2.59,2.59H20.72c0-1.43,1.16-2.59,2.59-2.59Zm33.68,25.91c0,1.43-1.16,2.59-2.59,2.59h-2.59v-12.95c0-1.43-1.16-2.59-2.59-2.59s-2.59,1.16-2.59,2.59v12.95h-5.18v-5.18c0-1.43-1.16-2.59-2.59-2.59s-2.59,1.16-2.59,2.59v5.18h-5.18v-10.36c0-1.43-1.16-2.59-2.59-2.59s-2.59,1.16-2.59,2.59v10.36h-2.59c-1.43,0-2.59-1.16-2.59-2.59v-18.13h36.27v18.13Z"/>
      <path class="cls-2" d="m15.54,25.92c1.43,0,2.59-1.16,2.59-2.59s-1.16-2.59-2.59-2.59h-2.59v-2.59c0-1.43-1.16-2.59-2.59-2.59s-2.59,1.16-2.59,2.59v2.59h-2.59c-1.43,0-2.59,1.16-2.59,2.59s1.16,2.59,2.59,2.59h2.59v2.59c0,1.43,1.16,2.59,2.59,2.59s2.59-1.16,2.59-2.59v-2.59h2.59Z"/>
      <path class="cls-2" d="m72.54,12.97h-2.59v-2.59c0-1.43-1.16-2.59-2.59-2.59s-2.59,1.16-2.59,2.59v2.59h-2.59c-1.43,0-2.59,1.16-2.59,2.59s1.16,2.59,2.59,2.59h2.59v2.59c0,1.43,1.16,2.59,2.59,2.59s2.59-1.16,2.59-2.59v-2.59h2.59c1.43,0,2.59-1.16,2.59-2.59s-1.16-2.59-2.59-2.59Z"/>
      <path class="cls-2" d="m56.99,25.92c1.43,0,2.58-1.17,2.58-2.6,0-.33-.07-.66-.19-.97-.12-.32-.31-.61-.54-.85-1.01-1.02-2.65-1.02-3.66-.02,0,0-.01,0-.02.02-.23.25-.41.54-.54.85-.54,1.32.09,2.84,1.41,3.38.31.13.64.19.97.19Z"/>
      <path class="cls-2" d="m77.51,1.62c-.12-.32-.31-.61-.54-.85-1.01-1.02-2.65-1.02-3.66-.02,0,0-.01,0-.02.02-.47.5-.74,1.15-.75,1.84,0,1.43,1.17,2.58,2.6,2.58.33,0,.66-.07.97-.19.31-.13.6-.32.85-.54.74-.74.95-1.86.54-2.82h0Z"/>
      <path class="cls-2" d="m18.89,17.4c.25.23.54.41.85.54.63.28,1.34.28,1.97,0,.31-.13.6-.32.85-.54.23-.25.41-.54.54-.85.28-.63.28-1.34,0-1.97-.13-.31-.32-.6-.54-.85l-.39-.31-.47-.23c-.15-.1-.32-.17-.49-.21-.85-.17-1.72.09-2.33.7-.24.25-.42.54-.54.85-.15.32-.22.68-.21,1.04,0,.34.06.67.18.98.15.31.34.6.57.85Z"/>
      <path class="cls-2" d="m3.58,12.76c.31-.13.6-.32.85-.54.48-.49.76-1.15.75-1.84,0-.69-.28-1.34-.75-1.84-.13-.12-.27-.22-.41-.31-.13-.1-.28-.18-.44-.23-.15-.1-.32-.17-.49-.21-.85-.17-1.72.09-2.33.7C.27,9,0,9.67,0,10.38c0,.69.27,1.35.75,1.84.25.23.54.41.85.54.31.13.65.2.98.21.34,0,.67-.07.98-.21Z"/>
      <path class="cls-2" d="m74.38,31.85c-1.01-1.02-2.65-1.02-3.66-.02,0,0-.01,0-.02.02-.24.24-.43.53-.54.85-.56,1.32.05,2.84,1.37,3.4s2.84-.05,3.4-1.37c.28-.65.28-1.38,0-2.03-.12-.32-.31-.61-.54-.85Z"/>
      <path class="cls-2" d="m4.2,36.49c-.32.12-.61.31-.85.54-.48.49-.76,1.15-.75,1.84,0,.34.07.67.21.98.13.31.32.6.54.85.25.23.54.41.85.54.63.28,1.34.28,1.97,0,.31-.13.6-.32.85-.54.23-.25.41-.54.54-.85.13-.31.2-.65.21-.98,0-.69-.28-1.34-.75-1.84-.74-.74-1.86-.95-2.82-.54Z"/>
    </g>
  </g>
</svg>