<?xml version="1.0" encoding="UTF-8"?>
<svg id="Ebene_2" data-name="Ebene 2" xmlns="http://www.w3.org/2000/svg" viewBox="0 0 77.89 78.22">
  <defs>
    <style>
      .cls-1 {
        fill: #72b62b;
        fill-rule: evenodd;
        stroke-width: 0px;
      }
    </style>
  </defs>
  <g id="Ebene_1-2" data-name="Ebene 1">
    <path class="cls-1" d="m26.27,48.22c.47,1.48,1.08,2.92,1.8,4.3,1.83,3.44,4.21,5.75,6.81,6.29v-12.32c-2.84.11-5.65.66-8.33,1.63l-.28.11h0Zm-1.79-10.98c.07,2.93.45,5.84,1.14,8.69l.12-.04c2.94-1.07,6.02-1.67,9.14-1.78v-6.87h-10.4Zm1.14-11.04c-.69,2.84-1.07,5.74-1.14,8.66h10.4v-6.84c-3.12-.11-6.21-.71-9.14-1.78l-.12-.04h0Zm9.26-12.87c-2.6.54-4.98,2.84-6.81,6.29-.72,1.38-1.32,2.82-1.8,4.3.09.04.19.07.28.11,2.67.97,5.48,1.52,8.33,1.63v-12.32h0Zm10.98,10.59c-.47-1.48-1.08-2.92-1.8-4.3-1.83-3.45-4.21-5.75-6.81-6.29v12.32c2.84-.11,5.65-.66,8.33-1.63.09-.03.19-.07.28-.11h0Zm1.79,10.95c-.07-2.92-.45-5.83-1.14-8.66l-.12.04c-2.94,1.07-6.02,1.67-9.14,1.78v6.84h10.4Zm-1.14,11.06c.69-2.85,1.07-5.76,1.14-8.69h-10.4v6.87c2.28.08,4.55.42,6.75,1.02.86.23,1.7.5,2.51.8h0Zm-2.45,6.58c.72-1.38,1.33-2.82,1.8-4.3-.81-.31-1.63-.58-2.47-.8-2-.54-4.06-.85-6.14-.93v12.32c2.6-.54,4.98-2.85,6.81-6.29Zm4.66-27.24c.8,3.14,1.23,6.36,1.3,9.59h8.87c-.24-4.72-1.95-9.24-4.87-12.95-1.62,1.33-3.4,2.46-5.3,3.36h0Zm-5.46-10.91c3.38,1.12,6.45,3.02,8.97,5.54.08.08.15.15.23.23-1.36,1.11-2.84,2.06-4.42,2.84-.5-1.54-1.13-3.03-1.89-4.46-.78-1.5-1.75-2.9-2.89-4.15h0Zm-19.17,8.61c-1.58-.77-3.06-1.72-4.42-2.84.08-.08.15-.16.23-.23,2.52-2.52,5.59-4.42,8.97-5.54-1.14,1.25-2.11,2.65-2.89,4.15-.75,1.43-1.38,2.92-1.89,4.46h0Zm-1.98,11.9c.07-3.24.51-6.46,1.3-9.59-1.9-.89-3.68-2.02-5.3-3.36-2.93,3.71-4.63,8.23-4.87,12.95h8.87Zm1.3,11.99c-.8-3.15-1.23-6.38-1.3-9.63h-8.88c.23,4.73,1.94,9.27,4.88,12.98,1.62-1.33,3.4-2.46,5.3-3.36h0Zm5.46,10.91c-3.38-1.12-6.45-3.02-8.97-5.54-.08-.08-.15-.16-.23-.23,1.36-1.11,2.84-2.06,4.42-2.84.5,1.54,1.13,3.03,1.89,4.46.78,1.5,1.75,2.9,2.89,4.15h0Zm43.5-11.76c-2.78-1.14-5.76-1.7-8.76-1.63-3-.06-5.98.49-8.76,1.63-1.94.88-3.14,2-3.14,3.14s1.2,2.26,3.14,3.14c2.78,1.14,5.76,1.7,8.76,1.63,3,.06,5.98-.49,8.76-1.63,1.94-.88,3.14-2,3.14-3.14s-1.2-2.25-3.14-3.14Zm-22.62,1.37c-.34-.18-.69-.35-1.04-.52.8-3.15,1.23-6.38,1.3-9.63h8.88c-.09,1.81-.39,3.59-.91,5.33-1.42.28-2.8.72-4.12,1.3-1.74.66-3.19,1.91-4.12,3.52Zm1.96,20.42v3.28c0,1.14,1.2,2.26,3.14,3.14,2.78,1.14,5.76,1.7,8.76,1.63,3,.06,5.98-.49,8.76-1.63,1.94-.88,3.14-2,3.14-3.14v-3.28c-.67.49-1.39.92-2.16,1.25-3.08,1.28-6.4,1.92-9.74,1.86-3.34.06-6.66-.57-9.74-1.86-.76-.34-1.48-.76-2.16-1.25Zm0-7.31c.67.5,1.39.92,2.16,1.26,3.08,1.28,6.4,1.92,9.74,1.86,3.34.06,6.66-.57,9.74-1.86.76-.34,1.49-.76,2.16-1.26v3.28c0,1.14-1.2,2.25-3.14,3.14-2.78,1.14-5.76,1.7-8.76,1.64-3,.06-5.98-.49-8.76-1.63-1.94-.88-3.14-2-3.14-3.14v-3.28h0Zm0-7.31c.67.49,1.4.92,2.16,1.26,3.08,1.28,6.4,1.92,9.74,1.86,3.34.06,6.66-.57,9.74-1.86.76-.34,1.48-.76,2.16-1.26v3.28c0,1.14-1.2,2.26-3.14,3.14-2.78,1.14-5.76,1.7-8.76,1.63-3,.06-5.98-.49-8.76-1.63-1.94-.88-3.14-2-3.14-3.14v-3.28h0Zm-2.37,1.5c-1.84,1.32-3.88,2.36-6.03,3.08l-.07.02c1.14-1.25,2.12-2.65,2.9-4.16.75-1.43,1.38-2.93,1.89-4.46.44.22.88.45,1.3.7v4.82h0Zm28.54-5.53v21.93c0,2.15-1.73,4.01-4.53,5.29-3.09,1.28-6.4,1.92-9.75,1.86-3.34.06-6.66-.57-9.74-1.86-2.8-1.27-4.53-3.14-4.53-5.29v-13.56c-3.99,2.47-8.59,3.78-13.28,3.78h0c-13.93,0-25.23-11.3-25.23-25.23s11.3-25.23,25.23-25.23h0c13.93,0,25.23,11.3,25.23,25.23h0c0,1.34-.11,2.68-.32,4.01-.12.71-.26,1.41-.42,2.1,1.02-.11,2.04-.16,3.06-.16,3.34-.06,6.66.57,9.74,1.86,2.8,1.27,4.53,3.13,4.53,5.28h0ZM6.2,33.77c.46-.46,1.21-.46,1.68,0s.46,1.21,0,1.68l-2.93,2.93c-.46.46-1.21.46-1.67,0,0,0,0,0,0,0l-2.93-2.93c-.46-.46-.46-1.21,0-1.68.46-.46,1.21-.46,1.68,0h0l.66.66c.7-14.08,10.15-26.21,23.63-30.33.62-.19,1.28.16,1.47.79.19.62-.16,1.28-.79,1.47h0c-12.66,3.87-21.48,15.35-21.96,28.58l1.17-1.17h0Zm27.56,32.17c-.46-.46-.46-1.21,0-1.68s1.21-.46,1.68,0l2.93,2.93c.46.46.46,1.21,0,1.68l-2.93,2.93c-.46.46-1.21.46-1.68,0s-.46-1.21,0-1.68h0l.66-.66c-14.08-.7-26.21-10.15-30.33-23.63-.19-.62.16-1.28.79-1.47s1.28.16,1.47.79h0c3.87,12.67,15.35,21.48,28.59,21.96l-1.17-1.17ZM38.37,2.02l-.66.66c14.08.7,26.21,10.15,30.33,23.63.19.62-.16,1.28-.79,1.47-.62.19-1.28-.16-1.47-.79-3.88-12.67-15.36-21.48-28.59-21.96l1.18,1.17c.45.47.44,1.22-.04,1.68-.46.44-1.18.44-1.64,0l-2.93-2.93c-.46-.46-.46-1.21,0-1.68,0,0,0,0,0,0l2.93-2.93c.46-.46,1.21-.46,1.68,0s.46,1.21,0,1.68h0Z"/>
  </g>
</svg>