<?xml version="1.0" encoding="UTF-8"?>
<svg id="Ebene_2" data-name="Ebene 2" xmlns="http://www.w3.org/2000/svg" viewBox="0 0 73.38 69.98">
  <defs>
    <style>
      .cls-1 {
        fill: #72b62b;
        stroke-width: 0px;
      }
    </style>
  </defs>
  <g id="Ebene_1-2" data-name="Ebene 1">
    <path class="cls-1" d="m72.84,11.15c-.02-.06-.05-.11-.09-.16-1.24-1.64-3.61-2.9-6.34-3.36-2.97-.5-5.92-.02-8.3,1.36l-15.99,9.23c-3.78,2.18-5.07,4.83-5.44,6.91l-4.17-1.12c-.19-.05-.39-.02-.56.07l-11.42,6.6c-.26.15-.4.44-.36.73.04.3.25.54.54.61l6.43,1.72c-1.5.89-2.02,2.83-1.15,4.34.43.74,1.11,1.26,1.94,1.48.28.07.56.11.84.11.54,0,1.08-.14,1.56-.41l-1.72,6.43c-.08.29.03.59.26.77.13.1.29.15.45.15.13,0,.25-.03.37-.1l11.42-6.6c.17-.1.29-.26.34-.45l1.12-4.17c.8.3,1.76.5,2.86.5,1.63,0,3.59-.45,5.84-1.75l15.99-9.23c2.39-1.38,4.27-3.69,5.33-6.51.97-2.59,1.06-5.27.26-7.17h0Zm-40.42,14.37l6.13,1.64-9.62,5.56-6.13-1.64,9.62-5.56Zm-4.12,12.64c-.45-.12-.81-.4-1.05-.8-.48-.82-.19-1.87.63-2.35l16.01-9.24c.26-.15.56-.23.85-.23.15,0,.3.02.45.06.45.12.81.4,1.05.8.23.4.29.86.17,1.3-.12.45-.4.81-.8,1.05l-16.01,9.24c-.4.23-.86.29-1.3.17h0Zm11.79.65l-9.62,5.56,1.64-6.13,9.62-5.56-1.64,6.13Zm10.43-6.02c-2.76,1.59-5.37,1.97-7.59,1.1l.6-2.25,2.82-1.63c.74-.43,1.26-1.11,1.48-1.94.22-.82.11-1.68-.32-2.42-.43-.74-1.11-1.26-1.94-1.48-.82-.22-1.68-.11-2.42.32l-2.82,1.63-2.25-.6c.36-2.36,1.99-4.43,4.75-6.02l15.35-8.87,7.68,13.29-15.35,8.87h0Zm20.67-14.99c-.84,2.25-2.27,4.12-4.07,5.36l-7.64-13.24c1.97-.94,4.3-1.24,6.67-.84,2.29.39,4.33,1.43,5.36,2.72.61,1.54.49,3.83-.32,6h0Zm-50.58,5.49c1.35,0,2.96-.37,4.81-1.44l12.97-7.49c4.23-2.44,5.94-8.07,4.59-11.27-.02-.06-.05-.11-.09-.16-2.1-2.77-7.82-4.1-12.05-1.66l-12.98,7.49c-3.02,1.74-4.12,3.86-4.45,5.55l-3.24-.87c-.19-.05-.39-.02-.56.07L.37,18.88c-.26.15-.4.44-.36.73.04.3.25.54.54.61l4.92,1.32c-.48.36-.83.87-.99,1.47-.19.71-.09,1.44.27,2.07.5.87,1.42,1.36,2.36,1.36.35,0,.71-.07,1.06-.22l-1.32,4.92c-.08.29.03.59.26.77.13.1.29.15.45.15.13,0,.25-.03.37-.1l9.27-5.35c.17-.1.29-.26.34-.45l.87-3.24c.63.22,1.38.37,2.23.37h0ZM37.43,1.61c1.82.31,3.43,1.12,4.25,2.14.48,1.22.37,3.03-.27,4.75-.65,1.75-1.74,3.21-3.12,4.2l-6.05-10.48c1.54-.7,3.36-.92,5.19-.61h0Zm-18.82,8.43l12.33-7.12,6.09,10.55-12.33,7.12c-2.15,1.24-4.18,1.55-5.92.92l.44-1.64,2.23-1.29c.63-.36,1.08-.95,1.27-1.65.19-.71.09-1.44-.27-2.07-.36-.63-.95-1.08-1.65-1.27-.71-.19-1.44-.09-2.07.27l-2.23,1.29-1.64-.44c.32-1.82,1.61-3.42,3.76-4.66h0Zm-8.51,4.91l4.59,1.23-7.47,4.31-4.59-1.23,7.47-4.31Zm-4.09,9.39c-.17-.29-.21-.63-.12-.95.09-.32.3-.6.58-.76l12.99-7.5c.2-.12.41-.17.63-.17.43,0,.86.22,1.09.63.17.29.21.63.12.95-.09.32-.3.6-.58.76l-12.99,7.5c-.6.35-1.37.14-1.72-.46h0Zm10.17,1.15l-7.47,4.31,1.23-4.59,7.47-4.31-1.23,4.59Zm48.61,15.36c-2.1-2.77-7.82-4.1-12.05-1.66l-12.97,7.49c-3.02,1.74-4.12,3.86-4.45,5.55l-3.24-.87c-.19-.05-.39-.02-.56.07l-9.27,5.35c-.26.15-.4.44-.36.73.04.3.25.54.54.61l4.92,1.32c-1.08.81-1.41,2.33-.72,3.53.5.87,1.42,1.36,2.36,1.36.35,0,.71-.07,1.05-.22l-1.32,4.92c-.08.29.03.59.26.77.13.1.29.15.45.15.13,0,.25-.03.37-.1l9.27-5.35c.17-.1.29-.26.34-.45l.87-3.24c.63.22,1.38.37,2.23.37,1.35,0,2.96-.37,4.81-1.44l12.97-7.49c4.23-2.44,5.94-8.07,4.59-11.27-.02-.06-.05-.11-.09-.16h0Zm-32.8,12.01l4.59,1.23-7.47,4.31-4.59-1.23,7.47-4.31Zm-4.09,9.39c-.35-.6-.14-1.37.46-1.72l12.99-7.5c.2-.12.41-.17.63-.17.43,0,.86.22,1.09.63.17.29.21.63.12.95-.09.32-.3.6-.58.76l-12.99,7.5c-.6.35-1.37.14-1.72-.46h0Zm10.17,1.15l-7.47,4.31,1.23-4.59,7.47-4.31-1.23,4.59Zm8.51-4.91c-2.15,1.24-4.18,1.55-5.92.92l.44-1.64,2.23-1.29c.63-.36,1.08-.95,1.27-1.65.19-.71.09-1.44-.27-2.07-.36-.63-.95-1.08-1.65-1.27-.71-.19-1.44-.09-2.07.27l-2.23,1.29-1.64-.44c.32-1.82,1.61-3.42,3.76-4.66l12.33-7.12,6.09,10.55-12.33,7.12h0Zm16.71-12.08c-.65,1.75-1.74,3.21-3.12,4.2l-6.05-10.48c1.54-.7,3.36-.92,5.19-.61,1.82.31,3.43,1.12,4.25,2.14.48,1.22.37,3.03-.27,4.75h0Z"/>
  </g>
</svg>