<?xml version="1.0" encoding="UTF-8"?>
<svg id="Ebene_2" data-name="Ebene 2" xmlns="http://www.w3.org/2000/svg" viewBox="0 0 57.42 57.41">
  <defs>
    <style>
      .cls-1 {
        fill: #72b62b;
        stroke-width: 0px;
      }
    </style>
  </defs>
  <g id="Ebene_1-2" data-name="Ebene 1">
    <path class="cls-1" d="m11.48,37.32L0,48.8l8.61,8.61,11.48-11.48,5.74,5.74v-20.09H5.74l5.74,5.74Zm11.48-2.87v10.29l-2.87-2.87-11.48,11.48-4.55-4.55,11.48-11.48-2.87-2.87h10.3Zm28.71-2.87h-20.1v20.09l5.74-5.74,11.48,11.48,8.61-8.61-11.48-11.48,5.74-5.74Zm1.68,17.22l-4.55,4.55-11.48-11.48-2.87,2.87v-10.29h10.29l-2.87,2.87,11.48,11.48ZM8.61,0L0,8.61l11.48,11.48-5.74,5.74h20.1V5.74l-5.74,5.74L8.61,0Zm14.36,22.97h-10.29l2.87-2.87L4.06,8.61l4.55-4.55,11.48,11.48,2.87-2.87v10.29h0Zm22.97-2.87l11.48-11.48L48.81,0l-11.48,11.48-5.74-5.74v20.09h20.1l-5.74-5.74Zm-11.48,2.87v-10.29l2.87,2.87,11.48-11.48,4.55,4.55-11.48,11.48,2.87,2.87h-10.29Z"/>
  </g>
</svg>