<?xml version="1.0" encoding="UTF-8"?>
<svg id="Ebene_2" data-name="Ebene 2" xmlns="http://www.w3.org/2000/svg" viewBox="0 0 55.18 55.48">
  <defs>
    <style>
      .cls-1 {
        fill: #72b62b;
        stroke-width: 0px;
      }
    </style>
  </defs>
  <g id="Ebene_1-2" data-name="Ebene 1">
    <g>
      <path class="cls-1" d="m27.55,17.14c-1.06,0-1.92.86-1.93,1.93v3.85h3.85v-3.85c0-1.06-.86-1.92-1.93-1.93Z"/>
      <path class="cls-1" d="m53.53,7.79c-7.42,1.94-18.89-.42-25.24-7.48-.19-.2-.46-.32-.73-.32s-.54.12-.73.32C20.43,7.41,8.96,9.72,1.58,7.79c-.27-.07-.56-.01-.79.15-.23.16-.38.41-.42.69-.63,4.83-1.48,18.21,7.17,30.91,4.87,7.08,11.7,12.59,19.64,15.86.24.1.51.1.75,0,19.72-7.81,29.51-28.88,26.81-46.77-.03-.28-.19-.53-.42-.69-.23-.16-.52-.21-.79-.15h0Zm-25.98,36.13c-1.05-.02-1.9-.87-1.9-1.93s.85-1.91,1.9-1.93c1.05.01,1.9.87,1.9,1.93,0,1.05-.85,1.91-1.9,1.93Zm8.67-10.4c0,1.06-.86,1.93-1.93,1.93h-13.49c-1.06,0-1.93-.86-1.93-1.93v-8.67c0-1.06.86-1.93,1.93-1.93h.96v-3.85c0-3.19,2.59-5.78,5.78-5.78s5.78,2.59,5.78,5.78v3.85h.96c1.06,0,1.93.86,1.93,1.93v8.67Z"/>
    </g>
  </g>
</svg>