<?xml version="1.0" encoding="utf-8"?>
<!-- Generator: Adobe Illustrator 28.0.0, SVG Export Plug-In . SVG Version: 6.00 Build 0)  -->
<svg version="1.1" id="Ebene_1" xmlns="http://www.w3.org/2000/svg" xmlns:xlink="http://www.w3.org/1999/xlink" x="0px" y="0px"
	 viewBox="0 0 147 146" style="enable-background:new 0 0 147 146;" xml:space="preserve">
<style type="text/css">
	.st0{fill:none;stroke:#53E62E;stroke-linecap:round;stroke-linejoin:round;}
</style>
<path class="st0" d="M48.4,116.3c3.5-4.8,8.3-8.5,13.9-10.7c5.6-2.1,11.7-2.6,17.5-1.3c5.8,1.3,11.2,4.2,15.4,8.4
	c4.2,4.2,7.1,9.6,8.3,15.4"/>
<path class="st0" d="M16.5,144.9c0.6-7.8,4-15,9.8-20.3c5.7-5.3,13.2-8.3,21-8.3h1.1c7.6,0.3,14.7,3.3,20.2,8.6"/>
<path class="st0" d="M103.4,128.2c1.3-0.2,2.6-0.3,3.9-0.3c5.2,0,10.2,1.6,14.4,4.7c4.2,3.1,7.3,7.4,8.9,12.3"/>
<path class="st0" d="M73.5,103.6V45"/>
<path class="st0" d="M61.5,13.2c14.4,14.4,11.9,40.1,11.9,40.1s-25.7,2.5-40.1-11.9S21.4,1.2,21.4,1.2S47.1-1.3,61.5,13.2z"/>
<path class="st0" d="M85.6,13.2C71.3,27.5,73.7,53.3,73.7,53.3s25.8,2.5,40.2-11.9s11.9-40.2,11.9-40.2S100-1.3,85.6,13.2z"/>
</svg>
