<?xml version="1.0" encoding="UTF-8"?>
<svg id="Ebene_2" data-name="Ebene 2" xmlns="http://www.w3.org/2000/svg" viewBox="0 0 70.67 70.58">
  <defs>
    <style>
      .cls-1 {
        fill: #72b62b;
        stroke-width: 0px;
      }
    </style>
  </defs>
  <g id="Ebene_1-2" data-name="Ebene 1">
    <g>
      <path class="cls-1" d="m69.56,45.4H1.1c-.66,0-1.1.55-1.1,1.1v22.97c0,.66.44,1.1,1.1,1.1h68.46c.66,0,1.1-.44,1.1-1.1v-22.97c0-.66-.44-1.1-1.1-1.1ZM12.7,63.51c0,.66-.44,1.1-1.1,1.1s-1.1-.44-1.1-1.1v-2.21c0-.66.44-1.1,1.1-1.1s1.1.44,1.1,1.1v2.21Zm0-8.83c0,.66-.44,1.1-1.1,1.1s-1.1-.44-1.1-1.1v-2.21c0-.66.44-1.1,1.1-1.1s1.1.44,1.1,1.1v2.21Zm15.79,8.83c0,.66-.44,1.1-1.1,1.1s-1.1-.44-1.1-1.1v-2.21c0-.66.44-1.1,1.1-1.1s1.1.44,1.1,1.1v2.21Zm0-8.83c0,.66-.44,1.1-1.1,1.1s-1.1-.44-1.1-1.1v-2.21c0-.66.44-1.1,1.1-1.1s1.1.44,1.1,1.1v2.21Zm15.9,8.83c0,.66-.44,1.1-1.1,1.1s-1.1-.44-1.1-1.1v-2.21c0-.66.44-1.1,1.1-1.1s1.1.44,1.1,1.1v2.21Zm0-8.83c0,.66-.44,1.1-1.1,1.1s-1.1-.44-1.1-1.1v-2.21c0-.66.44-1.1,1.1-1.1s1.1.44,1.1,1.1v2.21Zm15.79,8.83c0,.66-.44,1.1-1.1,1.1s-1.1-.44-1.1-1.1v-2.21c0-.66.44-1.1,1.1-1.1s1.1.44,1.1,1.1v2.21Zm0-8.83c0,.66-.44,1.1-1.1,1.1s-1.1-.44-1.1-1.1v-2.21c0-.66.44-1.1,1.1-1.1s1.1.44,1.1,1.1v2.21Z"/>
      <path class="cls-1" d="m36.22,14.05h-20.21c-.55,6.4-2.1,20.43-6.51,29.04h33.35c-4.53-8.61-6.07-22.64-6.63-29.04Zm-5.3,16.67l-5.41,7.51c-.33.44-.99.66-1.55.22-.55-.33-.66-1.1-.22-1.55l4.09-5.74h-5.85c-.44,0-.77-.22-.99-.55-.22-.33-.11-.77.11-1.1l5.41-7.4c.33-.44.99-.55,1.55-.22s.55,1.1.22,1.55l-4.09,5.63h5.85c.44,0,.77.22.99.55.22.22.22.66-.11,1.1Z"/>
      <path class="cls-1" d="m15.13,11.84h21.97c.66,0,1.1-.44,1.1-1.1s-.44-1.1-1.1-1.1H15.13c-.55,0-1.1.44-1.1,1.1s.44,1.1,1.1,1.1Z"/>
      <path class="cls-1" d="m26.39,5.99c.66.11,1.21-.33,1.21-.88.11-.77,1.21-1.44,2.1-1.44,1.21,0,2.43.55,3.64,1.1,3.86,1.66,5.52,1.21,8.5-.99,2.54-1.77,3.09-1.88,5.52-.99l6.74,2.54c.55.22,1.21-.11,1.44-.66s-.11-1.21-.66-1.44l-6.74-2.54c-3.09-1.1-4.42-.99-7.51,1.21-2.43,1.77-3.31,2.1-6.4.77-1.44-.66-2.98-1.33-4.53-1.21-1.88,0-3.98,1.21-4.31,3.31,0,.55.44,1.1.99,1.21Z"/>
      <path class="cls-1" d="m55.65,10.51c.22-.55-.11-1.21-.66-1.44l-6.74-2.54c-2.76-.99-4.31-1.1-7.07.88-.44.33-.66.99-.22,1.55.33.55.99.66,1.55.22,2.1-1.44,2.76-1.32,4.97-.55l6.74,2.54c.66.22,1.21-.11,1.44-.66Z"/>
      <path class="cls-1" d="m58.52,17.91c1.88-1.44,2.54-1.44,4.42-.66l6.18,2.54c.55.22,1.21,0,1.44-.66.22-.55,0-1.21-.66-1.44l-6.18-2.54c-2.65-1.1-4.09-1.1-6.62.88-.44.33-.55,1.1-.22,1.55.44.55,1.21.66,1.66.33Z"/>
      <path class="cls-1" d="m62.83,22.44c0-.55-.55-.99-1.1-.99h-8.94c-.55,0-1.1.44-1.1.99l-1.88,20.65h14.91l-1.88-20.65Z"/>
    </g>
  </g>
</svg>