<?xml version="1.0" encoding="UTF-8"?>
<svg id="Ebene_2" data-name="Ebene 2" xmlns="http://www.w3.org/2000/svg" viewBox="0 0 262.85 75.03">
  <defs>
    <style>
      .cls-1, .cls-2 {
        fill: #72b62b;
        stroke-width: 0px;
      }

      .cls-2 {
        fill-rule: evenodd;
      }
    </style>
  </defs>
  <g id="Ebene_1-2" data-name="Ebene 1">
    <path class="cls-2" d="m212.44,67.5V2.12l-16.88,5.08v60.29h16.88Zm1.81-65.32v65.32h2.87v-16.3c0-.61.59-1.04,1.16-.87l6.93,1.42c.43.09.72.46.72.88v14.87h2.87V7.17l-14.55-5h0Zm-1.21-2.12c.21-.07.44-.07.64,0l16.32,5.61c.38.13.61.48.61.86v16c2.55-4.59,7.38-7.46,12.66-7.46,7.99,0,14.47,6.48,14.47,14.47v37.95h4.2c.5,0,.9.41.9.9v4.9c0,.5-.41.9-.9.9h-72.39c-.5,0-.9-.41-.9-.9v-4.9c0-.5.41-.9.9-.9h4.2V6.53c0-.39.25-.75.65-.87L213.04.05h0Zm17.57,36.5v30.94h25.32v-30.94c-2.55,4.59-7.38,7.46-12.66,7.46s-10.11-2.86-12.66-7.46h0Zm-40.15,35.84h70.58v-3.09h-70.58v3.09h0Zm28.47-4.9v-15.2l5.19,1.06v14.13h-5.19Zm16.41-21.46h5.32c1.19,0,1.19-1.81,0-1.81h-5.32c-1.19,0-1.19,1.81,0,1.81h0Zm10.54-.19h5.32c1.19,0,1.19-1.81,0-1.81h-5.32c-1.19,0-1.19,1.81,0,1.81h0Zm-10.54,8.07h5.32c1.19,0,1.19-1.81,0-1.81h-5.32c-1.19,0-1.19,1.81,0,1.81h0Zm10.54-.19h5.32c1.19,0,1.19-1.81,0-1.81h-5.32c-1.19,0-1.19,1.81,0,1.81h0Zm-10.54,8.07h5.32c1.19,0,1.19-1.81,0-1.81h-5.32c-1.19,0-1.19,1.81,0,1.81h0Zm10.54-.19h5.32c1.19,0,1.19-1.81,0-1.81h-5.32c-1.19,0-1.19,1.81,0,1.81h0Zm-28.34-54.08c0-1.19,1.81-1.19,1.81,0v5.17c0,1.19-1.81,1.19-1.81,0v-5.17h0Zm6.15,1.83c0-1.19,1.81-1.19,1.81,0v5.17c0,1.19-1.81,1.19-1.81,0v-5.17h0Zm-6.15,9.36c0-1.19,1.81-1.19,1.81,0v5.17c0,1.19-1.81,1.19-1.81,0v-5.17h0Zm6.15,1.83c0-1.19,1.81-1.19,1.81,0v5.17c0,1.19-1.81,1.19-1.81,0v-5.17h0Zm-6.15,9.36c0-1.19,1.81-1.19,1.81,0v5.17c0,1.19-1.81,1.19-1.81,0v-5.17h0Zm6.15,1.83c0-1.19,1.81-1.19,1.81,0v5.17c0,1.19-1.81,1.19-1.81,0v-5.17h0Zm-6.15,9.36c0-1.19,1.81-1.19,1.81,0v5.17c0,1.19-1.81,1.19-1.81,0v-5.17h0Zm6.15,1.83c0-1.19,1.81-1.19,1.81,0v5.17c0,1.19-1.81,1.19-1.81,0v-5.17h0Zm-17.52-34.18c0-1.19,1.81-1.19,1.81,0v5.17c0,1.19-1.81,1.19-1.81,0v-5.17h0Zm-6.15,1.83c0-1.19,1.81-1.19,1.81,0v5.17c0,1.19-1.81,1.19-1.81,0v-5.17h0Zm6.15,9.36c0-1.19,1.81-1.19,1.81,0v5.17c0,1.19-1.81,1.19-1.81,0v-5.17h0Zm-6.15,1.83c0-1.19,1.81-1.19,1.81,0v5.17c0,1.19-1.81,1.19-1.81,0v-5.17h0Zm6.15,9.36c0-1.19,1.81-1.19,1.81,0v5.17c0,1.19-1.81,1.19-1.81,0v-5.17h0Zm-6.15,1.83c0-1.19,1.81-1.19,1.81,0v5.17c0,1.19-1.81,1.19-1.81,0v-5.17h0Zm6.15,9.36c0-1.19,1.81-1.19,1.81,0v5.17c0,1.19-1.81,1.19-1.81,0v-5.17h0Zm-6.15,1.83c0-1.19,1.81-1.19,1.81,0v5.17c0,1.19-1.81,1.19-1.81,0v-5.17h0Zm6.15,9.36c0-1.19,1.81-1.19,1.81,0v5.17c0,1.19-1.81,1.19-1.81,0v-5.17h0Zm-6.15,1.83c0-1.19,1.81-1.19,1.81,0v5.17c0,1.19-1.81,1.19-1.81,0v-5.17h0Zm43.25-38.49c-6.99,0-12.66,5.67-12.66,12.66s5.67,12.66,12.66,12.66,12.66-5.67,12.66-12.66-5.67-12.66-12.66-12.66h0Zm0,13.57c1.48,0,2.67,1.19,2.67,2.67s-1.19,2.67-2.67,2.67-2.67-1.19-2.67-2.67c0-1.19-1.81-1.19-1.81,0,0,2.13,1.5,3.96,3.57,4.38v1.32c0,1.19,1.81,1.19,1.81,0v-1.32c2.07-.43,3.57-2.26,3.57-4.38,0-2.47-2.01-4.48-4.48-4.48-1.48,0-2.67-1.19-2.67-2.67s1.19-2.67,2.67-2.67,2.67,1.19,2.67,2.67c0,.5.41.9.9.9s.9-.41.9-.9c0-2.13-1.5-3.96-3.57-4.38v-1.32c0-1.19-1.81-1.19-1.81,0v1.32c-2.07.43-3.57,2.26-3.57,4.38,0,2.47,2.01,4.48,4.48,4.48h0Z"/>
    <path class="cls-1" d="m164.86,50.09l-26.66,9.86c-2.46.91-6.55.91-9.01,0s-2.46-2.42,0-3.33l15.74-5.85h-58.23c-3.55,0-6.37-1.04-6.37-2.35s2.82-2.35,6.37-2.35h58.23l-15.74-5.82c-2.46-.91-2.46-2.42,0-3.33,1.27-.47,2.91-.71,4.55-.71s3.28.24,4.55.71l26.57,9.82c1.18.44,1.91,1.04,1.91,1.68s-.64,1.24-1.91,1.68h0Z"/>
    <g>
      <path class="cls-1" d="m63.24,61.56l-13.23-20.04c-.31-.47-.86-.78-1.49-.78H15.02c-.63,0-1.17.31-1.49.78L.3,61.56c-.39.55-.39,1.25-.08,1.8.31.55.94.94,1.57.94h10.65v7.12h-3.13c-.94,0-1.8.78-1.8,1.8s.78,1.8,1.8,1.8h9.78c.94,0,1.8-.78,1.8-1.8s-.78-1.8-1.8-1.8h-3.13v-7.12h31.55v7.12h-3.13c-.94,0-1.8.78-1.8,1.8s.78,1.8,1.8,1.8h9.78c.94,0,1.8-.78,1.8-1.8s-.78-1.8-1.8-1.8h-3.13v-7.12h10.65c.63,0,1.25-.39,1.57-.94.39-.55.31-1.25,0-1.8Zm-11.35-10.8h-11.19l-1.49-6.5h8.38l4.31,6.5Zm-25.28,0l1.57-6.5h7.44l1.49,6.5h-10.49Zm11.27,3.52l1.49,6.5h-15.19l1.57-6.5h12.13Zm-21.92-10.02h8.61l-1.57,6.5h-11.35l4.31-6.5Zm-6.58,10.02h12.76l-1.57,6.5H5.08l4.31-6.5Zm33.66,6.5l-1.49-6.5h12.68l4.31,6.5h-15.5Z"/>
      <path class="cls-1" d="m31.77,27.83c4.62,0,8.45-3.76,8.45-8.45s-3.76-8.45-8.45-8.45-8.45,3.76-8.45,8.45,3.84,8.45,8.45,8.45Zm0-13.39c2.74,0,4.93,2.19,4.93,4.93s-2.19,4.93-4.93,4.93-4.93-2.19-4.93-4.93,2.19-4.93,4.93-4.93Z"/>
      <path class="cls-1" d="m31.77,8.41c.94,0,1.8-.78,1.8-1.8V2.39c0-.94-.78-1.8-1.8-1.8s-1.8.78-1.8,1.8v4.31c0,.94.86,1.72,1.8,1.72Z"/>
      <path class="cls-1" d="m21.52,11.62c.31.31.78.55,1.25.55s.94-.16,1.25-.55c.7-.7.7-1.8,0-2.5l-3.05-3.05c-.7-.7-1.8-.7-2.5,0s-.7,1.8,0,2.5l3.05,3.05Z"/>
      <path class="cls-1" d="m14.79,21.09h4.31c.94,0,1.8-.78,1.8-1.8s-.78-1.8-1.8-1.8h-4.31c-.94,0-1.8.78-1.8,1.8s.78,1.8,1.8,1.8Z"/>
      <path class="cls-1" d="m21.52,27.12l-3.05,3.05c-.7.7-.7,1.8,0,2.5.31.31.78.55,1.25.55s.94-.16,1.25-.55l3.05-3.05c.7-.7.7-1.8,0-2.5-.63-.7-1.8-.7-2.5,0Z"/>
      <path class="cls-1" d="m29.97,32.05v4.31c0,.94.78,1.8,1.8,1.8s1.8-.78,1.8-1.8v-4.31c0-.94-.78-1.8-1.8-1.8s-1.8.86-1.8,1.8Z"/>
      <path class="cls-1" d="m39.52,27.12c-.7.7-.7,1.8,0,2.5l3.05,3.05c.31.31.78.55,1.25.55s.94-.16,1.25-.55c.7-.7.7-1.8,0-2.5l-3.05-3.05c-.7-.7-1.88-.7-2.5,0Z"/>
      <path class="cls-1" d="m42.73,19.37c0,.94.78,1.8,1.8,1.8h4.31c.94,0,1.8-.78,1.8-1.8s-.78-1.8-1.8-1.8h-4.31c-1.02,0-1.8.78-1.8,1.8Z"/>
      <path class="cls-1" d="m40.77,12.17c.47,0,.94-.16,1.25-.55l3.05-3.05c.7-.7.7-1.8,0-2.5s-1.8-.7-2.5,0l-3.05,3.05c-.7.7-.7,1.8,0,2.5.31.39.78.55,1.25.55Z"/>
    </g>
    <g>
      <polygon class="cls-2" points="119 3.56 128.25 3.56 119.97 16.38 130.36 16.38 106.98 38.79 116.88 21.25 107.63 21.25 119 3.56"/>
      <polygon class="cls-2" points="114.94 6.64 116.88 3.56 117.86 3.56 115.91 6.64 114.94 6.64"/>
      <polygon class="cls-2" points="106.49 21.25 105.52 21.25 113.8 8.27 114.77 8.27 106.49 21.25"/>
    </g>
  </g>
</svg>