<?xml version="1.0" encoding="UTF-8"?>
<svg id="Ebene_2" data-name="Ebene 2" xmlns="http://www.w3.org/2000/svg" viewBox="0 0 261.74 74.44">
  <defs>
    <style>
      .cls-1, .cls-2 {
        fill: #72b62b;
        stroke-width: 0px;
      }

      .cls-2 {
        fill-rule: evenodd;
      }
    </style>
  </defs>
  <g id="Ebene_1-2" data-name="Ebene 1">
    <g>
      <path class="cls-1" d="m63.24,60.98l-13.23-20.04c-.31-.47-.86-.78-1.49-.78H15.02c-.63,0-1.17.31-1.49.78L.3,60.98c-.39.55-.39,1.25-.08,1.8.31.55.94.94,1.57.94h10.65v7.12h-3.13c-.94,0-1.8.78-1.8,1.8s.78,1.8,1.8,1.8h9.78c.94,0,1.8-.78,1.8-1.8s-.78-1.8-1.8-1.8h-3.13v-7.12h31.55v7.12h-3.13c-.94,0-1.8.78-1.8,1.8s.78,1.8,1.8,1.8h9.78c.94,0,1.8-.78,1.8-1.8s-.78-1.8-1.8-1.8h-3.13v-7.12h10.65c.63,0,1.25-.39,1.57-.94.39-.55.31-1.25,0-1.8Zm-11.35-10.8h-11.19l-1.49-6.5h8.38l4.31,6.5Zm-25.28,0l1.57-6.5h7.44l1.49,6.5h-10.49Zm11.27,3.52l1.49,6.5h-15.19l1.57-6.5h12.13Zm-21.92-10.02h8.61l-1.57,6.5h-11.35l4.31-6.5Zm-6.58,10.02h12.76l-1.57,6.5H5.08l4.31-6.5Zm33.66,6.5l-1.49-6.5h12.68l4.31,6.5h-15.5Z"/>
      <path class="cls-1" d="m31.77,27.24c4.62,0,8.45-3.76,8.45-8.45s-3.76-8.45-8.45-8.45-8.45,3.76-8.45,8.45,3.84,8.45,8.45,8.45Zm0-13.39c2.74,0,4.93,2.19,4.93,4.93s-2.19,4.93-4.93,4.93-4.93-2.19-4.93-4.93,2.19-4.93,4.93-4.93Z"/>
      <path class="cls-1" d="m31.77,7.83c.94,0,1.8-.78,1.8-1.8V1.8c0-.94-.78-1.8-1.8-1.8s-1.8.78-1.8,1.8v4.31c0,.94.86,1.72,1.8,1.72Z"/>
      <path class="cls-1" d="m21.52,11.04c.31.31.78.55,1.25.55s.94-.16,1.25-.55c.7-.7.7-1.8,0-2.5l-3.05-3.05c-.7-.7-1.8-.7-2.5,0s-.7,1.8,0,2.5l3.05,3.05Z"/>
      <path class="cls-1" d="m14.79,20.51h4.31c.94,0,1.8-.78,1.8-1.8s-.78-1.8-1.8-1.8h-4.31c-.94,0-1.8.78-1.8,1.8s.78,1.8,1.8,1.8Z"/>
      <path class="cls-1" d="m21.52,26.54l-3.05,3.05c-.7.7-.7,1.8,0,2.5.31.31.78.55,1.25.55s.94-.16,1.25-.55l3.05-3.05c.7-.7.7-1.8,0-2.5-.63-.7-1.8-.7-2.5,0Z"/>
      <path class="cls-1" d="m29.97,31.47v4.31c0,.94.78,1.8,1.8,1.8s1.8-.78,1.8-1.8v-4.31c0-.94-.78-1.8-1.8-1.8s-1.8.86-1.8,1.8Z"/>
      <path class="cls-1" d="m39.52,26.54c-.7.7-.7,1.8,0,2.5l3.05,3.05c.31.31.78.55,1.25.55s.94-.16,1.25-.55c.7-.7.7-1.8,0-2.5l-3.05-3.05c-.7-.7-1.88-.7-2.5,0Z"/>
      <path class="cls-1" d="m42.73,18.79c0,.94.78,1.8,1.8,1.8h4.31c.94,0,1.8-.78,1.8-1.8s-.78-1.8-1.8-1.8h-4.31c-1.02,0-1.8.78-1.8,1.8Z"/>
      <path class="cls-1" d="m40.77,11.58c.47,0,.94-.16,1.25-.55l3.05-3.05c.7-.7.7-1.8,0-2.5s-1.8-.7-2.5,0l-3.05,3.05c-.7.7-.7,1.8,0,2.5.31.39.78.55,1.25.55Z"/>
    </g>
    <path class="cls-2" d="m211.33,67.61V2.24l-16.88,5.08v60.29h16.88Zm1.81-65.32v65.32h2.87v-16.3c0-.61.59-1.04,1.16-.87l6.93,1.42c.43.09.72.46.72.88v14.87h2.87V7.29l-14.55-5h0Zm-1.21-2.12c.21-.07.44-.07.64,0l16.32,5.61c.38.13.61.48.61.86v16c2.55-4.59,7.38-7.46,12.66-7.46,7.99,0,14.47,6.48,14.47,14.47v37.95h4.2c.5,0,.9.41.9.9v4.9c0,.5-.41.9-.9.9h-72.39c-.5,0-.9-.41-.9-.9v-4.9c0-.5.41-.9.9-.9h4.2V6.65c0-.39.25-.75.65-.87L211.93.17h0Zm17.57,36.5v30.94h25.32v-30.94c-2.55,4.59-7.38,7.46-12.66,7.46s-10.11-2.86-12.66-7.46h0Zm-40.15,35.84h70.58v-3.09h-70.58v3.09h0Zm28.47-4.9v-15.2l5.19,1.06v14.13h-5.19Zm16.41-21.46h5.32c1.19,0,1.19-1.81,0-1.81h-5.32c-1.19,0-1.19,1.81,0,1.81h0Zm10.54-.19h5.32c1.19,0,1.19-1.81,0-1.81h-5.32c-1.19,0-1.19,1.81,0,1.81h0Zm-10.54,8.07h5.32c1.19,0,1.19-1.81,0-1.81h-5.32c-1.19,0-1.19,1.81,0,1.81h0Zm10.54-.19h5.32c1.19,0,1.19-1.81,0-1.81h-5.32c-1.19,0-1.19,1.81,0,1.81h0Zm-10.54,8.07h5.32c1.19,0,1.19-1.81,0-1.81h-5.32c-1.19,0-1.19,1.81,0,1.81h0Zm10.54-.19h5.32c1.19,0,1.19-1.81,0-1.81h-5.32c-1.19,0-1.19,1.81,0,1.81h0Zm-28.34-54.08c0-1.19,1.81-1.19,1.81,0v5.17c0,1.19-1.81,1.19-1.81,0v-5.17h0Zm6.15,1.83c0-1.19,1.81-1.19,1.81,0v5.17c0,1.19-1.81,1.19-1.81,0v-5.17h0Zm-6.15,9.36c0-1.19,1.81-1.19,1.81,0v5.17c0,1.19-1.81,1.19-1.81,0v-5.17h0Zm6.15,1.83c0-1.19,1.81-1.19,1.81,0v5.17c0,1.19-1.81,1.19-1.81,0v-5.17h0Zm-6.15,9.36c0-1.19,1.81-1.19,1.81,0v5.17c0,1.19-1.81,1.19-1.81,0v-5.17h0Zm6.15,1.83c0-1.19,1.81-1.19,1.81,0v5.17c0,1.19-1.81,1.19-1.81,0v-5.17h0Zm-6.15,9.36c0-1.19,1.81-1.19,1.81,0v5.17c0,1.19-1.81,1.19-1.81,0v-5.17h0Zm6.15,1.83c0-1.19,1.81-1.19,1.81,0v5.17c0,1.19-1.81,1.19-1.81,0v-5.17h0Zm-17.52-34.18c0-1.19,1.81-1.19,1.81,0v5.17c0,1.19-1.81,1.19-1.81,0v-5.17h0Zm-6.15,1.83c0-1.19,1.81-1.19,1.81,0v5.17c0,1.19-1.81,1.19-1.81,0v-5.17h0Zm6.15,9.36c0-1.19,1.81-1.19,1.81,0v5.17c0,1.19-1.81,1.19-1.81,0v-5.17h0Zm-6.15,1.83c0-1.19,1.81-1.19,1.81,0v5.17c0,1.19-1.81,1.19-1.81,0v-5.17h0Zm6.15,9.36c0-1.19,1.81-1.19,1.81,0v5.17c0,1.19-1.81,1.19-1.81,0v-5.17h0Zm-6.15,1.83c0-1.19,1.81-1.19,1.81,0v5.17c0,1.19-1.81,1.19-1.81,0v-5.17h0Zm6.15,9.36c0-1.19,1.81-1.19,1.81,0v5.17c0,1.19-1.81,1.19-1.81,0v-5.17h0Zm-6.15,1.83c0-1.19,1.81-1.19,1.81,0v5.17c0,1.19-1.81,1.19-1.81,0v-5.17h0Zm6.15,9.36c0-1.19,1.81-1.19,1.81,0v5.17c0,1.19-1.81,1.19-1.81,0v-5.17h0Zm-6.15,1.83c0-1.19,1.81-1.19,1.81,0v5.17c0,1.19-1.81,1.19-1.81,0v-5.17h0Zm43.25-38.49c-6.99,0-12.66,5.67-12.66,12.66s5.67,12.66,12.66,12.66,12.66-5.67,12.66-12.66-5.67-12.66-12.66-12.66h0Zm0,13.57c1.48,0,2.67,1.19,2.67,2.67s-1.19,2.67-2.67,2.67-2.67-1.19-2.67-2.67c0-1.19-1.81-1.19-1.81,0,0,2.13,1.5,3.96,3.57,4.38v1.32c0,1.19,1.81,1.19,1.81,0v-1.32c2.07-.43,3.57-2.26,3.57-4.38,0-2.47-2.01-4.48-4.48-4.48-1.48,0-2.67-1.19-2.67-2.67s1.19-2.67,2.67-2.67,2.67,1.19,2.67,2.67c0,.5.41.9.9.9s.9-.41.9-.9c0-2.13-1.5-3.96-3.57-4.38v-1.32c0-1.19-1.81-1.19-1.81,0v1.32c-2.07.43-3.57,2.26-3.57,4.38,0,2.47,2.01,4.48,4.48,4.48h0Z"/>
    <g>
      <g>
        <g>
          <g>
            <path class="cls-1" d="m136.47,16.52v.25s.05-.03.07-.06c-.04-.06-.06-.13-.07-.19Z"/>
            <path class="cls-1" d="m136.47,15c0,.91-2.45,2.2-6.44,2.2s-6.44-1.28-6.44-2.2,2.45-2.2,6.44-2.2c2.19,0,3.91.38,5.02.88.03.02.06.03.09.04.86.41,1.34.88,1.34,1.28Z"/>
          </g>
          <path class="cls-1" d="m136.54,16.71s-.05.04-.07.06v-.25c.02.06.04.13.07.19Z"/>
          <g>
            <path class="cls-1" d="m136.47,16.77v4.25c-4.27.79-8.6.75-12.88-.11v-4.14c1.41,1,3.98,1.52,6.44,1.52s5.03-.52,6.44-1.52Z"/>
            <path class="cls-1" d="m136.47,22.14v3.63c-4.27.78-8.6.74-12.88-.12v-3.63c2.24.44,4.49.65,6.75.65,2.05,0,4.09-.18,6.13-.54Z"/>
            <g>
              <path class="cls-1" d="m136.47,26.9v3.63c-4.27.78-8.6.74-12.88-.12v-3.63c2.24.44,4.5.65,6.76.65,2.05,0,4.09-.18,6.12-.54Z"/>
              <path class="cls-1" d="m136.47,31.65v2.46c0,.1-.05.19-.13.24-4.24,2.64-8.37,2.64-12.63,0-.07-.05-.13-.14-.13-.24v-2.57c2.24.44,4.49.65,6.75.65,2.05,0,4.09-.18,6.13-.54Z"/>
            </g>
          </g>
        </g>
        <g>
          <path class="cls-1" d="m148.94,5.57c0,.94-2.49,2.25-6.55,2.25s-6.55-1.31-6.55-2.25,2.49-2.25,6.55-2.25c4.06,0,6.55,1.31,6.55,2.25Z"/>
          <g>
            <path class="cls-1" d="m148.94,7.36v3.1c-4.4,2.35-8.69,2.35-13.1,0v-3.09c1.43,1.02,4.04,1.56,6.55,1.56s5.13-.54,6.55-1.56Z"/>
            <path class="cls-1" d="m148.94,11.7v3.57c-3.78,2.01-7.61,2.28-11.37.79v-1.06c0-.89-.67-1.61-1.72-2.14v-1.16c2.17,1.08,4.37,1.61,6.55,1.61,2.2,0,4.38-.54,6.55-1.61Z"/>
            <path class="cls-1" d="m148.94,16.5v3.57c-3.78,2.01-7.61,2.28-11.37.79v-3.62c1.6.59,3.21.87,4.82.87,2.19,0,4.38-.54,6.55-1.61Z"/>
          </g>
        </g>
        <g>
          <path class="cls-1" d="m151.43,27.04s-.02,0-.03,0h-.03s.02,0,.03,0h.03Z"/>
          <g>
            <path class="cls-1" d="m151.4,23.21c-3.47,0-6.3,2.82-6.3,6.3,0,.73.12,1.43.35,2.09.87,2.45,3.2,4.21,5.95,4.21,3.47,0,6.3-2.82,6.3-6.3s-2.82-6.3-6.3-6.3Zm-.95,4.92c.07.52.62.79,1.1.83.61.05,1.16.35,1.52.85s.47,1.12.33,1.73c-.18.7-.74,1.28-1.44,1.47v.23c0,.3-.25.55-.55.55s-.55-.25-.55-.55v-.23c-.26-.07-.5-.19-.71-.36-.51-.39-.8-.99-.8-1.63,0-.3.25-.55.55-.55s.55.25.55.55.14.58.37.76c.17.13.37.2.59.2h0c.09,0,.18-.01.27-.03.31-.08.58-.35.66-.67.07-.29.02-.59-.15-.82s-.43-.37-.71-.39c-1.11-.09-1.98-.81-2.11-1.78-.08-.59.1-1.19.49-1.64.27-.3.62-.52,1-.63v-.23c0-.3.25-.55.55-.55s.55.25.55.55v.23c.87.25,1.51,1.04,1.51,1.99,0,.3-.25.55-.55.55s-.55-.25-.55-.55c0-.52-.42-.94-.93-.96-.01,0-.02,0-.03,0h-.03c-.27,0-.52.12-.7.33-.19.2-.27.47-.23.76Z"/>
            <path class="cls-1" d="m148.94,21.31v1.22c-1.96.7-3.55,2.2-4.36,4.11-1.57-.01-5.37-.46-7.02-.83v-3.76c1.6.59,3.21.87,4.82.87,2.19,0,4.39-.54,6.56-1.61Z"/>
            <path class="cls-1" d="m144.23,31.3c-1.72-.04-5.12-.39-6.66-.73v-3.63c1.73.36,4.91.74,6.66.8-.14.56-.21,1.16-.21,1.77,0,.61.07,1.21.22,1.79Z"/>
          </g>
        </g>
      </g>
      <path class="cls-1" d="m146.29,34.85c-2.79.42-5.73.28-8.77-.4.03-.11.05-.23.05-.35v-2.43c1.85.37,5.37.71,7,.71h.03c.39.94.98,1.77,1.7,2.46Z"/>
    </g>
    <path class="cls-1" d="m81.14,50.21l26.66,9.86c2.46.91,6.55.91,9.01,0s2.46-2.42,0-3.33l-15.74-5.85h58.23c3.55,0,6.37-1.04,6.37-2.35s-2.82-2.35-6.37-2.35h-58.23l15.74-5.82c2.46-.91,2.46-2.42,0-3.33-1.27-.47-2.91-.71-4.55-.71s-3.28.24-4.55.71l-26.57,9.82c-1.18.44-1.91,1.04-1.91,1.68s.64,1.24,1.91,1.68h0Z"/>
  </g>
</svg>