<?xml version="1.0" encoding="UTF-8"?>
<svg id="Ebene_2" data-name="Ebene 2" xmlns="http://www.w3.org/2000/svg" viewBox="0 0 260.86 74.2">
  <defs>
    <style>
      .cls-1, .cls-2 {
        fill: #72b62b;
        stroke-width: 0px;
      }

      .cls-2 {
        fill-rule: evenodd;
      }
    </style>
  </defs>
  <g id="Ebene_1-2" data-name="Ebene 1">
    <path class="cls-2" d="m210.45,67.5V2.12l-16.88,5.08v60.29h16.88Zm1.81-65.32v65.32h2.87v-16.3c0-.61.59-1.04,1.16-.87l6.93,1.42c.43.09.72.46.72.88v14.87h2.87V7.17l-14.55-5h0Zm-1.21-2.12c.21-.07.44-.07.64,0l16.32,5.61c.38.13.61.48.61.86v16c2.55-4.59,7.38-7.46,12.66-7.46,7.99,0,14.47,6.48,14.47,14.47v37.95h4.2c.5,0,.9.41.9.9v4.9c0,.5-.41.9-.9.9h-72.39c-.5,0-.9-.41-.9-.9v-4.9c0-.5.41-.9.9-.9h4.2V6.53c0-.39.25-.75.65-.87L211.05.05h0Zm17.57,36.5v30.94h25.32v-30.94c-2.55,4.59-7.38,7.46-12.66,7.46s-10.11-2.86-12.66-7.46h0Zm-40.15,35.84h70.58v-3.09h-70.58v3.09h0Zm28.47-4.9v-15.2l5.19,1.06v14.13h-5.19Zm16.41-21.46h5.32c1.19,0,1.19-1.81,0-1.81h-5.32c-1.19,0-1.19,1.81,0,1.81h0Zm10.54-.19h5.32c1.19,0,1.19-1.81,0-1.81h-5.32c-1.19,0-1.19,1.81,0,1.81h0Zm-10.54,8.07h5.32c1.19,0,1.19-1.81,0-1.81h-5.32c-1.19,0-1.19,1.81,0,1.81h0Zm10.54-.19h5.32c1.19,0,1.19-1.81,0-1.81h-5.32c-1.19,0-1.19,1.81,0,1.81h0Zm-10.54,8.07h5.32c1.19,0,1.19-1.81,0-1.81h-5.32c-1.19,0-1.19,1.81,0,1.81h0Zm10.54-.19h5.32c1.19,0,1.19-1.81,0-1.81h-5.32c-1.19,0-1.19,1.81,0,1.81h0Zm-28.34-54.08c0-1.19,1.81-1.19,1.81,0v5.17c0,1.19-1.81,1.19-1.81,0v-5.17h0Zm6.15,1.83c0-1.19,1.81-1.19,1.81,0v5.17c0,1.19-1.81,1.19-1.81,0v-5.17h0Zm-6.15,9.36c0-1.19,1.81-1.19,1.81,0v5.17c0,1.19-1.81,1.19-1.81,0v-5.17h0Zm6.15,1.83c0-1.19,1.81-1.19,1.81,0v5.17c0,1.19-1.81,1.19-1.81,0v-5.17h0Zm-6.15,9.36c0-1.19,1.81-1.19,1.81,0v5.17c0,1.19-1.81,1.19-1.81,0v-5.17h0Zm6.15,1.83c0-1.19,1.81-1.19,1.81,0v5.17c0,1.19-1.81,1.19-1.81,0v-5.17h0Zm-6.15,9.36c0-1.19,1.81-1.19,1.81,0v5.17c0,1.19-1.81,1.19-1.81,0v-5.17h0Zm6.15,1.83c0-1.19,1.81-1.19,1.81,0v5.17c0,1.19-1.81,1.19-1.81,0v-5.17h0Zm-17.52-34.18c0-1.19,1.81-1.19,1.81,0v5.17c0,1.19-1.81,1.19-1.81,0v-5.17h0Zm-6.15,1.83c0-1.19,1.81-1.19,1.81,0v5.17c0,1.19-1.81,1.19-1.81,0v-5.17h0Zm6.15,9.36c0-1.19,1.81-1.19,1.81,0v5.17c0,1.19-1.81,1.19-1.81,0v-5.17h0Zm-6.15,1.83c0-1.19,1.81-1.19,1.81,0v5.17c0,1.19-1.81,1.19-1.81,0v-5.17h0Zm6.15,9.36c0-1.19,1.81-1.19,1.81,0v5.17c0,1.19-1.81,1.19-1.81,0v-5.17h0Zm-6.15,1.83c0-1.19,1.81-1.19,1.81,0v5.17c0,1.19-1.81,1.19-1.81,0v-5.17h0Zm6.15,9.36c0-1.19,1.81-1.19,1.81,0v5.17c0,1.19-1.81,1.19-1.81,0v-5.17h0Zm-6.15,1.83c0-1.19,1.81-1.19,1.81,0v5.17c0,1.19-1.81,1.19-1.81,0v-5.17h0Zm6.15,9.36c0-1.19,1.81-1.19,1.81,0v5.17c0,1.19-1.81,1.19-1.81,0v-5.17h0Zm-6.15,1.83c0-1.19,1.81-1.19,1.81,0v5.17c0,1.19-1.81,1.19-1.81,0v-5.17h0Zm43.25-38.49c-6.99,0-12.66,5.67-12.66,12.66s5.67,12.66,12.66,12.66,12.66-5.67,12.66-12.66-5.67-12.66-12.66-12.66h0Zm0,13.57c1.48,0,2.67,1.19,2.67,2.67s-1.19,2.67-2.67,2.67-2.67-1.19-2.67-2.67c0-1.19-1.81-1.19-1.81,0,0,2.13,1.5,3.96,3.57,4.38v1.32c0,1.19,1.81,1.19,1.81,0v-1.32c2.07-.43,3.57-2.26,3.57-4.38,0-2.47-2.01-4.48-4.48-4.48-1.48,0-2.67-1.19-2.67-2.67s1.19-2.67,2.67-2.67,2.67,1.19,2.67,2.67c0,.5.41.9.9.9s.9-.41.9-.9c0-2.13-1.5-3.96-3.57-4.38v-1.32c0-1.19-1.81-1.19-1.81,0v1.32c-2.07.43-3.57,2.26-3.57,4.38,0,2.47,2.01,4.48,4.48,4.48h0Z"/>
    <g>
      <g>
        <g>
          <g>
            <path class="cls-1" d="m135.59,16.4v.25s.05-.03.07-.06c-.04-.06-.06-.13-.07-.19Z"/>
            <path class="cls-1" d="m135.59,14.88c0,.91-2.45,2.2-6.44,2.2s-6.44-1.28-6.44-2.2,2.45-2.2,6.44-2.2c2.19,0,3.91.38,5.02.88.03.02.06.03.09.04.86.41,1.34.88,1.34,1.28Z"/>
          </g>
          <path class="cls-1" d="m135.66,16.59s-.05.04-.07.06v-.25c.02.06.04.13.07.19Z"/>
          <g>
            <path class="cls-1" d="m135.59,16.65v4.25c-4.27.79-8.6.75-12.88-.11v-4.14c1.41,1,3.98,1.52,6.44,1.52s5.03-.52,6.44-1.52Z"/>
            <path class="cls-1" d="m135.59,22.02v3.63c-4.27.78-8.6.74-12.88-.12v-3.63c2.24.44,4.49.65,6.75.65,2.05,0,4.09-.18,6.13-.54Z"/>
            <g>
              <path class="cls-1" d="m135.59,26.78v3.63c-4.27.78-8.6.74-12.88-.12v-3.63c2.24.44,4.5.65,6.76.65,2.05,0,4.09-.18,6.12-.54Z"/>
              <path class="cls-1" d="m135.59,31.53v2.46c0,.1-.05.19-.13.24-4.24,2.64-8.37,2.64-12.63,0-.07-.05-.13-.14-.13-.24v-2.57c2.24.44,4.49.65,6.75.65,2.05,0,4.09-.18,6.13-.54Z"/>
            </g>
          </g>
        </g>
        <g>
          <path class="cls-1" d="m148.06,5.45c0,.94-2.49,2.25-6.55,2.25s-6.55-1.31-6.55-2.25,2.49-2.25,6.55-2.25c4.06,0,6.55,1.31,6.55,2.25Z"/>
          <g>
            <path class="cls-1" d="m148.06,7.25v3.1c-4.4,2.35-8.69,2.35-13.1,0v-3.09c1.43,1.02,4.04,1.56,6.55,1.56s5.13-.54,6.55-1.56Z"/>
            <path class="cls-1" d="m148.06,11.58v3.57c-3.78,2.01-7.61,2.28-11.37.79v-1.06c0-.89-.67-1.61-1.72-2.14v-1.16c2.17,1.08,4.37,1.61,6.55,1.61,2.2,0,4.38-.54,6.55-1.61Z"/>
            <path class="cls-1" d="m148.06,16.39v3.57c-3.78,2.01-7.61,2.28-11.37.79v-3.62c1.6.59,3.21.87,4.82.87,2.19,0,4.38-.54,6.55-1.61Z"/>
          </g>
        </g>
        <g>
          <path class="cls-1" d="m150.55,26.92s-.02,0-.03,0h-.03s.02,0,.03,0h.03Z"/>
          <g>
            <path class="cls-1" d="m150.52,23.1c-3.47,0-6.3,2.82-6.3,6.3,0,.73.12,1.43.35,2.09.87,2.45,3.2,4.21,5.95,4.21,3.47,0,6.3-2.82,6.3-6.3s-2.82-6.3-6.3-6.3Zm-.95,4.92c.07.52.62.79,1.1.83.61.05,1.16.35,1.52.85s.47,1.12.33,1.73c-.18.7-.74,1.28-1.44,1.47v.23c0,.3-.25.55-.55.55s-.55-.25-.55-.55v-.23c-.26-.07-.5-.19-.71-.36-.51-.39-.8-.99-.8-1.63,0-.3.25-.55.55-.55s.55.25.55.55.14.58.37.76c.17.13.37.2.59.2h0c.09,0,.18-.01.27-.03.31-.08.58-.35.66-.67.07-.29.02-.59-.15-.82s-.43-.37-.71-.39c-1.11-.09-1.98-.81-2.11-1.78-.08-.59.1-1.19.49-1.64.27-.3.62-.52,1-.63v-.23c0-.3.25-.55.55-.55s.55.25.55.55v.23c.87.25,1.51,1.04,1.51,1.99,0,.3-.25.55-.55.55s-.55-.25-.55-.55c0-.52-.42-.94-.93-.96-.01,0-.02,0-.03,0h-.03c-.27,0-.52.12-.7.33-.19.2-.27.47-.23.76Z"/>
            <path class="cls-1" d="m148.06,21.19v1.22c-1.96.7-3.55,2.2-4.36,4.11-1.57-.01-5.37-.46-7.02-.83v-3.76c1.6.59,3.21.87,4.82.87,2.19,0,4.39-.54,6.56-1.61Z"/>
            <path class="cls-1" d="m143.35,31.18c-1.72-.04-5.12-.39-6.66-.73v-3.63c1.73.36,4.91.74,6.66.8-.14.56-.21,1.16-.21,1.77,0,.61.07,1.21.22,1.79Z"/>
          </g>
        </g>
      </g>
      <path class="cls-1" d="m145.41,34.74c-2.79.42-5.73.28-8.77-.4.03-.11.05-.23.05-.35v-2.43c1.85.37,5.37.71,7,.71h.03c.39.94.98,1.77,1.7,2.46Z"/>
    </g>
    <path class="cls-1" d="m80.26,50.09l26.66,9.86c2.46.91,6.55.91,9.01,0s2.46-2.42,0-3.33l-15.74-5.85h58.23c3.55,0,6.37-1.04,6.37-2.35s-2.82-2.35-6.37-2.35h-58.23l15.74-5.82c2.46-.91,2.46-2.42,0-3.33-1.27-.47-2.91-.71-4.55-.71s-3.28.24-4.55.71l-26.57,9.82c-1.18.44-1.91,1.04-1.91,1.68s.64,1.24,1.91,1.68h0Z"/>
    <g>
      <path class="cls-1" d="m22.9,61.6H5.8c-1.14,0-1.99-.91-1.99-1.99V24.39c0-1.08.91-1.99,1.99-1.99h17.56c.45,0,.85.4.85.85v6.65c0,1.48,1.19,2.67,2.67,2.67h6.7c.45,0,.85.4.85.85v13.81c.45-.17,1.02-.28,1.59-.28.85,0,1.59.23,2.16.57v-14.77c0-1.53-.62-3.01-1.7-4.09l-8.35-8.41c-1.08-1.08-2.56-1.7-4.09-1.7H5.8c-3.18,0-5.8,2.61-5.8,5.8v35.28c0,3.18,2.61,5.8,5.8,5.8h16.42c-.34-1.59.28-2.95.68-3.81Z"/>
      <path class="cls-1" d="m8.12,55.24c0,1.08.85,1.87,1.87,1.87h12.22c0-.11.06-.17.06-.28.57-1.82,2.16-2.67,3.07-3.12.06,0,.06-.06.11-.06,0-.06,0-.11.06-.17,0-.06,0-.11.06-.17h-15.57c-1.02.06-1.87.91-1.87,1.93Z"/>
      <path class="cls-1" d="m30.06,47.06c0-1.02-.85-1.87-1.87-1.87H10c-1.02,0-1.87.85-1.87,1.87s.85,1.87,1.87,1.87h18.12c1.08,0,1.93-.85,1.93-1.87Z"/>
      <path class="cls-1" d="m28.18,36.94H10c-1.02,0-1.87.85-1.87,1.87s.85,1.87,1.87,1.87h18.12c1.02,0,1.87-.85,1.87-1.87.06-1.02-.8-1.87-1.82-1.87Z"/>
      <path class="cls-1" d="m10,32.51h8.47c1.02,0,1.87-.85,1.87-1.87s-.85-1.87-1.87-1.87h-8.47c-1.02,0-1.87.85-1.87,1.87s.85,1.87,1.87,1.87Z"/>
      <path class="cls-1" d="m42.61,70.35c.91-.62.62-2.5,1.25-3.35s2.44-1.19,2.78-2.22-.97-2.33-.97-3.47,1.31-2.44.97-3.47c-.34-1.08-2.16-1.36-2.78-2.22-.62-.91-.34-2.73-1.25-3.35-.85-.62-2.56.17-3.58-.17s-1.87-1.99-3.01-1.99-1.99,1.65-3.01,1.99c-1.08.34-2.73-.45-3.58.17-.91.62-.62,2.5-1.25,3.35-.62.85-2.44,1.19-2.78,2.22-.34,1.02.97,2.33.97,3.47s-1.31,2.44-.97,3.47c.34,1.08,2.16,1.36,2.78,2.22.62.91.34,2.73,1.25,3.35.85.62,2.56-.17,3.58.17,1.02.34,1.87,1.99,3.01,1.99s1.99-1.65,3.01-1.99,2.67.51,3.58-.17Zm-6.82-4.89c-.28.28-.68.45-1.08.45s-.8-.17-1.08-.45l-2.5-2.5c-.57-.57-.57-1.53,0-2.16.57-.57,1.53-.57,2.16,0l1.42,1.42,3.98-3.98c.57-.57,1.53-.57,2.16,0s.57,1.53,0,2.16l-5.06,5.06Z"/>
    </g>
  </g>
</svg>