<?xml version="1.0" encoding="UTF-8"?>
<svg id="Ebene_2" data-name="Ebene 2" xmlns="http://www.w3.org/2000/svg" viewBox="0 0 72.59 72.48">
  <defs>
    <style>
      .cls-1 {
        fill: #72b62b;
        fill-rule: evenodd;
        stroke-width: 0px;
      }
    </style>
  </defs>
  <g id="Ebene_1-2" data-name="Ebene 1">
    <path class="cls-1" d="m48,9.54c-.51-.24-.74-.84-.5-1.36s.84-.74,1.36-.5c6.61,3.05,11.99,8.27,15.23,14.79.23.51,0,1.12-.51,1.35-.49.22-1.07.03-1.32-.45-3.03-6.1-8.06-10.99-14.25-13.84h0Zm-10.43,4.25v-3.11h5.49V0h-15v10.69h5.49v3.11h-3.84c-.57-.02-1.04.42-1.06.99s.42,1.04.99,1.06c.02,0,.05,0,.07,0h11.69c.57.02,1.04-.42,1.06-.99.02-.57-.42-1.04-.99-1.06-.02,0-.05,0-.07,0h-3.83Zm-9.52,42.84h15v10.69h-5.49v3.11h3.83c.57-.02,1.04.42,1.06.99s-.42,1.04-.99,1.06c-.02,0-.05,0-.07,0h-11.7c-.57.02-1.04-.42-1.06-.99s.42-1.04.99-1.06c.02,0,.05,0,.07,0h3.83v-3.11h-5.49v-10.69h0ZM0,29.21h15v10.69h-5.49v3.11h3.83c.57.02,1.01.5.99,1.06-.02.54-.45.97-.99.99H1.65c-.57-.02-1.01-.5-.99-1.06.02-.54.45-.97.99-.99h3.83v-3.11H0v-10.69h0Zm57.58,0h15v10.69h-5.49v3.11h3.83c.57.02,1.01.5.99,1.06-.02.54-.45.97-.99.99h-11.7c-.57-.02-1.01-.5-.99-1.06.02-.54.45-.97.99-.99h3.84v-3.11h-5.49v-10.69h0Zm-17.4-8.12c1.22.99,2.25,2.2,3.02,3.57.52.89.96,1.82,1.32,2.78h4.41c-2.11-3.05-5.2-5.29-8.75-6.35h0Zm9.96,8.4c.94,1.91,1.5,4,1.63,6.13h-5.66c-.07-2.07-.38-4.13-.92-6.13h4.96Zm1.63,8.18c-.13,2.14-.69,4.24-1.65,6.16h-4.94c.55-2.01.86-4.08.92-6.16h5.66Zm-2.86,8.21c-2.11,3.04-5.19,5.27-8.73,6.32,1.22-.99,2.24-2.2,3.02-3.57.51-.88.95-1.8,1.31-2.75h4.4Zm-17.91,6.31c-3.54-1.05-6.62-3.28-8.73-6.31h4.39c.36.95.8,1.87,1.31,2.75.78,1.37,1.8,2.58,3.02,3.57h0Zm-9.94-8.36c-.95-1.92-1.51-4.02-1.64-6.16h5.65c.07,2.08.37,4.15.92,6.16h-4.93Zm-1.64-8.21c.13-2.13.68-4.21,1.63-6.13h4.94c-.55,2-.86,4.05-.92,6.13h-5.65Zm2.83-8.18c2.11-3.05,5.2-5.29,8.75-6.35-1.22.99-2.25,2.2-3.02,3.57-.52.89-.96,1.82-1.32,2.78h-4.41Zm19.19-1.75c.33.56.62,1.15.88,1.75h-5.7v-5.87c2.1.66,3.85,2.15,4.82,4.13Zm-6.87-4.13c-2.1.66-3.85,2.15-4.82,4.13-.33.56-.62,1.15-.88,1.75h5.71v-5.87h0Zm-6.46,7.92c-.59,1.99-.93,4.05-.99,6.13h7.45v-6.12h-6.46Zm8.5,6.13h7.45c-.07-2.08-.4-4.13-1-6.13h-6.45v6.13h0Zm-9.5,2.05c.07,2.09.41,4.16,1.01,6.16h6.44v-6.15h-7.45Zm9.5,6.16h6.44c.6-2,.94-4.07,1.01-6.16h-7.45v6.16h0Zm-7.74,2.06c.25.59.54,1.16.87,1.72.98,1.98,2.72,3.47,4.83,4.12v-5.84h-5.69Zm7.74,5.84c2.1-.66,3.85-2.15,4.82-4.12.32-.55.61-1.13.87-1.72h-5.69v5.84Zm25.93-2.47c-3.01,6.42-8.2,11.56-14.65,14.51-.51.23-.74.84-.5,1.35s.84.74,1.35.5c6.89-3.15,12.44-8.64,15.65-15.5.24-.51.02-1.12-.49-1.36s-1.12-.02-1.36.49Zm-39.55,14.41c-6.29-2.93-11.37-7.97-14.36-14.23-.22-.52-.82-.76-1.34-.54-.52.22-.76.82-.54,1.34.01.02.02.05.04.07,3.2,6.7,8.63,12.07,15.35,15.21.51.24,1.12.01,1.36-.5s.01-1.12-.5-1.36h0ZM8.7,23.68c3.02-6.25,8.13-11.26,14.44-14.16.51-.24.73-.85.49-1.36-.24-.5-.83-.72-1.34-.5-6.74,3.1-12.2,8.45-15.44,15.13-.23.52,0,1.12.52,1.35.49.22,1.07.02,1.32-.46h0Z"/>
  </g>
</svg>