<?xml version="1.0" encoding="UTF-8"?>
<svg id="Ebene_2" data-name="Ebene 2" xmlns="http://www.w3.org/2000/svg" viewBox="0 0 72.64 71.84">
  <defs>
    <style>
      .cls-1 {
        fill: #72b62b;
        stroke-width: 0px;
      }
    </style>
  </defs>
  <g id="Ebene_1-2" data-name="Ebene 1">
    <g>
      <path class="cls-1" d="m42.67,23.67c-.64-.37-1.47-.18-1.84.46l-6.26,10.87-4.05-7.09c-.37-.64-1.2-.92-1.84-.46-.64.37-.92,1.2-.46,1.84l4.88,8.47-5.07,8.47c-.37.64-.18,1.47.46,1.84.18.09.46.18.64.18.46,0,.92-.28,1.2-.74l4.05-7.09,2.3,4.05c.28.46.74.74,1.2.74.28,0,.46-.09.64-.18.64-.37.92-1.2.46-1.84l-3.13-5.43,7.09-12.25c.64-.64.46-1.47-.28-1.84Z"/>
      <g>
        <path class="cls-1" d="m61.18,54.07l5.25-3.96c2.12-1.57,2.95-4.33,2.21-6.82l-1.93-6.36c-.18-.64-.18-1.38,0-2.03l1.93-6.36c.74-2.49-.09-5.25-2.21-6.82l-5.25-3.96c-.55-.46-.92-1.01-1.2-1.66l-2.21-6.26c-.83-2.49-3.13-4.14-5.8-4.24l-6.54-.09c-.74,0-1.38-.18-1.93-.64l-5.43-3.78c-2.12-1.47-5.07-1.47-7.18,0l-5.43,3.78c-.55.37-1.2.64-1.93.64l-6.63.09c-2.58.09-4.88,1.75-5.8,4.24l-2.21,6.26c-.18.64-.64,1.2-1.2,1.66l-5.25,3.96c-2.03,1.57-2.95,4.33-2.12,6.82l1.93,6.36c.18.64.18,1.38,0,2.03l-1.93,6.36c-.74,2.49.09,5.25,2.21,6.82l5.25,3.96c.55.46.92,1.01,1.2,1.66l2.21,6.26c.83,2.49,3.13,4.14,5.8,4.24l6.63.09c.74,0,1.38.18,1.93.64l5.43,3.78c1.01.74,2.3,1.11,3.59,1.11s2.49-.37,3.59-1.11l5.43-3.78c.55-.37,1.2-.64,1.93-.64l6.63-.09c2.58-.09,4.88-1.75,5.8-4.24l2.21-6.26c0-.64.46-1.2,1.01-1.66Zm-1.66-2.21c-1.01.74-1.75,1.75-2.12,2.95l-2.21,6.26c-.46,1.38-1.75,2.3-3.22,2.3l-6.63.18c-1.2,0-2.39.37-3.41,1.11l-5.43,3.78c-1.2.83-2.76.83-3.96,0l-5.43-3.78c-1.01-.74-2.21-1.11-3.41-1.11l-6.72-.18c-1.47,0-2.76-1.01-3.22-2.3l-2.21-6.26c-.37-1.2-1.11-2.21-2.12-2.95l-5.25-3.96c-1.2-.92-1.66-2.39-1.2-3.78l1.93-6.36c.37-1.2.37-2.49,0-3.59l-1.93-6.36c-.46-1.38.09-2.95,1.2-3.78l5.25-3.96c1.01-.74,1.75-1.75,2.12-2.95l2.21-6.26c.46-1.38,1.75-2.3,3.22-2.3l6.63-.09c1.2,0,2.39-.37,3.41-1.11l5.43-3.78c.55-.37,1.29-.64,2.03-.64s1.38.18,2.03.64l5.43,3.78c1.01.74,2.21,1.11,3.41,1.11l6.63.09c1.47,0,2.76,1.01,3.22,2.3l2.21,6.26c.37,1.2,1.11,2.21,2.12,2.95l5.25,3.96c1.2.92,1.66,2.39,1.2,3.78l-1.84,6.26c-.37,1.2-.37,2.49,0,3.59l1.93,6.36c.46,1.38-.09,2.95-1.2,3.78l-5.34,4.05Z"/>
        <path class="cls-1" d="m28.49,11.7h.28c.83-.18,1.66-.37,2.58-.46.74-.09,1.29-.83,1.2-1.57-.09-.74-.83-1.29-1.57-1.2-.92.09-1.93.28-2.86.46-.74.18-1.2.92-1.01,1.66s.74,1.11,1.38,1.11Z"/>
        <path class="cls-1" d="m23.24,58.12c-.74-.37-1.57-.83-2.21-1.29-.64-.37-1.47-.28-1.93.37-.46.64-.28,1.47.37,1.93.83.55,1.66,1.01,2.49,1.47.18.09.46.18.64.18.46,0,1.01-.28,1.2-.74.37-.74.09-1.57-.55-1.93Z"/>
        <path class="cls-1" d="m20.11,15.29c.28,0,.55-.09.74-.18.74-.46,1.47-.92,2.21-1.29.64-.37.92-1.2.55-1.84s-1.2-.92-1.84-.55c-.83.46-1.66.92-2.49,1.47-.64.46-.83,1.29-.37,1.93.28.28.74.46,1.2.46Z"/>
        <path class="cls-1" d="m31.43,60.6c-.83-.09-1.75-.28-2.58-.46-.74-.18-1.47.28-1.66,1.01-.18.74.28,1.47,1.01,1.66.92.18,1.93.37,2.86.46h.18c.64,0,1.29-.55,1.38-1.2s-.37-1.38-1.2-1.47Z"/>
        <path class="cls-1" d="m10.71,43.2c-.18-.74-1.01-1.11-1.75-.92s-1.11,1.01-.92,1.75c.28.92.64,1.84,1.01,2.67.18.55.74.83,1.29.83.18,0,.37,0,.55-.09.74-.28,1.01-1.11.74-1.84-.37-.74-.64-1.57-.92-2.39Z"/>
        <path class="cls-1" d="m8.96,29.66c.09,0,.28.09.37.09.55,0,1.11-.37,1.29-1.01.28-.83.55-1.66.92-2.49.28-.74,0-1.47-.74-1.84-.74-.28-1.47,0-1.84.74-.37.92-.74,1.84-1.01,2.76-.18.74.28,1.47,1.01,1.75Z"/>
        <path class="cls-1" d="m37.42,11.24c.83.09,1.75.28,2.58.46h.28c.64,0,1.2-.46,1.38-1.11.18-.74-.28-1.47-1.01-1.66-.92-.18-1.93-.37-2.86-.46-.74-.09-1.47.46-1.57,1.2s.46,1.47,1.2,1.57Z"/>
        <path class="cls-1" d="m14.67,50.93c-.46-.64-1.38-.74-1.93-.28-.64.46-.74,1.29-.28,1.93.55.74,1.2,1.47,1.84,2.21.28.28.64.46,1.01.46s.64-.09.92-.37c.55-.55.55-1.38.09-1.93-.64-.64-1.2-1.38-1.66-2.03Z"/>
        <path class="cls-1" d="m12.65,21.28c.28.18.55.28.83.28.46,0,.83-.18,1.11-.55.55-.64,1.11-1.38,1.66-2.03.55-.55.46-1.47-.09-1.93-.55-.55-1.47-.46-1.93.09-.64.74-1.29,1.47-1.84,2.21-.46.64-.37,1.47.28,1.93Z"/>
        <path class="cls-1" d="m8.32,38.68c.74,0,1.38-.74,1.29-1.47v-2.49c0-.74-.55-1.38-1.29-1.47-.74,0-1.38.55-1.47,1.29v2.86l1.38-.09-1.38.09c.09.74.64,1.29,1.47,1.29h0Z"/>
        <path class="cls-1" d="m58.24,28.55c.18.55.74,1.01,1.29,1.01.09,0,.28,0,.37-.09.74-.18,1.11-1.01.92-1.75-.28-.92-.64-1.84-1.01-2.67-.28-.74-1.11-1.01-1.84-.74s-1.01,1.11-.74,1.84c.46.74.74,1.57,1.01,2.39Z"/>
        <path class="cls-1" d="m40.09,60.14c-.83.18-1.66.37-2.58.46-.74.09-1.29.74-1.2,1.57.09.74.64,1.2,1.38,1.2h.18c.92-.09,1.93-.28,2.86-.46.74-.18,1.2-.92,1.01-1.66-.18-.83-.92-1.29-1.66-1.11Z"/>
        <path class="cls-1" d="m62.11,34.35c0-.74-.64-1.38-1.47-1.29-.74,0-1.38.74-1.29,1.47v2.67c0,.74.55,1.38,1.29,1.47h.09c.74,0,1.38-.55,1.38-1.29v-3.04Z"/>
        <path class="cls-1" d="m56.3,50.57c-.64-.46-1.47-.37-1.93.28-.55.74-1.11,1.38-1.66,2.03-.55.55-.46,1.47.09,1.93.28.28.64.37.92.37.37,0,.74-.18,1.01-.46.64-.74,1.29-1.47,1.84-2.21.46-.55.28-1.47-.28-1.93Z"/>
        <path class="cls-1" d="m59.99,42.28c-.74-.18-1.47.18-1.75.92-.28.83-.55,1.66-.92,2.49-.28.74,0,1.47.74,1.84.18.09.37.09.55.09.55,0,1.01-.28,1.29-.83.37-.92.74-1.84,1.01-2.76.18-.74-.18-1.57-.92-1.75Z"/>
        <path class="cls-1" d="m45.71,13.72c.74.37,1.57.83,2.3,1.29.28.18.46.18.74.18.46,0,.92-.18,1.2-.64.46-.64.18-1.47-.37-1.93-.83-.55-1.66-1.01-2.49-1.47-.64-.37-1.47-.09-1.84.64-.55.74-.28,1.57.46,1.93Z"/>
        <path class="cls-1" d="m54.28,20.91c.28.37.64.55,1.11.55.28,0,.55-.09.83-.28.64-.46.74-1.29.28-1.93-.55-.74-1.2-1.47-1.84-2.21-.55-.55-1.38-.55-1.93-.09-.55.55-.55,1.38-.09,1.93.55.64,1.11,1.29,1.66,2.03Z"/>
        <path class="cls-1" d="m48.01,56.74c-.74.46-1.47.92-2.21,1.29-.64.37-.92,1.2-.64,1.84.28.46.74.74,1.2.74.18,0,.46-.09.64-.18.83-.46,1.66-.92,2.49-1.47.64-.46.83-1.29.37-1.93-.37-.46-1.2-.64-1.84-.28Z"/>
        <path class="cls-1" d="m70.86,53.79c-.74-.55-1.66-.83-2.58-.83-2.03,0-4.24,1.29-5.8,3.32-2.3,3.13-2.21,7,.18,8.75.74.55,1.66.83,2.58.83,2.03,0,4.24-1.29,5.8-3.32,2.21-3.22,2.12-7-.18-8.75Zm-2.12,7.09c-1.01,1.38-2.39,2.21-3.59,2.21-.37,0-.64-.09-.92-.28-.92-.74-1.01-2.86.46-4.88,1.01-1.38,2.39-2.21,3.59-2.21.37,0,.64.09.92.28.92.74,1.01,2.86-.46,4.88Z"/>
      </g>
    </g>
  </g>
</svg>