<?xml version="1.0" encoding="UTF-8"?>
<svg id="Ebene_2" data-name="Ebene 2" xmlns="http://www.w3.org/2000/svg" viewBox="0 0 126.65 83.01">
  <defs>
    <style>
      .cls-1, .cls-2 {
        fill: #72b62b;
        stroke-width: 0px;
      }

      .cls-2 {
        fill-rule: evenodd;
      }
    </style>
  </defs>
  <g id="Ebene_1-2" data-name="Ebene 1">
    <path class="cls-2" d="m57.85,75.15v-12.9h28c1.34,0,2.62-.53,3.56-1.48.95-.94,1.48-2.23,1.48-3.56V5.04c0-1.34-.53-2.62-1.48-3.56-.94-.94-2.23-1.48-3.56-1.48H5.04c-1.34,0-2.62.53-3.56,1.48-.95.95-1.48,2.23-1.48,3.56v52.18c0,1.34.53,2.62,1.48,3.56.94.95,2.23,1.48,3.56,1.48h28v12.9h-6.49c-.86,0-1.57.7-1.57,1.57s.71,1.57,1.57,1.57h37.79c.87,0,1.57-.7,1.57-1.57s-.7-1.57-1.57-1.57h-6.49Zm-21.67,0h18.54v-12.9h-18.54v12.9Zm51.58-23.98v6.04c0,.5-.2.99-.56,1.34-.36.36-.84.56-1.35.56H5.04c-.5,0-.99-.2-1.35-.56-.36-.36-.56-.84-.56-1.34v-6.04h84.62Zm0-3.13H3.13V5.04c0-.5.2-.99.56-1.35.36-.36.84-.56,1.35-.56h80.81c.51,0,.99.2,1.35.56.36.36.56.84.56,1.35v43Z"/>
    <path class="cls-1" d="m100.5,31.86c-2.23,0-4.07,1.83-4.07,4.07v43.01c0,2.23,1.83,4.07,4.07,4.07h22.09c2.23,0,4.07-1.83,4.07-4.07v-43.01c0-2.23-1.83-4.07-4.07-4.07h-22.09Zm0,2.32h22.09c.99,0,1.74.76,1.74,1.74v1.74h-25.57v-1.74c0-.99.76-1.74,1.74-1.74Zm-1.74,5.81h25.57v32.55h-25.57v-32.55Zm0,34.87h25.57v4.07c0,.99-.76,1.74-1.74,1.74h-22.09c-.99,0-1.74-.76-1.74-1.74v-4.07Zm8.72,1.74c-.64,0-1.16.52-1.16,1.16s.52,1.16,1.16,1.16h8.14c.64,0,1.16-.52,1.16-1.16s-.52-1.16-1.16-1.16h-8.14Z"/>
  </g>
</svg>