<?xml version="1.0" encoding="UTF-8"?>
<svg id="Ebene_2" data-name="Ebene 2" xmlns="http://www.w3.org/2000/svg" viewBox="0 0 65.72 77.89">
  <defs>
    <style>
      .cls-1 {
        fill: #72b62b;
        stroke-width: 0px;
      }
    </style>
  </defs>
  <g id="Ebene_1-2" data-name="Ebene 1">
    <g>
      <path class="cls-1" d="m65.46,12.35l-2.4-8.02C62.3,1.75,59.92-.01,57.23,0H8.38C5.76,0,3.43,1.67,2.6,4.16L.31,11.04C.1,11.66,0,12.31,0,12.96v13.81c0,.98.4,1.92,1.1,2.6l-.78,2.33C.11,32.34,0,32.99,0,33.65v15.03c0,1.12.53,2.18,1.42,2.87l-1.1,3.29C.11,55.46,0,56.11,0,56.77v13.81c0,2.02,1.64,3.65,3.65,3.65h58.42c2.02,0,3.65-1.64,3.65-3.65v-12.67c0-.59-.09-1.18-.26-1.75l-1.34-4.47c1-.68,1.6-1.81,1.6-3.02v-13.89c0-.59-.09-1.18-.26-1.75l-1.04-3.5c.82-.69,1.3-1.7,1.3-2.77v-12.67c0-.59-.09-1.18-.26-1.75ZM3.65,27.99c-.67,0-1.22-.55-1.22-1.22v-12.17c0-.67.55-1.22,1.22-1.22h58.42c.67,0,1.22.55,1.22,1.22v12.17c0,.67-.55,1.22-1.22,1.22H3.65Zm1.26-23.06c.5-1.49,1.89-2.5,3.46-2.5h48.85c1.61,0,3.04,1.05,3.5,2.6l1.79,5.96c-.15-.02-.3-.04-.45-.05H3.65c-.26,0-.52.03-.78.09l2.04-6.11Zm56.86,47.4l.74,2.48c-.15-.02-.3-.04-.44-.04H3.65c-.26,0-.52.03-.77.09l.84-2.52h58.05Zm1.52-15.82v12.17c0,.67-.55,1.22-1.22,1.22H3.65c-.67,0-1.22-.55-1.22-1.22v-12.17c0-.67.55-1.22,1.22-1.22h58.42c.67,0,1.22.55,1.22,1.22Zm0,34.08c0,.67-.55,1.22-1.22,1.22H3.65c-.67,0-1.22-.55-1.22-1.22v-12.17c0-.67.55-1.22,1.22-1.22h58.42c.67,0,1.22.55,1.22,1.22v12.17Zm-.39-37.62c-.27-.07-.55-.1-.83-.1H3.65c-.4,0-.79.08-1.17.21.03-.2.08-.39.14-.58l.7-2.1c.11,0,.21.03.33.03h58.42s.05,0,.07,0l.76,2.54Z"/>
      <path class="cls-1" d="m8.52,17.04c-2.02,0-3.65,1.63-3.65,3.65s1.63,3.65,3.65,3.65,3.65-1.63,3.65-3.65c0-2.02-1.64-3.65-3.65-3.65Zm0,4.87c-.67,0-1.22-.54-1.22-1.22s.54-1.22,1.22-1.22,1.22.54,1.22,1.22c0,.67-.55,1.22-1.22,1.22Z"/>
      <path class="cls-1" d="m14.6,17.04c-.67,0-1.22.54-1.22,1.22h0v4.87c0,.67.54,1.22,1.22,1.22s1.22-.54,1.22-1.22v-4.87c0-.67-.54-1.22-1.22-1.22h0Z"/>
      <path class="cls-1" d="m18.26,17.04c-.67,0-1.22.54-1.22,1.22h0v4.87c0,.67.54,1.22,1.22,1.22s1.22-.54,1.22-1.22v-4.87c0-.67-.54-1.22-1.22-1.22h0Z"/>
      <path class="cls-1" d="m38.94,17.04h-1.22c-.67,0-1.22.54-1.22,1.22s.54,1.22,1.22,1.22h1.22c.67,0,1.22-.54,1.22-1.22s-.54-1.22-1.22-1.22Z"/>
      <path class="cls-1" d="m38.94,21.91h-1.22c-.67,0-1.22.54-1.22,1.22s.54,1.22,1.22,1.22h1.22c.67,0,1.22-.54,1.22-1.22s-.54-1.22-1.22-1.22Z"/>
      <path class="cls-1" d="m43.81,19.47h-1.22c-.67,0-1.22.54-1.22,1.22s.54,1.22,1.22,1.22h1.22c.67,0,1.22-.54,1.22-1.22s-.54-1.22-1.22-1.22Z"/>
      <path class="cls-1" d="m48.68,17.04h-1.22c-.67,0-1.22.54-1.22,1.22s.54,1.22,1.22,1.22h1.22c.67,0,1.22-.54,1.22-1.22s-.54-1.22-1.22-1.22Z"/>
      <path class="cls-1" d="m48.68,21.91h-1.22c-.67,0-1.22.54-1.22,1.22s.54,1.22,1.22,1.22h1.22c.67,0,1.22-.54,1.22-1.22s-.54-1.22-1.22-1.22Z"/>
      <path class="cls-1" d="m53.55,19.47h-1.22c-.67,0-1.22.54-1.22,1.22s.54,1.22,1.22,1.22h1.22c.67,0,1.22-.54,1.22-1.22s-.54-1.22-1.22-1.22Z"/>
      <path class="cls-1" d="m58.42,17.04h-1.22c-.67,0-1.22.54-1.22,1.22s.54,1.22,1.22,1.22h1.22c.67,0,1.22-.54,1.22-1.22s-.54-1.22-1.22-1.22Z"/>
      <path class="cls-1" d="m58.42,21.91h-1.22c-.67,0-1.22.54-1.22,1.22s.54,1.22,1.22,1.22h1.22c.67,0,1.22-.54,1.22-1.22s-.54-1.22-1.22-1.22Z"/>
      <path class="cls-1" d="m7.3,38.94c-2.02,0-3.65,1.63-3.65,3.65s1.63,3.65,3.65,3.65,3.65-1.63,3.65-3.65c0-2.02-1.64-3.65-3.65-3.65Zm0,4.87c-.67,0-1.22-.54-1.22-1.22s.54-1.22,1.22-1.22,1.22.54,1.22,1.22c0,.67-.55,1.22-1.22,1.22Z"/>
      <path class="cls-1" d="m13.39,38.94c-.67,0-1.22.54-1.22,1.22h0v4.87c0,.67.54,1.22,1.22,1.22s1.22-.54,1.22-1.22v-4.87c0-.67-.54-1.22-1.22-1.22h0Z"/>
      <path class="cls-1" d="m17.04,38.94c-.67,0-1.22.54-1.22,1.22h0v4.87c0,.67.54,1.22,1.22,1.22s1.22-.54,1.22-1.22v-4.87c0-.67-.54-1.22-1.22-1.22h0Z"/>
      <path class="cls-1" d="m37.73,41.38c.67,0,1.22-.54,1.22-1.22s-.54-1.22-1.22-1.22h-1.22c-.67,0-1.22.54-1.22,1.22s.54,1.22,1.22,1.22h1.22Z"/>
      <path class="cls-1" d="m38.94,43.81h-1.22c-.67,0-1.22.54-1.22,1.22s.54,1.22,1.22,1.22h1.22c.67,0,1.22-.54,1.22-1.22s-.54-1.22-1.22-1.22Z"/>
      <path class="cls-1" d="m43.81,41.38h-1.22c-.67,0-1.22.54-1.22,1.22s.54,1.22,1.22,1.22h1.22c.67,0,1.22-.54,1.22-1.22s-.54-1.22-1.22-1.22Z"/>
      <path class="cls-1" d="m47.46,41.38c.67,0,1.22-.54,1.22-1.22s-.54-1.22-1.22-1.22h-1.22c-.67,0-1.22.54-1.22,1.22s.54,1.22,1.22,1.22h1.22Z"/>
      <path class="cls-1" d="m48.68,43.81h-1.22c-.67,0-1.22.54-1.22,1.22s.54,1.22,1.22,1.22h1.22c.67,0,1.22-.54,1.22-1.22s-.54-1.22-1.22-1.22Z"/>
      <path class="cls-1" d="m53.55,41.38h-1.22c-.67,0-1.22.54-1.22,1.22s.54,1.22,1.22,1.22h1.22c.67,0,1.22-.54,1.22-1.22s-.54-1.22-1.22-1.22Z"/>
      <path class="cls-1" d="m57.2,41.38c.67,0,1.22-.54,1.22-1.22s-.54-1.22-1.22-1.22h-1.22c-.67,0-1.22.54-1.22,1.22s.54,1.22,1.22,1.22h1.22Z"/>
      <path class="cls-1" d="m58.42,43.81h-1.22c-.67,0-1.22.54-1.22,1.22s.54,1.22,1.22,1.22h1.22c.67,0,1.22-.54,1.22-1.22s-.54-1.22-1.22-1.22Z"/>
      <path class="cls-1" d="m7.3,60.85c-2.02,0-3.65,1.63-3.65,3.65s1.63,3.65,3.65,3.65,3.65-1.63,3.65-3.65c0-2.02-1.64-3.65-3.65-3.65Zm0,4.87c-.67,0-1.22-.54-1.22-1.22s.54-1.22,1.22-1.22,1.22.54,1.22,1.22c0,.67-.55,1.22-1.22,1.22Z"/>
      <path class="cls-1" d="m13.39,60.85c-.67,0-1.22.54-1.22,1.22h0v4.87c0,.67.54,1.22,1.22,1.22s1.22-.54,1.22-1.22v-4.87c0-.67-.54-1.22-1.22-1.22h0Z"/>
      <path class="cls-1" d="m17.04,60.85c-.67,0-1.22.54-1.22,1.22h0v4.87c0,.67.54,1.22,1.22,1.22s1.22-.54,1.22-1.22v-4.87c0-.67-.54-1.22-1.22-1.22h0Z"/>
      <path class="cls-1" d="m38.94,60.85h-1.22c-.67,0-1.22.54-1.22,1.22s.54,1.22,1.22,1.22h1.22c.67,0,1.22-.54,1.22-1.22s-.54-1.22-1.22-1.22Z"/>
      <path class="cls-1" d="m38.94,65.72h-1.22c-.67,0-1.22.54-1.22,1.22s.54,1.22,1.22,1.22h1.22c.67,0,1.22-.54,1.22-1.22s-.54-1.22-1.22-1.22Z"/>
      <path class="cls-1" d="m43.81,63.28h-1.22c-.67,0-1.22.54-1.22,1.22s.54,1.22,1.22,1.22h1.22c.67,0,1.22-.54,1.22-1.22s-.54-1.22-1.22-1.22Z"/>
      <path class="cls-1" d="m48.68,60.85h-1.22c-.67,0-1.22.54-1.22,1.22s.54,1.22,1.22,1.22h1.22c.67,0,1.22-.54,1.22-1.22s-.54-1.22-1.22-1.22Z"/>
      <path class="cls-1" d="m48.68,65.72h-1.22c-.67,0-1.22.54-1.22,1.22s.54,1.22,1.22,1.22h1.22c.67,0,1.22-.54,1.22-1.22s-.54-1.22-1.22-1.22Z"/>
      <path class="cls-1" d="m53.55,63.28h-1.22c-.67,0-1.22.54-1.22,1.22s.54,1.22,1.22,1.22h1.22c.67,0,1.22-.54,1.22-1.22s-.54-1.22-1.22-1.22Z"/>
      <path class="cls-1" d="m58.42,60.85h-1.22c-.67,0-1.22.54-1.22,1.22s.54,1.22,1.22,1.22h1.22c.67,0,1.22-.54,1.22-1.22s-.54-1.22-1.22-1.22Z"/>
      <path class="cls-1" d="m58.42,65.72h-1.22c-.67,0-1.22.54-1.22,1.22s.54,1.22,1.22,1.22h1.22c.67,0,1.22-.54,1.22-1.22s-.54-1.22-1.22-1.22Z"/>
      <path class="cls-1" d="m9.74,75.45h-3.65c-.67,0-1.22.54-1.22,1.22s.54,1.22,1.22,1.22h3.65c.67,0,1.22-.54,1.22-1.22s-.54-1.22-1.22-1.22Z"/>
      <path class="cls-1" d="m59.63,75.45h-3.65c-.67,0-1.22.54-1.22,1.22s.54,1.22,1.22,1.22h3.65c.67,0,1.22-.54,1.22-1.22s-.54-1.22-1.22-1.22Z"/>
    </g>
  </g>
</svg>