<?xml version="1.0" encoding="UTF-8"?>
<svg id="Ebene_2" data-name="Ebene 2" xmlns="http://www.w3.org/2000/svg" viewBox="0 0 71.19 68.9">
  <defs>
    <style>
      .cls-1 {
        fill: #72b62b;
        stroke-width: 0px;
      }
    </style>
  </defs>
  <g id="Ebene_1-2" data-name="Ebene 1">
    <g>
      <path class="cls-1" d="m40.25,12.17c-3.41-3.41-7.93-5.28-12.75-5.28s-9.34,1.88-12.75,5.28c-7.03,7.03-7.03,18.47,0,25.5,3.41,3.41,7.93,5.28,12.75,5.28s9.34-1.88,12.75-5.28,5.28-7.93,5.28-12.75-1.88-9.34-5.28-12.75Zm-24.05,1.45c3.02-3.02,7.03-4.68,11.3-4.68s8.28,1.66,11.3,4.68c2.38,2.38,3.92,5.38,4.46,8.64l-5.6,5.47c-.53-.3-1.14-.47-1.79-.47-1.27,0-2.39.65-3.04,1.63l-8.23-2.58s0-.05,0-.07c0-2.02-1.64-3.66-3.66-3.66s-3.66,1.64-3.66,3.66c0,.66.18,1.28.48,1.81l-4.32,4.47c-3.28-6.06-2.36-13.8,2.75-18.91Zm21.27,17.3c0,.89-.72,1.61-1.61,1.61s-1.61-.72-1.61-1.61.72-1.61,1.61-1.61,1.61.72,1.61,1.61Zm-14.93-4.68c0,.89-.72,1.61-1.61,1.61s-1.61-.72-1.61-1.61.72-1.61,1.61-1.61c.89,0,1.61.72,1.61,1.61Zm16.25,9.98c-3.02,3.02-7.03,4.68-11.3,4.68s-8.28-1.66-11.3-4.68c-.6-.6-1.14-1.24-1.62-1.9l4.67-4.84c.51.27,1.09.42,1.7.42,1.27,0,2.39-.65,3.04-1.63l8.23,2.58s0,.05,0,.07c0,2.02,1.64,3.66,3.66,3.66s3.66-1.64,3.66-3.66c0-.62-.16-1.21-.43-1.72l4.38-4.28c0,4.27-1.66,8.28-4.68,11.3Z"/>
      <path class="cls-1" d="m18.41,14.45l1.35,1.55c3.18-2.77,7.65-3.62,11.65-2.23l.68-1.94c-4.7-1.64-9.94-.63-13.68,2.62Z"/>
      <path class="cls-1" d="m34.72,13.08l-1.07,1.75c.54.33,1.07.71,1.55,1.13l1.34-1.56c-.57-.49-1.18-.94-1.82-1.32Z"/>
      <path class="cls-1" d="m29.96,36.48c-2.31.49-4.69.28-6.87-.59l-.76,1.91c1.65.66,3.4,1,5.16,1,.96,0,1.93-.1,2.89-.3l-.42-2.01Z"/>
      <path class="cls-1" d="m53.23,41.42l-1.49,1.49-3.7-3.95c4.38-6.4,5.43-14.41,3.16-21.58l2.93-2.87c.52.28,1.11.44,1.73.44,2.02,0,3.66-1.64,3.66-3.66,0-.6-.14-1.16-.4-1.66l6.3-6.16v3.18h2.05V0h-6.65v2.05h3.11l-6.22,6.08c-.54-.32-1.18-.5-1.85-.5-2.02,0-3.66,1.64-3.66,3.66,0,.65.17,1.25.46,1.78l-2.25,2.2c-1.21-2.88-2.99-5.58-5.33-7.93C35.39-2.36,19.61-2.36,9.92,7.34,1.28,15.98.34,29.44,7.09,39.13l-1.73,1.79c-.51-.27-1.09-.42-1.7-.42-2.02,0-3.66,1.64-3.66,3.66s1.64,3.66,3.66,3.66,3.66-1.64,3.66-3.66c0-.66-.18-1.28-.48-1.81l1.51-1.57c.49.59,1.01,1.17,1.57,1.73,4.85,4.85,11.22,7.27,17.59,7.27,4.89,0,9.78-1.43,13.98-4.29l3.71,3.96-1.54,1.54,17.96,17.9,9.58-9.58-17.96-17.9Zm2.64-31.74c.89,0,1.61.72,1.61,1.61s-.72,1.61-1.61,1.61-1.61-.72-1.61-1.61.72-1.61,1.61-1.61ZM3.66,45.77c-.89,0-1.61-.72-1.61-1.61s.72-1.61,1.61-1.61,1.61.72,1.61,1.61c0,.89-.72,1.61-1.61,1.61Zm7.71-4.71c-8.9-8.9-8.9-23.37,0-32.27,4.45-4.45,10.29-6.67,16.13-6.67s11.69,2.22,16.13,6.67c8.9,8.9,8.9,23.37,0,32.27-8.9,8.9-23.37,8.9-32.27,0Zm31.77,3.21c.67-.54,1.32-1.13,1.95-1.75.6-.6,1.17-1.23,1.7-1.88l3.49,3.74-3.64,3.64-3.5-3.74Zm18.46,21.73l-15.05-15,6.67-6.67,15.05,15-6.67,6.67Z"/>
      <polygon class="cls-1" points="53.23 47.31 50.29 50.24 51.74 51.7 53.23 50.21 58.9 55.88 60.35 54.43 53.23 47.31"/>
      <rect class="cls-1" x="61.12" y="56.59" width="2.05" height="2.15" transform="translate(-22.58 60.83) rotate(-45)"/>
      <rect class="cls-1" x="11.13" y="50.84" width="2.05" height="2.24"/>
      <rect class="cls-1" x="11.13" y="63.38" width="2.05" height="2.24"/>
      <rect class="cls-1" x="28.04" y="55.15" width="2.05" height="2.24"/>
      <rect class="cls-1" x="57.47" y="36.68" width="2.05" height="2.24"/>
      <rect class="cls-1" x="59.8" y="18.86" width="2.05" height="2.24"/>
      <rect class="cls-1" x="66.61" y="28.3" width="2.05" height="2.24"/>
    </g>
  </g>
</svg>