<?xml version="1.0" encoding="UTF-8"?>
<svg id="Ebene_2" data-name="Ebene 2" xmlns="http://www.w3.org/2000/svg" viewBox="0 0 73.89 58.3">
  <defs>
    <style>
      .cls-1 {
        fill: #72b62b;
        stroke-width: 0px;
      }
    </style>
  </defs>
  <g id="Ebene_1-2" data-name="Ebene 1">
    <path class="cls-1" d="m73.68,14.95c-1.03-2.67-5.37-3.52-12.87-2.54-.63-.89-1.3-1.75-2.03-2.57C53.61,4,46.49.53,38.72.06c-7.76-.48-15.26,2.11-21.09,7.27s-9.3,12.28-9.77,20.05c-.03.58-.05,1.15-.05,1.73,0,.01,0,.03,0,.04,0,.02,0,.04,0,.06,0,1.21.08,2.42.22,3.6C1.82,37.14-.81,40.69.22,43.36c.79,2.05,3.6,2.94,7.68,2.94,1.56,0,3.31-.13,5.21-.38.62.88,1.29,1.74,2.02,2.56,5.16,5.83,12.28,9.3,20.05,9.77.59.03,1.18.05,1.77.06h.04c7.12,0,13.9-2.57,19.28-7.32,5.83-5.16,9.3-12.28,9.77-20.05.11-1.83.05-3.64-.17-5.42,5.65-3.94,8.91-7.72,7.81-10.56h0Zm-16.65-3.57c3.31,3.74,5.47,8.23,6.32,13.03-4.37,2.89-10.39,6.15-17.93,9.39l-.32-1.92c-.09-.57-.58-.98-1.15-.98h-3.52c-.82,0-1.52-.55-1.7-1.35l-1.35-5.74c-.17-.7.11-1.42.7-1.83l4.21-2.95c.27-.18.44-.47.49-.79.05-.32-.04-.64-.24-.89l-2.88-3.6c-.99-1.23-1.53-2.77-1.53-4.35V2.37c.15,0,.31,0,.46.01,7.15.43,13.7,3.63,18.45,8.99h0Zm-13.31,26.41c.24,1.41,1.44,2.44,2.87,2.44h.26c-.21.63-.43,1.26-.67,1.88-.34-.08-.7-.13-1.07-.13-1.47,0-2.78.68-3.63,1.75h-6.06c.27-.77.28-1.61,0-2.37l-.38-1.04c1.82-.63,3.64-1.3,5.45-2,1.04-.4,2.08-.82,3.1-1.24l.12.71Zm15.75,5.93h-10.72c-.15-.19-.32-.36-.5-.52.39-.98.74-1.97,1.04-2.97h1.8c1.52,0,2.77-1.14,2.9-2.65.05-.57.5-.76.64-.8.14-.05.61-.16.99.27l4.7,5.27c-.27.48-.56.95-.86,1.41h0Zm-22.51,11.84c-1.54-1.42-2.96-2.97-4.23-4.63l1.83-4.88h5.94c-.02.19-.04.38-.04.58,0,1.31.55,2.5,1.43,3.35-1.45,2.01-3.09,3.89-4.93,5.58h0Zm-1.17-51.71v5.54c0,.97.16,1.94.46,2.85h-4.11c-.22-.85-.67-1.61-1.29-2.2,1.42-2.24,3.07-4.31,4.94-6.19h0Zm-5.83,9.56c0,1.29-1.05,2.33-2.33,2.33s-2.33-1.05-2.33-2.33,1.05-2.33,2.33-2.33,2.33,1.05,2.33,2.33Zm-2.33,4.66c2.17,0,3.99-1.49,4.51-3.5h5.23c.14.21.29.42.46.62l2.1,2.63-3.19,2.24c-1.38.96-2.02,2.64-1.63,4.28l.86,3.64h-8.55l-.13-1.02c-.14-1.1-.78-2.02-1.67-2.56.29-2.16.78-4.3,1.46-6.37.18.02.36.04.55.04h0Zm-3.81,8.16c.59,0,1.08.44,1.16,1.02l.91,7.28c.06.45.36.82.79.96l4.18,1.39c.34.11.6.37.73.71l.46,1.27c-6.19,2.06-11.62,3.44-16.1,4.24l2.77-4.62c.32-.53.17-1.22-.35-1.57l-2.17-1.45c-.4-.27-.59-.76-.49-1.22l1.58-7.11c.12-.53.59-.91,1.14-.91h5.4Zm-8.92,11.18l1.24.83-2.5,4.17c-2.11-3.69-3.3-7.81-3.48-12.1h4.03l-.76,3.43c-.31,1.4.28,2.87,1.47,3.67h0Zm17.93,3.64l.4,1.09c.09.26.09.55,0,.81l-2.75,7.32-11.27-5.44c4.25-.91,8.89-2.21,13.62-3.78h0Zm9.95,5.58c0-1.29,1.05-2.33,2.33-2.33s2.33,1.05,2.33,2.33-1.05,2.33-2.33,2.33-2.33-1.05-2.33-2.33h0Zm-3.13-10.5c-1.85.72-3.66,1.38-5.4,1.99l-.48-1.32c-.37-1.01-1.16-1.78-2.18-2.12l-3.48-1.16-.41-3.21h8.82c.52,1.73,2.08,2.91,3.9,2.91h2.53l.25,1.49c-1.15.48-2.33.95-3.55,1.42h0ZM19.17,9.07c4.17-3.69,9.25-5.93,14.66-6.56-1.9,1.95-3.58,4.09-5.03,6.39-.38-.1-.78-.16-1.18-.16-2.17,0-3.99,1.49-4.51,3.5h-6.98c.92-1.13,1.93-2.19,3.04-3.17h0Zm-4.7,5.45c.1.03.21.05.33.05h8.32c.28,1.07.92,1.99,1.79,2.61-.72,2.18-1.25,4.43-1.57,6.72h-4.92c-1.65,0-3.05,1.13-3.41,2.74l-.3,1.34h-4.54c0-.15,0-.31.02-.46.29-4.71,1.78-9.15,4.29-13h0ZM2.4,42.51c-.39-1.02,1.01-3.47,6.07-7.15.64,2.94,1.72,5.77,3.24,8.38-5.47.61-8.8.1-9.31-1.22h0Zm14.47,4.41c-.3-.34-.6-.69-.88-1.05l14.62,7.06c.16.08.34.12.51.12.09,0,.18-.01.27-.04.77.96,1.59,1.88,2.45,2.77-6.58-.75-12.56-3.87-16.98-8.86h0Zm37.85,2.31c-4.16,3.68-9.25,5.93-14.66,6.56,1.41-1.45,2.7-3,3.87-4.64.38.1.77.16,1.18.16,2.57,0,4.66-2.09,4.66-4.66,0-.2-.02-.39-.04-.58h8.03c-.92,1.13-1.93,2.19-3.04,3.17h0Zm8.99-18.45c-.2,3.26-.98,6.39-2.27,9.29l-4.08-4.58c-.88-.99-2.21-1.34-3.46-.93-1.26.41-2.11,1.49-2.23,2.81-.03.3-.28.53-.58.53h-4.5c-.29,0-.53-.2-.57-.49l-.21-1.26c6.67-2.84,12.95-6.03,17.87-9.18.1,1.26.12,2.53.04,3.81h0Zm1.72-7.82c-.64-2.94-1.72-5.76-3.23-8.38,6.63-.72,8.98.38,9.3,1.2.51,1.33-1.6,3.94-6.07,7.17h0Z"/>
  </g>
</svg>