<?xml version="1.0" encoding="UTF-8"?>
<svg id="Ebene_2" data-name="Ebene 2" xmlns="http://www.w3.org/2000/svg" viewBox="0 0 75.98 104.18">
  <defs>
    <style>
      .cls-1 {
        fill: #72b62b;
        stroke-width: 0px;
      }
    </style>
  </defs>
  <g id="Ebene_1-2" data-name="Ebene 1">
    <g>
      <path class="cls-1" d="m74.11,64.61c-1.32-1.32-3.18-1.98-5.06-1.76-5.71.55-16.48,2.75-24.06,10.33-1.32,1.32-2.42,2.64-3.41,4.18v-18.02c10.11-.33,18.35-8.68,18.35-18.9v-19.45h.99c1.98,0,3.52-1.65,3.52-3.52,0-1.98-1.65-3.52-3.52-3.52h-8.24V3.52c0-1.98-1.65-3.52-3.52-3.52s-3.63,1.65-3.63,3.52v10.33h-15.16s0-10.33,0-10.33C30.38,1.54,28.73,0,26.86,0s-3.63,1.65-3.63,3.52v10.33h-8.24c-1.98,0-3.52,1.65-3.52,3.52,0,1.98,1.65,3.52,3.52,3.52h.99v19.45c0,10.22,8.24,18.68,18.35,19.01v17.91c-.99-1.43-2.09-2.86-3.41-4.18-7.58-7.58-18.35-9.78-24.06-10.33-1.87-.22-3.73.44-5.06,1.76-1.32,1.32-1.98,3.18-1.76,5.06.55,5.71,2.75,16.48,10.33,24.06,10.44,10.44,26.7,10.55,27.58,10.55.99,0,17.25-.11,27.69-10.55,7.58-7.58,9.78-18.35,10.33-24.06.12-1.76-.54-3.63-1.86-4.95h0Zm-58.79,24.17c-5.61-5.61-7.58-13.74-8.13-18.68,4.94.66,13.07,2.53,18.68,8.13,5.61,5.61,7.58,13.95,8.13,18.68-4.72-.55-12.96-2.42-18.68-8.13Zm19.67-36.48c-6.59,0-11.87-5.38-11.87-11.87v-19.45h29.67v19.45c0,6.59-5.38,11.87-11.87,11.87h-5.93Zm25.6,36.48c-5.61,5.61-13.95,7.58-18.68,8.13.66-4.83,2.53-13.07,8.13-18.68,5.61-5.61,13.74-7.58,18.68-8.13-.66,4.94-2.53,13.07-8.13,18.68Z"/>
      <path class="cls-1" d="m37.29,47.25l8.02-10.77c.77-1.1,0-2.53-1.32-2.53h-3.85l1.32-6.48c.33-1.65-1.87-2.64-2.86-1.32l-8.02,10.66c-.77,1.1,0,2.53,1.32,2.53h3.85l-1.32,6.48c-.33,1.76,1.87,2.75,2.85,1.43h0Z"/>
    </g>
  </g>
</svg>