<?xml version="1.0" encoding="UTF-8"?>
<svg id="Ebene_2" data-name="Ebene 2" xmlns="http://www.w3.org/2000/svg" viewBox="0 0 103.92 83.38">
  <defs>
    <style>
      .cls-1 {
        fill: #72b62b;
        stroke-width: 0px;
      }
    </style>
  </defs>
  <g id="Ebene_1-2" data-name="Ebene 1">
    <g>
      <path class="cls-1" d="m102.5,28.65h-10.8c-2.54-7.67-7.23-14.27-13.11-19.11C56.58-8.81,21.61.25,12.22,28.65H1.42c-.78,0-1.42.63-1.42,1.42v23.21c0,.78.63,1.42,1.42,1.42h10.8c2.21,6.68,6.19,12.92,11.66,17.87,22.42,20.26,58.35,10.82,67.83-17.87h10.8c.78,0,1.42-.63,1.42-1.42v-23.21c0-.78-.63-1.42-1.42-1.42h0Zm-1.42,23.21h-23.6v-20.38h23.6v20.38Zm-42.75,28.14c3-3,5.38-9.72,6.47-13.83,4.73,1.01,9.12,2.58,12.89,4.67.15.09-7.81,7.27-19.36,9.16Zm-32.14-9.15c3.89-2.19,8.53-3.74,12.91-4.68,2.25,8.41,4.49,11.11,6.47,13.83-7.18-1.18-13.88-4.33-19.38-9.15Zm-11-16.16h21.74c.37,3.08.87,6,1.48,8.71-5.31,1.14-10.18,2.98-14.36,5.4-3.9-3.98-6.95-8.78-8.87-14.11h0Zm-12.37-2.83v-20.38h71.82v20.38H2.83ZM24.07,14.54c4.18,2.44,9.05,4.26,14.36,5.4-.61,2.71-1.11,5.63-1.48,8.71H15.2c1.91-5.34,4.97-10.14,8.87-14.11ZM45.58,3.34h0c-2.58,2.9-4.81,7.61-6.47,13.83-4.73-1.01-9.12-2.58-12.89-4.67-.15-.09,7.8-7.27,19.36-9.16Zm32.14,9.15c-3.89,2.19-8.53,3.74-12.91,4.68-1.1-4.11-3.47-10.83-6.47-13.83,7.18,1.18,13.88,4.33,19.38,9.15Zm-15.03,50.4c-7.13-1.19-14.32-1.19-21.46,0-.3-1.16-.97-4.6-1.43-8.2h24.31c-.45,3.63-1.14,7.1-1.43,8.2Zm-20.79,2.75c6.37-1.04,13.49-1.08,20.14,0-5.75,20.14-14.54,19.59-20.14,0Zm-.66-45.19c6.94,1.16,14.19,1.22,21.46,0,.6,2.61,1.06,5.21,1.43,8.2h-24.31c.37-2.98.83-5.58,1.43-8.2Zm20.79-2.75c-6.36,1.03-13.48,1.08-20.14,0,5.79-20.27,14.58-19.47,20.14,0Zm4.94,10.94c-.37-3.08-.87-6-1.48-8.71,5.31-1.14,10.18-2.98,14.36-5.4,3.9,3.98,6.95,8.78,8.87,14.11h-21.75Zm12.88,40.16c-4.18-2.44-9.05-4.26-14.36-5.4.61-2.71,1.11-5.63,1.48-8.71h21.74c-1.91,5.34-4.97,10.14-8.87,14.11h0Z"/>
      <path class="cls-1" d="m90.16,33.75c-4.38-1.69-9.09,1.56-9.09,6.24,0,5.15,5.63,8.42,10.11,5.74l3.89,3.89c1.32,1.32,3.33-.68,2-2l-3.35-3.36c-.66-.66-.52-.18.06-1.36,1.77-3.63-.07-7.79-3.62-9.15h0Zm.8,8.4c-2.14,3.16-7.06,1.62-7.06-2.15s4.55-5.26,6.86-2.4c1.11,1.39,1.11,3.2.21,4.55h0Z"/>
    </g>
  </g>
</svg>