<?xml version="1.0" encoding="UTF-8"?>
<svg id="Ebene_2" data-name="Ebene 2" xmlns="http://www.w3.org/2000/svg" viewBox="0 0 153.85 65.87">
  <defs>
    <style>
      .cls-1, .cls-2 {
        fill: #72b62b;
        stroke-width: 0px;
      }

      .cls-2 {
        fill-rule: evenodd;
      }
    </style>
  </defs>
  <g id="Ebene_1-2" data-name="Ebene 1">
    <g>
      <path class="cls-1" d="m78.76,3.26h24.48v58.76h-6.53c-.9,0-1.63.73-1.63,1.63s.73,1.63,1.63,1.63h16.32c.9,0,1.63-.73,1.63-1.63s-.73-1.63-1.63-1.63h-6.53V3.26h24.48v8.16c0,.9.73,1.63,1.63,1.63s1.63-.73,1.63-1.63V1.63c0-.9-.73-1.63-1.63-1.63h-55.5c-.9,0-1.63.73-1.63,1.63v9.79c0,.9.73,1.63,1.63,1.63s1.63-.73,1.63-1.63V3.26Z"/>
      <path class="cls-1" d="m152.22,29.38h-29.38c-.9,0-1.63.73-1.63,1.63v6.53c0,.9.73,1.63,1.63,1.63s1.63-.73,1.63-1.63v-4.9h11.43v29.38h-3.26c-.9,0-1.63.73-1.63,1.63s.73,1.63,1.63,1.63h9.79c.9,0,1.63-.73,1.63-1.63s-.73-1.63-1.63-1.63h-3.26v-29.38h11.43v4.9c0,.9.73,1.63,1.63,1.63s1.63-.73,1.63-1.63v-6.53c0-.9-.73-1.63-1.63-1.63Z"/>
    </g>
    <g>
      <path class="cls-1" d="m11.28,2.9h31.21V0H9.82c-.8,0-1.45.65-1.45,1.45v25.96h2.9V2.9Z"/>
      <path class="cls-1" d="m58.4,10.74c-.04-.06-10.05-10.41-10.11-10.45-.25-.19-.56-.29-.88-.29h-3.48v13.64c0,.8.65,1.45,1.45,1.45h13.27v-3.52c0-.3-.09-.59-.26-.83Z"/>
      <path class="cls-1" d="m55.76,62.97H11.28v-10.59h-2.9v12.04c0,.8.65,1.45,1.45,1.45h47.38c.8,0,1.45-.64,1.45-1.44,0,0,0,0,0,0V16.55h-2.9v46.42Z"/>
      <path class="cls-1" d="m17.26,37.04c-1.5,0-2.04,1.57-2.04,2.91s.63,2.8,2.02,2.8,2.04-1.46,2.04-2.9c0-.97-.42-2.82-2.02-2.82Z"/>
      <path class="cls-1" d="m45.35,49.47v-19.16c0-.8-.65-1.45-1.45-1.45H1.45c-.8,0-1.45.65-1.45,1.45v19.16c0,.8.65,1.45,1.45,1.45h42.45c.8,0,1.45-.65,1.45-1.45Zm-33.59-13.13c0,.48-.39.87-.87.87h-2.84v1.27h2.56c.48,0,.87.39.87.87v.97c0,.48-.39.87-.87.87h-2.56v3.23c0,.48-.39.87-.87.87h-1.17c-.48,0-.87-.39-.87-.87v-9.07c0-.48.39-.87.87-.87h4.89c.48,0,.87.39.87.87v.98Zm5.42,9.11c-2.91,0-4.95-2.25-4.95-5.47s2.09-5.64,5.08-5.64,4.95,2.25,4.95,5.46c0,3.9-2.55,5.65-5.08,5.65h0Zm14.11-1.02c0,.48-.39.87-.87.87h-1.18c-.3,0-.58-.15-.74-.41l-2.88-4.6s-.02-.04-.03-.05c0,.1,0,.21,0,.32v3.88c0,.48-.39.87-.87.87h-1.1c-.48,0-.87-.39-.87-.87v-9.07c0-.48.39-.87.87-.87h1.28c.3,0,.58.15.74.4l2.82,4.46v-3.99c0-.48.39-.87.87-.87h1.1c.48,0,.87.39.87.87v9.07Zm8.93-8.08c0,.48-.39.87-.87.87h-1.9v7.21c0,.48-.39.87-.87.87h-1.18c-.48,0-.87-.39-.87-.87v-7.21h-1.89c-.48,0-.87-.39-.87-.87v-1c0-.48.39-.87.87-.87h6.72c.48,0,.87.39.87.87v1Z"/>
    </g>
    <path class="cls-2" d="m82.09,35.9c1.44,1.44,1.44,3.79,0,5.23l-7.94,7.94c-.72.72-1.89.72-2.62,0-.72-.72-.72-1.89,0-2.62l7.94-7.94-7.94-7.94c-.72-.72-.72-1.89,0-2.62.72-.72,1.89-.72,2.62,0l7.94,7.94Z"/>
  </g>
</svg>