<?xml version="1.0" encoding="UTF-8"?>
<svg id="Ebene_2" data-name="Ebene 2" xmlns="http://www.w3.org/2000/svg" viewBox="0 0 100.32 112.65">
  <defs>
    <style>
      .cls-1 {
        fill: #72b62b;
        stroke-width: 0px;
      }
    </style>
  </defs>
  <g id="Ebene_1-2" data-name="Ebene 1">
    <g>
      <path class="cls-1" d="m19.28,4.96h53.38V0H16.8c-1.37,0-2.48,1.11-2.48,2.48v44.4h4.96V4.96Z"/>
      <path class="cls-1" d="m99.88,18.37c-.07-.11-17.19-17.8-17.29-17.87-.43-.32-.96-.5-1.5-.5h-5.95v23.33c0,1.37,1.11,2.48,2.48,2.48h22.7v-6.02c0-.51-.16-1-.45-1.42Z"/>
      <path class="cls-1" d="m95.36,107.69H19.28v-18.11h-4.96v20.59c0,1.37,1.11,2.48,2.48,2.48h81.04c1.37,0,2.48-1.1,2.48-2.47,0,0,0,0,0-.01V28.3h-4.96v79.39Z"/>
      <path class="cls-1" d="m29.52,63.34c-2.57,0-3.48,2.68-3.48,4.98s1.08,4.8,3.46,4.8,3.48-2.49,3.48-4.96c0-1.67-.72-4.82-3.46-4.82Z"/>
      <path class="cls-1" d="m77.56,84.61v-32.76c0-1.37-1.11-2.48-2.48-2.48H2.48c-1.37,0-2.48,1.11-2.48,2.48v32.76c0,1.37,1.11,2.48,2.48,2.48h72.6c1.37,0,2.48-1.11,2.48-2.48Zm-57.45-22.46c0,.82-.67,1.49-1.49,1.49h-4.86v2.18h4.38c.82,0,1.49.67,1.49,1.49v1.66c0,.82-.67,1.49-1.49,1.49h-4.38v5.53c0,.82-.67,1.49-1.49,1.49h-2c-.82,0-1.49-.67-1.49-1.49v-15.51c0-.82.67-1.49,1.49-1.49h8.36c.82,0,1.49.67,1.49,1.49v1.68Zm9.27,15.58c-4.98,0-8.46-3.85-8.46-9.36s3.58-9.64,8.69-9.64,8.46,3.84,8.46,9.34c0,6.67-4.37,9.66-8.69,9.66h0Zm24.13-1.74c0,.82-.67,1.49-1.49,1.49h-2.03c-.51,0-.99-.26-1.26-.7l-4.93-7.87s-.04-.06-.06-.09c0,.18,0,.36,0,.55v6.63c0,.82-.67,1.49-1.49,1.49h-1.89c-.82,0-1.49-.67-1.49-1.49v-15.51c0-.82.67-1.49,1.49-1.49h2.19c.51,0,.98.26,1.26.69l4.83,7.62v-6.82c0-.82.67-1.49,1.49-1.49h1.89c.82,0,1.49.67,1.49,1.49v15.51Zm15.27-13.81c0,.82-.67,1.49-1.49,1.49h-3.25v12.32c0,.82-.67,1.49-1.49,1.49h-2.03c-.82,0-1.49-.67-1.49-1.49v-12.32h-3.23c-.82,0-1.49-.67-1.49-1.49v-1.7c0-.82.67-1.49,1.49-1.49h11.49c.82,0,1.49.67,1.49,1.49v1.7Z"/>
    </g>
  </g>
</svg>