<?xml version="1.0" encoding="UTF-8"?>
<svg id="Ebene_2" data-name="Ebene 2" xmlns="http://www.w3.org/2000/svg" viewBox="0 0 150.18 124.81">
  <defs>
    <style>
      .cls-1 {
        fill: #72b62b;
        stroke-width: 0px;
      }
    </style>
  </defs>
  <g id="Ebene_1-2" data-name="Ebene 1">
    <polyline class="cls-1" points="150.18 121.67 2.58 0 0 3.14 147.6 124.8"/>
    <g>
      <path class="cls-1" d="m46.76,46.68c-1.16,0-2.11-.94-2.11-2.11v-23.11c0-1.16.94-2.11,2.11-2.11s2.11.94,2.11,2.11v23.11c0,1.16-.94,2.11-2.11,2.11Z"/>
      <path class="cls-1" d="m110.67,124.81H36c-1.16,0-2.11-.94-2.11-2.11v-18.51c0-1.16.94-2.11,2.11-2.11s2.11.94,2.11,2.11v16.4h70.45v-16.4c0-1.16.94-2.11,2.11-2.11s2.11.94,2.11,2.11v18.51c0,1.16-.94,2.11-2.11,2.11Z"/>
      <path class="cls-1" d="m110.67,77.45c-1.16,0-2.11-.94-2.11-2.11v-28.66h-21c-1.16,0-2.11-.94-2.11-2.11v-21h-47.34v51.78c0,1.16-.94,2.11-2.11,2.11s-2.11-.94-2.11-2.11V21.45c0-1.16.94-2.11,2.11-2.11h51.56c1.16,0,2.11.94,2.11,2.11v21h21c1.16,0,2.11.94,2.11,2.11v30.77c0,1.16-.94,2.11-2.11,2.11Z"/>
      <path class="cls-1" d="m110.67,46.68c-.54,0-1.08-.21-1.49-.62l-23.11-23.11c-.82-.82-.82-2.16,0-2.98.82-.82,2.16-.82,2.98,0l23.11,23.11c.82.82.82,2.16,0,2.98-.41.41-.95.62-1.49.62Z"/>
      <path class="cls-1" d="m105.71,107.12H40.96c-9.57,0-17.36-7.79-17.36-17.36s7.79-17.36,17.36-17.36h64.75c9.57,0,17.36,7.79,17.36,17.36,0,9.57-7.79,17.36-17.36,17.36Zm-64.75-30.5c-7.25,0-13.14,5.9-13.14,13.14s5.9,13.14,13.14,13.14h64.75c7.25,0,13.14-5.9,13.14-13.14s-5.9-13.14-13.14-13.14H40.96Z"/>
      <path class="cls-1" d="m56.99,79.54c-2.34,0-4.16,1-5.39,2.97-1.14,1.82-1.72,4.26-1.72,7.25s.58,5.44,1.72,7.26c1.24,1.98,3.05,2.98,5.39,2.98s4.17-1,5.4-2.98c1.13-1.82,1.71-4.26,1.71-7.25s-.57-5.43-1.71-7.24c-1.23-1.98-3.05-2.98-5.4-2.98Zm1.81,15.28c-.7,1.19-1.37,1.33-1.81,1.33s-1.11-.14-1.81-1.32c-.62-1.06-.94-2.76-.94-5.06s.32-4,.94-5.06c.7-1.19,1.37-1.33,1.81-1.33s1.11.14,1.81,1.32c.62,1.06.94,2.76.94,5.06s-.32,4-.94,5.06Z"/>
      <path class="cls-1" d="m80.95,80.05h-12.64c-.58,0-1.05.47-1.05,1.05v1.91c0,.58.47,1.05,1.05,1.05h4.13v14.35c0,.58.47,1.05,1.05,1.05h2.25c.58,0,1.05-.47,1.05-1.05v-14.35h4.14c.58,0,1.05-.47,1.05-1.05v-1.91c0-.58-.47-1.05-1.05-1.05Z"/>
      <path class="cls-1" d="m95.74,80.05h-9.51c-.58,0-1.05.47-1.05,1.05v17.31c0,.58.47,1.05,1.05,1.05h2.25c.58,0,1.05-.47,1.05-1.05v-6.91h5.51c.58,0,1.05-.47,1.05-1.05v-1.73c0-.58-.47-1.05-1.05-1.05h-5.51v-3.77h6.21c.58,0,1.05-.47,1.05-1.05v-1.74c0-.58-.47-1.05-1.05-1.05Z"/>
    </g>
  </g>
</svg>