<?xml version="1.0" encoding="UTF-8"?>
<svg id="Ebene_2" data-name="Ebene 2" xmlns="http://www.w3.org/2000/svg" viewBox="0 0 102.8 81.26">
  <defs>
    <style>
      .cls-1 {
        fill: #72b62b;
        stroke-width: 0px;
      }
    </style>
  </defs>
  <g id="Ebene_1-2" data-name="Ebene 1">
    <polyline class="cls-1" points="102.8 78.17 49.9 27.75 47.1 30.69 99.99 81.11"/>
    <g>
      <path class="cls-1" d="m4.06,4.06h30.47v73.13h-8.13c-1.12,0-2.03.91-2.03,2.03s.91,2.03,2.03,2.03h20.31c1.12,0,2.03-.91,2.03-2.03s-.91-2.03-2.03-2.03h-8.13V4.06h30.47v10.16c0,1.12.91,2.03,2.03,2.03s2.03-.91,2.03-2.03V2.03c0-1.12-.91-2.03-2.03-2.03H2.03C.91,0,0,.91,0,2.03v12.19c0,1.12.91,2.03,2.03,2.03s2.03-.91,2.03-2.03V4.06Z"/>
      <path class="cls-1" d="m95.48,36.57h-36.57c-1.12,0-2.03.91-2.03,2.03v8.13c0,1.12.91,2.03,2.03,2.03s2.03-.91,2.03-2.03v-6.09h14.22v36.57h-4.06c-1.12,0-2.03.91-2.03,2.03s.91,2.03,2.03,2.03h12.19c1.12,0,2.03-.91,2.03-2.03s-.91-2.03-2.03-2.03h-4.06v-36.57h14.22v6.09c0,1.12.91,2.03,2.03,2.03s2.03-.91,2.03-2.03v-8.13c0-1.12-.91-2.03-2.03-2.03Z"/>
    </g>
  </g>
</svg>