<?xml version="1.0" encoding="UTF-8"?>
<svg id="Ebene_2" data-name="Ebene 2" xmlns="http://www.w3.org/2000/svg" viewBox="0 0 110.38 89.35">
  <defs>
    <style>
      .cls-1 {
        fill: #72b62b;
        stroke-width: 0px;
      }
    </style>
  </defs>
  <g id="Ebene_1-2" data-name="Ebene 1">
    <g>
      <path class="cls-1" d="m16.93,12.15h30.47v73.13h-8.13c-1.12,0-2.03.91-2.03,2.03s.91,2.03,2.03,2.03h20.31c1.12,0,2.03-.91,2.03-2.03s-.91-2.03-2.03-2.03h-8.13V12.15h30.47v10.16c0,1.12.91,2.03,2.03,2.03s2.03-.91,2.03-2.03v-12.19c0-1.12-.91-2.03-2.03-2.03H14.9c-1.12,0-2.03.91-2.03,2.03v12.19c0,1.12.91,2.03,2.03,2.03s2.03-.91,2.03-2.03v-10.16Z"/>
      <path class="cls-1" d="m108.35,44.65h-36.57c-1.12,0-2.03.91-2.03,2.03v8.13c0,1.12.91,2.03,2.03,2.03s2.03-.91,2.03-2.03v-6.09h14.22v36.57h-4.06c-1.12,0-2.03.91-2.03,2.03s.91,2.03,2.03,2.03h12.19c1.12,0,2.03-.91,2.03-2.03s-.91-2.03-2.03-2.03h-4.06v-36.57h14.22v6.09c0,1.12.91,2.03,2.03,2.03s2.03-.91,2.03-2.03v-8.13c0-1.12-.91-2.03-2.03-2.03Z"/>
    </g>
    <polyline class="cls-1" points="106.33 85.52 2.58 0 0 3.14 103.75 88.66"/>
  </g>
</svg>