<?xml version="1.0" encoding="UTF-8"?>
<svg id="Ebene_2" data-name="Ebene 2" xmlns="http://www.w3.org/2000/svg" viewBox="0 0 150.18 125.27">
  <defs>
    <style>
      .cls-1 {
        fill: #72b62b;
        stroke-width: 0px;
      }
    </style>
  </defs>
  <g id="Ebene_1-2" data-name="Ebene 1">
    <polyline class="cls-1" points="150.18 121.67 2.58 0 0 3.14 147.6 124.8"/>
    <g>
      <path class="cls-1" d="m47.54,47.93c-1.15,0-2.09-.94-2.09-2.09v-22.88c0-1.15.94-2.09,2.09-2.09s2.09.94,2.09,2.09v22.88c0,1.15-.94,2.09-2.09,2.09Z"/>
      <path class="cls-1" d="m110.8,125.27H36.89c-1.15,0-2.09-.94-2.09-2.09v-18.33c0-1.15.94-2.09,2.09-2.09s2.09.94,2.09,2.09v16.24h69.73v-16.24c0-1.15.94-2.09,2.09-2.09s2.09.94,2.09,2.09v18.33c0,1.15-.94,2.09-2.09,2.09Z"/>
      <path class="cls-1" d="m110.8,78.39c-1.15,0-2.09-.94-2.09-2.09v-28.37h-20.79c-1.15,0-2.09-.94-2.09-2.09v-20.79h-46.86v51.25c0,1.15-.94,2.09-2.09,2.09s-2.09-.94-2.09-2.09V22.97c0-1.15.94-2.09,2.09-2.09h51.03c1.15,0,2.09.94,2.09,2.09v20.79h20.79c1.15,0,2.09.94,2.09,2.09v30.46c0,1.15-.94,2.09-2.09,2.09Z"/>
      <path class="cls-1" d="m110.8,47.93c-.53,0-1.07-.2-1.48-.61l-22.88-22.88c-.82-.82-.82-2.14,0-2.95.82-.82,2.14-.82,2.95,0l22.88,22.88c.82.82.82,2.14,0,2.95-.41.41-.94.61-1.48.61Z"/>
      <path class="cls-1" d="m105.89,107.76H41.8c-9.48,0-17.18-7.71-17.18-17.18s7.71-17.18,17.18-17.18h64.09c9.48,0,17.18,7.71,17.18,17.18,0,9.48-7.71,17.18-17.18,17.18Zm-64.09-30.19c-7.17,0-13.01,5.84-13.01,13.01s5.84,13.01,13.01,13.01h64.09c7.17,0,13.01-5.84,13.01-13.01s-5.84-13.01-13.01-13.01H41.8Z"/>
      <path class="cls-1" d="m63.92,80.97h-12.51c-.58,0-1.04.47-1.04,1.04v1.89c0,.58.47,1.04,1.04,1.04h4.09v14.2c0,.58.47,1.04,1.04,1.04h2.23c.58,0,1.04-.47,1.04-1.04v-14.2h4.1c.58,0,1.04-.47,1.04-1.04v-1.89c0-.58-.47-1.04-1.04-1.04Z"/>
      <path class="cls-1" d="m81.64,80.97h-12.51c-.58,0-1.04.47-1.04,1.04v1.89c0,.58.47,1.04,1.04,1.04h4.09v14.2c0,.58.47,1.04,1.04,1.04h2.23c.58,0,1.04-.47,1.04-1.04v-14.2h4.1c.58,0,1.04-.47,1.04-1.04v-1.89c0-.58-.47-1.04-1.04-1.04Z"/>
      <path class="cls-1" d="m96.28,80.97h-9.42c-.58,0-1.04.47-1.04,1.04v17.13c0,.58.47,1.04,1.04,1.04h2.23c.58,0,1.04-.47,1.04-1.04v-6.84h5.46c.58,0,1.04-.47,1.04-1.04v-1.71c0-.58-.47-1.04-1.04-1.04h-5.46v-3.73h6.14c.58,0,1.04-.47,1.04-1.04v-1.72c0-.58-.47-1.04-1.04-1.04Z"/>
    </g>
  </g>
</svg>