<?xml version="1.0" encoding="UTF-8"?>
<svg id="Ebene_2" data-name="Ebene 2" xmlns="http://www.w3.org/2000/svg" viewBox="0 0 115 121.93">
  <defs>
    <style>
      .cls-1 {
        fill: #72b62b;
        stroke-width: 0px;
      }
    </style>
  </defs>
  <g id="Ebene_1-2" data-name="Ebene 1">
    <g>
      <path class="cls-1" d="m26.78,31.6c-1.35,0-2.44-1.09-2.44-2.44V2.44c0-1.35,1.09-2.44,2.44-2.44s2.44,1.09,2.44,2.44v26.72c0,1.35-1.1,2.44-2.44,2.44Z"/>
      <path class="cls-1" d="m100.66,121.93H14.33c-1.35,0-2.44-1.09-2.44-2.44v-21.4c0-1.35,1.09-2.44,2.44-2.44s2.44,1.09,2.44,2.44v18.97h81.45v-18.97c0-1.35,1.09-2.44,2.44-2.44s2.44,1.09,2.44,2.44v21.4c0,1.35-1.09,2.44-2.44,2.44Z"/>
      <path class="cls-1" d="m100.66,67.17c-1.35,0-2.44-1.09-2.44-2.44V31.6h-24.29c-1.35,0-2.44-1.09-2.44-2.44V4.88H16.77v59.86c0,1.35-1.09,2.44-2.44,2.44s-2.44-1.09-2.44-2.44V2.44c0-1.35,1.09-2.44,2.44-2.44h59.61c1.35,0,2.44,1.09,2.44,2.44v24.28h24.29c1.35,0,2.44,1.09,2.44,2.44v35.58c0,1.34-1.09,2.44-2.44,2.44h0Z"/>
      <path class="cls-1" d="m100.66,31.6c-.62,0-1.25-.24-1.72-.71l-26.72-26.72c-.95-.95-.95-2.5,0-3.45s2.5-.95,3.45,0l26.72,26.72c.95.95.95,2.5,0,3.45-.48.48-1.1.71-1.72.71h0Z"/>
      <path class="cls-1" d="m94.93,101.48H20.07c-11.07,0-20.07-9.01-20.07-20.07s9.01-20.07,20.07-20.07h74.86c11.07,0,20.07,9.01,20.07,20.07s-9,20.07-20.07,20.07ZM20.07,66.22c-8.38,0-15.19,6.82-15.19,15.19s6.82,15.19,15.19,15.19h74.86c8.38,0,15.19-6.82,15.19-15.19s-6.82-15.19-15.19-15.19H20.07Z"/>
      <path class="cls-1" d="m29.73,70.59c-.23-.26-.56-.41-.91-.41h-2.04c-.62,0-1.14.46-1.21,1.08l-.75,6.32-1.21-6.39c-.11-.58-.61-.99-1.2-.99h-2.38c-.6,0-1.1.42-1.2,1l-.95,5.5-.61-5.43c-.07-.62-.59-1.09-1.21-1.09h-2.37c-.35,0-.68.15-.91.41-.23.26-.34.6-.3.95l2.32,20.01c.07.61.59,1.08,1.21,1.08h2.44c.6,0,1.1-.43,1.2-1.01l1.46-8.52,1.62,8.54c.11.58.61.99,1.2.99h2.46c.62,0,1.14-.46,1.21-1.07l2.42-20.01c.04-.35-.07-.7-.3-.96h0Z"/>
      <path class="cls-1" d="m48.16,73.03c-1.43-2.28-3.53-3.44-6.24-3.44s-4.81,1.16-6.23,3.44c-1.31,2.11-1.99,4.92-1.99,8.38s.67,6.29,1.99,8.39c1.43,2.28,3.53,3.44,6.23,3.44s4.82-1.16,6.24-3.44c1.31-2.1,1.98-4.92,1.98-8.39,0-3.46-.66-6.28-1.97-8.38h0Zm-4.16,14.23c-.8,1.38-1.58,1.53-2.09,1.53s-1.28-.16-2.09-1.53c-.72-1.23-1.09-3.2-1.09-5.85s.37-4.62,1.09-5.85c.81-1.38,1.58-1.53,2.09-1.53s1.28.16,2.09,1.53c.72,1.23,1.09,3.19,1.09,5.85s-.37,4.62-1.09,5.85h0Z"/>
      <path class="cls-1" d="m66.01,70.18h-11c-.68,0-1.22.54-1.22,1.22v20.01c0,.68.54,1.22,1.22,1.22h2.61c.68,0,1.22-.54,1.22-1.22v-7.98s6.37,0,6.37,0c.68,0,1.22-.54,1.22-1.22v-2c0-.68-.54-1.22-1.22-1.22h-6.38v-4.36h7.17c.68,0,1.22-.54,1.22-1.22v-2.01c0-.67-.54-1.22-1.21-1.22h0Z"/>
      <path class="cls-1" d="m83.1,70.18h-11c-.68,0-1.22.54-1.22,1.22v20.01c0,.68.54,1.22,1.22,1.22h2.61c.68,0,1.22-.54,1.22-1.22v-7.98h6.38c.68,0,1.22-.54,1.22-1.22v-2c0-.68-.54-1.22-1.22-1.22h-6.38v-4.36h7.17c.68,0,1.22-.54,1.22-1.22v-2.01c0-.67-.54-1.22-1.22-1.22h0Z"/>
      <path class="cls-1" d="m101.31,87.98h-8.17c.1-.27.22-.52.37-.76.43-.67,1.02-1.38,1.72-2.09l2.71-2.67c1.61-1.58,2.68-2.86,3.29-3.91.65-1.13.98-2.26.98-3.38,0-1.03-.27-2.01-.81-2.91-.57-.95-1.42-1.65-2.55-2.09-1.01-.4-2.12-.59-3.31-.59-.79,0-1.74.1-2.9.31-1.19.21-2.39.6-3.57,1.16-.42.2-.7.63-.7,1.1v2.13c0,.41.21.8.56,1.02.35.23.79.26,1.16.09,1.21-.55,1.81-.78,2.1-.88.4-.13.89-.25,1.43-.35,1.31-.24,2.24-.21,3.06.34.35.24.5.52.5.98,0,.33-.1.68-.3,1.05-.17.32-.6.95-1.67,2.13-.91,1.01-1.51,1.66-1.77,1.94l-1.37,1.4c-.76.78-1.48,1.59-2.15,2.42-.75.92-1.25,1.75-1.53,2.54-.28.78-.42,1.53-.42,2.23v2.21c0,.68.54,1.22,1.22,1.22h12.11c.68,0,1.22-.54,1.22-1.22v-2.21c0-.68-.54-1.22-1.21-1.22h0Z"/>
    </g>
  </g>
</svg>