<?xml version="1.0" encoding="UTF-8"?>
<svg id="Ebene_2" data-name="Ebene 2" xmlns="http://www.w3.org/2000/svg" viewBox="0 0 156.1 26.22">
  <defs>
    <style>
      .cls-1, .cls-2 {
        fill: #72b62b;
        stroke-width: 0px;
      }

      .cls-2 {
        fill-rule: evenodd;
      }
    </style>
  </defs>
  <g id="Ebene_1-2" data-name="Ebene 1">
    <g>
      <path class="cls-1" d="m22.01,4.15l-.81-2.7C20.94.59,20.14,0,19.24,0H2.82c-.88,0-1.66.56-1.94,1.4L.1,3.71C.04,3.92,0,4.14,0,4.36v4.64c0,.33.13.65.37.88l-.26.78C.04,10.87,0,11.09,0,11.31v5.05c0,.38.18.73.48.96l-.37,1.11C.04,18.64,0,18.86,0,19.09v4.64c0,.68.55,1.23,1.23,1.23h19.64c.68,0,1.23-.55,1.23-1.23v-4.26c0-.2-.03-.4-.09-.59l-.45-1.5c.34-.23.54-.61.54-1.01v-4.67c0-.2-.03-.4-.09-.59l-.35-1.18c.28-.23.44-.57.44-.93v-4.26c0-.2-.03-.4-.09-.59ZM1.23,9.41c-.23,0-.41-.18-.41-.41v-4.09c0-.23.18-.41.41-.41h19.64c.23,0,.41.18.41.41v4.09c0,.23-.18.41-.41.41H1.23Zm.42-7.75c.17-.5.64-.84,1.16-.84h16.42c.54,0,1.02.35,1.18.87l.6,2s-.1-.01-.15-.02H1.23c-.09,0-.18.01-.26.03l.68-2.05Zm19.11,15.94l.25.83s-.1-.01-.15-.02H1.23c-.09,0-.17,0-.26.03l.28-.85h19.51Zm.51-5.32v4.09c0,.23-.18.41-.41.41H1.23c-.23,0-.41-.18-.41-.41v-4.09c0-.23.18-.41.41-.41h19.64c.23,0,.41.18.41.41Zm0,11.46c0,.23-.18.41-.41.41H1.23c-.23,0-.41-.18-.41-.41v-4.09c0-.23.18-.41.41-.41h19.64c.23,0,.41.18.41.41v4.09Zm-.13-12.65c-.09-.02-.18-.03-.28-.03H1.23c-.13,0-.27.03-.39.07.01-.07.03-.13.05-.19l.24-.71s.07.01.11.01h19.64s.02,0,.02,0l.26.86Z"/>
      <path class="cls-1" d="m2.86,5.73c-.68,0-1.23.55-1.23,1.23s.55,1.23,1.23,1.23,1.23-.55,1.23-1.23c0-.68-.55-1.23-1.23-1.23Zm0,1.64c-.23,0-.41-.18-.41-.41s.18-.41.41-.41.41.18.41.41c0,.23-.18.41-.41.41Z"/>
      <path class="cls-1" d="m4.91,5.73c-.23,0-.41.18-.41.41h0v1.64c0,.23.18.41.41.41s.41-.18.41-.41v-1.64c0-.23-.18-.41-.41-.41h0Z"/>
      <path class="cls-1" d="m6.14,5.73c-.23,0-.41.18-.41.41h0v1.64c0,.23.18.41.41.41s.41-.18.41-.41v-1.64c0-.23-.18-.41-.41-.41h0Z"/>
      <path class="cls-1" d="m13.09,5.73h-.41c-.23,0-.41.18-.41.41s.18.41.41.41h.41c.23,0,.41-.18.41-.41s-.18-.41-.41-.41Z"/>
      <path class="cls-1" d="m13.09,7.36h-.41c-.23,0-.41.18-.41.41s.18.41.41.41h.41c.23,0,.41-.18.41-.41s-.18-.41-.41-.41Z"/>
      <path class="cls-1" d="m14.73,6.55h-.41c-.23,0-.41.18-.41.41s.18.41.41.41h.41c.23,0,.41-.18.41-.41s-.18-.41-.41-.41Z"/>
      <path class="cls-1" d="m16.37,5.73h-.41c-.23,0-.41.18-.41.41s.18.41.41.41h.41c.23,0,.41-.18.41-.41s-.18-.41-.41-.41Z"/>
      <path class="cls-1" d="m16.37,7.36h-.41c-.23,0-.41.18-.41.41s.18.41.41.41h.41c.23,0,.41-.18.41-.41s-.18-.41-.41-.41Z"/>
      <path class="cls-1" d="m18,6.55h-.41c-.23,0-.41.18-.41.41s.18.41.41.41h.41c.23,0,.41-.18.41-.41s-.18-.41-.41-.41Z"/>
      <path class="cls-1" d="m19.64,5.73h-.41c-.23,0-.41.18-.41.41s.18.41.41.41h.41c.23,0,.41-.18.41-.41s-.18-.41-.41-.41Z"/>
      <path class="cls-1" d="m19.64,7.36h-.41c-.23,0-.41.18-.41.41s.18.41.41.41h.41c.23,0,.41-.18.41-.41s-.18-.41-.41-.41Z"/>
      <path class="cls-1" d="m2.45,13.09c-.68,0-1.23.55-1.23,1.23s.55,1.23,1.23,1.23,1.23-.55,1.23-1.23c0-.68-.55-1.23-1.23-1.23Zm0,1.64c-.23,0-.41-.18-.41-.41s.18-.41.41-.41.41.18.41.41c0,.23-.18.41-.41.41Z"/>
      <path class="cls-1" d="m4.5,13.09c-.23,0-.41.18-.41.41h0v1.64c0,.23.18.41.41.41s.41-.18.41-.41v-1.64c0-.23-.18-.41-.41-.41h0Z"/>
      <path class="cls-1" d="m5.73,13.09c-.23,0-.41.18-.41.41h0v1.64c0,.23.18.41.41.41s.41-.18.41-.41v-1.64c0-.23-.18-.41-.41-.41h0Z"/>
      <path class="cls-1" d="m12.68,13.91c.23,0,.41-.18.41-.41s-.18-.41-.41-.41h-.41c-.23,0-.41.18-.41.41s.18.41.41.41h.41Z"/>
      <path class="cls-1" d="m13.09,14.73h-.41c-.23,0-.41.18-.41.41s.18.41.41.41h.41c.23,0,.41-.18.41-.41s-.18-.41-.41-.41Z"/>
      <path class="cls-1" d="m14.73,13.91h-.41c-.23,0-.41.18-.41.41s.18.41.41.41h.41c.23,0,.41-.18.41-.41s-.18-.41-.41-.41Z"/>
      <path class="cls-1" d="m15.96,13.91c.23,0,.41-.18.41-.41s-.18-.41-.41-.41h-.41c-.23,0-.41.18-.41.41s.18.41.41.41h.41Z"/>
      <path class="cls-1" d="m16.37,14.73h-.41c-.23,0-.41.18-.41.41s.18.41.41.41h.41c.23,0,.41-.18.41-.41s-.18-.41-.41-.41Z"/>
      <path class="cls-1" d="m18,13.91h-.41c-.23,0-.41.18-.41.41s.18.41.41.41h.41c.23,0,.41-.18.41-.41s-.18-.41-.41-.41Z"/>
      <path class="cls-1" d="m19.23,13.91c.23,0,.41-.18.41-.41s-.18-.41-.41-.41h-.41c-.23,0-.41.18-.41.41s.18.41.41.41h.41Z"/>
      <path class="cls-1" d="m19.64,14.73h-.41c-.23,0-.41.18-.41.41s.18.41.41.41h.41c.23,0,.41-.18.41-.41s-.18-.41-.41-.41Z"/>
      <path class="cls-1" d="m2.45,20.46c-.68,0-1.23.55-1.23,1.23s.55,1.23,1.23,1.23,1.23-.55,1.23-1.23c0-.68-.55-1.23-1.23-1.23Zm0,1.64c-.23,0-.41-.18-.41-.41s.18-.41.41-.41.41.18.41.41c0,.23-.18.41-.41.41Z"/>
      <path class="cls-1" d="m4.5,20.46c-.23,0-.41.18-.41.41h0v1.64c0,.23.18.41.41.41s.41-.18.41-.41v-1.64c0-.23-.18-.41-.41-.41h0Z"/>
      <path class="cls-1" d="m5.73,20.46c-.23,0-.41.18-.41.41h0v1.64c0,.23.18.41.41.41s.41-.18.41-.41v-1.64c0-.23-.18-.41-.41-.41h0Z"/>
      <path class="cls-1" d="m13.09,20.46h-.41c-.23,0-.41.18-.41.41s.18.41.41.41h.41c.23,0,.41-.18.41-.41s-.18-.41-.41-.41Z"/>
      <path class="cls-1" d="m13.09,22.09h-.41c-.23,0-.41.18-.41.41s.18.41.41.41h.41c.23,0,.41-.18.41-.41s-.18-.41-.41-.41Z"/>
      <path class="cls-1" d="m14.73,21.28h-.41c-.23,0-.41.18-.41.41s.18.41.41.41h.41c.23,0,.41-.18.41-.41s-.18-.41-.41-.41Z"/>
      <path class="cls-1" d="m16.37,20.46h-.41c-.23,0-.41.18-.41.41s.18.41.41.41h.41c.23,0,.41-.18.41-.41s-.18-.41-.41-.41Z"/>
      <path class="cls-1" d="m16.37,22.09h-.41c-.23,0-.41.18-.41.41s.18.41.41.41h.41c.23,0,.41-.18.41-.41s-.18-.41-.41-.41Z"/>
      <path class="cls-1" d="m18,21.28h-.41c-.23,0-.41.18-.41.41s.18.41.41.41h.41c.23,0,.41-.18.41-.41s-.18-.41-.41-.41Z"/>
      <path class="cls-1" d="m19.64,20.46h-.41c-.23,0-.41.18-.41.41s.18.41.41.41h.41c.23,0,.41-.18.41-.41s-.18-.41-.41-.41Z"/>
      <path class="cls-1" d="m19.64,22.09h-.41c-.23,0-.41.18-.41.41s.18.41.41.41h.41c.23,0,.41-.18.41-.41s-.18-.41-.41-.41Z"/>
      <path class="cls-1" d="m3.27,25.37h-1.23c-.23,0-.41.18-.41.41s.18.41.41.41h1.23c.23,0,.41-.18.41-.41s-.18-.41-.41-.41Z"/>
      <path class="cls-1" d="m20.05,25.37h-1.23c-.23,0-.41.18-.41.41s.18.41.41.41h1.23c.23,0,.41-.18.41-.41s-.18-.41-.41-.41Z"/>
    </g>
    <path class="cls-2" d="m149.04,26.14l.61-6.73c0-.08,0-.15,0-.23,0-.45-.05-.89-.16-1.3h0c-.02-.08-.04-.16-.06-.23-.01-.07-.02-.14-.02-.21,0-.71.58-1.28,1.29-1.28h2.78c1.44,0,2.61,1.16,2.61,2.6l-.67,7.4h-6.38Zm-2.14-12.19c-.5,0-.98-.06-1.44-.18-.09-.02-.17-.05-.26-.07-.52-.16-.9-.65-.9-1.23,0-.21.05-.42.15-.59.02-.04.05-.08.07-.12,0,0,0,0,0-.01.79-1.34,1.24-2.91,1.24-4.57,0-1.02-.17-2-.48-2.91,0,0,0,0,0,0-.02-.05-.03-.09-.05-.14-.03-.11-.05-.23-.05-.36,0-.64.47-1.17,1.09-1.26.01,0,.02,0,.04,0,.04,0,.07,0,.11,0,.16-.01.32-.02.48-.02,3.19,0,5.77,2.57,5.77,5.74,0,3.17-2.59,5.74-5.77,5.74Zm.19,5.23l-.63,6.96h-19.7l-.63-6.96c0-1.63,1.33-2.96,2.97-2.96h15.02c1.64,0,2.97,1.33,2.97,2.96Zm-10.48-5.46c-2.17,0-4.09-1.04-5.28-2.65-.81-1.08-1.29-2.43-1.29-3.89,0-.99.22-1.92.62-2.77,1.05-2.23,3.32-3.78,5.96-3.78s4.91,1.54,5.96,3.78c.4.84.62,1.78.62,2.77,0,1.46-.48,2.81-1.3,3.9-1.2,1.61-3.12,2.64-5.29,2.64Zm-8.58-.03s0,0-.01,0c-.1.03-.21.06-.32.09-.44.11-.91.17-1.38.17-3.19,0-5.77-2.57-5.77-5.74s2.58-5.74,5.77-5.74c.16,0,.33,0,.48.02.04,0,.07,0,.11,0,.02,0,.03,0,.04,0,.62.09,1.09.62,1.09,1.26,0,.12-.02.25-.05.36-.01.05-.03.09-.05.14h0c-.31.92-.48,1.9-.48,2.92,0,1.67.45,3.23,1.24,4.57,0,0,0,0,0,.01.02.04.05.08.07.12.09.18.15.38.15.59,0,.57-.38,1.05-.9,1.22Zm-4.24,3.74c0,.07,0,.14-.02.2-.02.08-.05.17-.07.25-.1.42-.16.85-.16,1.3,0,.08,0,.15.01.23l.61,6.73h-6.38l-.67-7.4c0-1.44,1.17-2.6,2.61-2.6h2.78c.71,0,1.29.57,1.29,1.28Z"/>
    <path class="cls-1" d="m29.56,15.68l26.66,9.86c2.46.91,6.55.91,9.01,0s2.46-2.42,0-3.33l-15.74-5.85h58.23c3.55,0,6.37-1.04,6.37-2.35s-2.82-2.35-6.37-2.35h-58.23l15.74-5.82c2.46-.91,2.46-2.42,0-3.33-1.27-.47-2.91-.71-4.55-.71s-3.28.24-4.55.71l-26.57,9.82c-1.18.44-1.91,1.04-1.91,1.68s.64,1.24,1.91,1.68h0Z"/>
  </g>
</svg>