<?xml version="1.0" encoding="UTF-8"?>
<svg id="Ebene_2" data-name="Ebene 2" xmlns="http://www.w3.org/2000/svg" viewBox="0 0 68.89 68.89">
  <defs>
    <style>
      .cls-1 {
        fill: #72b62b;
        fill-rule: evenodd;
        stroke-width: 0px;
      }
    </style>
  </defs>
  <g id="Ebene_1-2" data-name="Ebene 1">
    <path class="cls-1" d="m47.36,47.36h-25.83v7.18c0,.79.64,1.44,1.44,1.44h10.05v4.55c-1.22.43-2.19,1.4-2.63,2.63h-5.98c-.79,0-1.44.64-1.44,1.44s.64,1.44,1.44,1.44h5.98c.59,1.67,2.19,2.87,4.06,2.87s3.47-1.2,4.06-2.87h5.98c.79,0,1.44-.64,1.44-1.44s-.64-1.44-1.44-1.44h-5.98c-.43-1.22-1.4-2.19-2.63-2.63v-4.55h10.05c.79,0,1.44-.64,1.44-1.44v-7.18Zm-15.79,5.74h5.74c.79,0,1.44-.64,1.44-1.44s-.64-1.44-1.44-1.44h-5.74c-.79,0-1.44.64-1.44,1.44s.64,1.44,1.44,1.44Zm-15.79-8.61c-7.11,0-12.92-5.45-12.92-12.2s5.81-12.2,12.92-12.2c.79,0,1.44-.64,1.44-1.44,0-8.75,7.75-15.79,17.22-15.79s17.22,7.04,17.22,15.79c0,.79.64,1.44,1.44,1.44,7.11,0,12.92,5.45,12.92,12.2s-5.81,12.2-12.92,12.2c-.79,0-1.44.64-1.44,1.44s.64,1.44,1.44,1.44c8.73,0,15.79-6.77,15.79-15.07,0-7.85-6.32-14.34-14.41-15.01C53.72,7.65,45.06,0,34.44,0S15.17,7.65,14.41,17.28c-8.08.67-14.41,7.16-14.41,15.01,0,8.3,7.06,15.07,15.79,15.07.79,0,1.44-.64,1.44-1.44s-.64-1.44-1.44-1.44Zm5.74,0h25.83v-7.18c0-.79-.64-1.44-1.44-1.44h-22.96c-.79,0-1.44.64-1.44,1.44v7.18Zm10.05-2.87h5.74c.79,0,1.44-.64,1.44-1.44s-.64-1.44-1.44-1.44h-5.74c-.79,0-1.44.64-1.44,1.44s.64,1.44,1.44,1.44Z"/>
  </g>
</svg>