<?xml version="1.0" encoding="UTF-8"?>
<svg id="Ebene_2" data-name="Ebene 2" xmlns="http://www.w3.org/2000/svg" viewBox="0 0 46.76 46.76">
  <defs>
    <style>
      .cls-1 {
        fill: #72b62b;
        stroke-width: 0px;
      }
    </style>
  </defs>
  <g id="Ebene_1-2" data-name="Ebene 1">
    <g>
      <path class="cls-1" d="m38.97,7.01H7.79c-.43,0-.78.35-.78.78v31.17c0,.43.35.78.78.78h31.17c.43,0,.78-.35.78-.78V7.79c0-.43-.35-.78-.78-.78Zm-.78,31.17H8.57V8.57h29.61v29.61Z"/>
      <path class="cls-1" d="m45.98,7.79c.43,0,.78-.35.78-.78s-.35-.78-.78-.78h-3.12v-1.56c0-.43-.35-.78-.78-.78h-1.56V.78c0-.43-.35-.78-.78-.78s-.78.35-.78.78v3.12h-3.12V.78c0-.43-.35-.78-.78-.78s-.78.35-.78.78v3.12h-3.12V.78c0-.43-.35-.78-.78-.78s-.78.35-.78.78v3.12h-3.12V.78c0-.43-.35-.78-.78-.78s-.78.35-.78.78v3.12h-3.12V.78c0-.43-.35-.78-.78-.78s-.78.35-.78.78v3.12h-3.12V.78c0-.43-.35-.78-.78-.78s-.78.35-.78.78v3.12h-3.12V.78c0-.43-.35-.78-.78-.78s-.78.35-.78.78v3.12h-3.12V.78c0-.43-.35-.78-.78-.78s-.78.35-.78.78v3.12h-1.56c-.43,0-.78.35-.78.78v1.56H.78c-.43,0-.78.35-.78.78s.35.78.78.78h3.12v3.12H.78c-.43,0-.78.35-.78.78s.35.78.78.78h3.12v3.12H.78c-.43,0-.78.35-.78.78s.35.78.78.78h3.12v3.12H.78c-.43,0-.78.35-.78.78s.35.78.78.78h3.12v3.12H.78c-.43,0-.78.35-.78.78s.35.78.78.78h3.12v3.12H.78c-.43,0-.78.35-.78.78s.35.78.78.78h3.12v3.12H.78c-.43,0-.78.35-.78.78s.35.78.78.78h3.12v3.12H.78c-.43,0-.78.35-.78.78s.35.78.78.78h3.12v1.56c0,.43.35.78.78.78h1.56v3.12c0,.43.35.78.78.78s.78-.35.78-.78v-3.12h3.12v3.12c0,.43.35.78.78.78s.78-.35.78-.78v-3.12h3.12v3.12c0,.43.35.78.78.78s.78-.35.78-.78v-3.12h3.12v3.12c0,.43.35.78.78.78s.78-.35.78-.78v-3.12h3.12v3.12c0,.43.35.78.78.78s.78-.35.78-.78v-3.12h3.12v3.12c0,.43.35.78.78.78s.78-.35.78-.78v-3.12h3.12v3.12c0,.43.35.78.78.78s.78-.35.78-.78v-3.12h3.12v3.12c0,.43.35.78.78.78s.78-.35.78-.78v-3.12h1.56c.43,0,.78-.35.78-.78v-1.56h3.12c.43,0,.78-.35.78-.78s-.35-.78-.78-.78h-3.12v-3.12h3.12c.43,0,.78-.35.78-.78s-.35-.78-.78-.78h-3.12v-3.12h3.12c.43,0,.78-.35.78-.78s-.35-.78-.78-.78h-3.12v-3.12h3.12c.43,0,.78-.35.78-.78s-.35-.78-.78-.78h-3.12v-3.12h3.12c.43,0,.78-.35.78-.78s-.35-.78-.78-.78h-3.12v-3.12h3.12c.43,0,.78-.35.78-.78s-.35-.78-.78-.78h-3.12v-3.12h3.12c.43,0,.78-.35.78-.78s-.35-.78-.78-.78h-3.12v-3.12h3.12Zm-4.68,33.51H5.46V5.46h35.85v35.85Z"/>
      <path class="cls-1" d="m10.91,11.69h1.56c.43,0,.78-.35.78-.78s-.35-.78-.78-.78h-1.56c-.43,0-.78.35-.78.78s.35.78.78.78Z"/>
      <path class="cls-1" d="m15.59,11.69h1.56c.43,0,.78-.35.78-.78s-.35-.78-.78-.78h-1.56c-.43,0-.78.35-.78.78s.35.78.78.78Z"/>
      <path class="cls-1" d="m20.26,11.69h1.56c.43,0,.78-.35.78-.78s-.35-.78-.78-.78h-1.56c-.43,0-.78.35-.78.78s.35.78.78.78Z"/>
      <path class="cls-1" d="m24.94,11.69h1.56c.43,0,.78-.35.78-.78s-.35-.78-.78-.78h-1.56c-.43,0-.78.35-.78.78s.35.78.78.78Z"/>
      <path class="cls-1" d="m29.61,11.69h1.56c.43,0,.78-.35.78-.78s-.35-.78-.78-.78h-1.56c-.43,0-.78.35-.78.78s.35.78.78.78Z"/>
      <path class="cls-1" d="m34.29,11.69h1.56c.43,0,.78-.35.78-.78s-.35-.78-.78-.78h-1.56c-.43,0-.78.35-.78.78s.35.78.78.78Z"/>
      <path class="cls-1" d="m10.91,14.81h1.56c.43,0,.78-.35.78-.78s-.35-.78-.78-.78h-1.56c-.43,0-.78.35-.78.78s.35.78.78.78Z"/>
      <path class="cls-1" d="m15.59,14.81h1.56c.43,0,.78-.35.78-.78s-.35-.78-.78-.78h-1.56c-.43,0-.78.35-.78.78s.35.78.78.78Z"/>
      <path class="cls-1" d="m20.26,14.81h1.56c.43,0,.78-.35.78-.78s-.35-.78-.78-.78h-1.56c-.43,0-.78.35-.78.78s.35.78.78.78Z"/>
      <path class="cls-1" d="m24.94,14.81h1.56c.43,0,.78-.35.78-.78s-.35-.78-.78-.78h-1.56c-.43,0-.78.35-.78.78s.35.78.78.78Z"/>
      <path class="cls-1" d="m29.61,14.81h1.56c.43,0,.78-.35.78-.78s-.35-.78-.78-.78h-1.56c-.43,0-.78.35-.78.78s.35.78.78.78Z"/>
      <path class="cls-1" d="m34.29,14.81h1.56c.43,0,.78-.35.78-.78s-.35-.78-.78-.78h-1.56c-.43,0-.78.35-.78.78s.35.78.78.78Z"/>
      <path class="cls-1" d="m10.91,17.92h1.56c.43,0,.78-.35.78-.78s-.35-.78-.78-.78h-1.56c-.43,0-.78.35-.78.78s.35.78.78.78Z"/>
      <path class="cls-1" d="m34.29,17.92h1.56c.43,0,.78-.35.78-.78s-.35-.78-.78-.78h-1.56c-.43,0-.78.35-.78.78s.35.78.78.78Z"/>
      <path class="cls-1" d="m10.91,21.04h1.56c.43,0,.78-.35.78-.78s-.35-.78-.78-.78h-1.56c-.43,0-.78.35-.78.78s.35.78.78.78Z"/>
      <path class="cls-1" d="m34.29,21.04h1.56c.43,0,.78-.35.78-.78s-.35-.78-.78-.78h-1.56c-.43,0-.78.35-.78.78s.35.78.78.78Z"/>
      <path class="cls-1" d="m10.91,24.16h1.56c.43,0,.78-.35.78-.78s-.35-.78-.78-.78h-1.56c-.43,0-.78.35-.78.78s.35.78.78.78Z"/>
      <path class="cls-1" d="m34.29,24.16h1.56c.43,0,.78-.35.78-.78s-.35-.78-.78-.78h-1.56c-.43,0-.78.35-.78.78s.35.78.78.78Z"/>
      <path class="cls-1" d="m10.91,27.28h1.56c.43,0,.78-.35.78-.78s-.35-.78-.78-.78h-1.56c-.43,0-.78.35-.78.78s.35.78.78.78Z"/>
      <path class="cls-1" d="m34.29,27.28h1.56c.43,0,.78-.35.78-.78s-.35-.78-.78-.78h-1.56c-.43,0-.78.35-.78.78s.35.78.78.78Z"/>
      <path class="cls-1" d="m10.91,30.39h1.56c.43,0,.78-.35.78-.78s-.35-.78-.78-.78h-1.56c-.43,0-.78.35-.78.78s.35.78.78.78Z"/>
      <path class="cls-1" d="m21.82,30.39h7.79c.43,0,.78-.35.78-.78v-12.47c0-.43-.35-.78-.78-.78h-12.47c-.43,0-.78.35-.78.78v12.47c0,.43.35.78.78.78h4.68Zm-3.9-12.47h10.91v10.91h-10.91v-10.91Z"/>
      <path class="cls-1" d="m34.29,30.39h1.56c.43,0,.78-.35.78-.78s-.35-.78-.78-.78h-1.56c-.43,0-.78.35-.78.78s.35.78.78.78Z"/>
      <path class="cls-1" d="m10.91,33.51h1.56c.43,0,.78-.35.78-.78s-.35-.78-.78-.78h-1.56c-.43,0-.78.35-.78.78s.35.78.78.78Z"/>
      <path class="cls-1" d="m15.59,33.51h1.56c.43,0,.78-.35.78-.78s-.35-.78-.78-.78h-1.56c-.43,0-.78.35-.78.78s.35.78.78.78Z"/>
      <path class="cls-1" d="m21.82,31.95h-1.56c-.43,0-.78.35-.78.78s.35.78.78.78h1.56c.43,0,.78-.35.78-.78s-.35-.78-.78-.78Z"/>
      <path class="cls-1" d="m26.5,31.95h-1.56c-.43,0-.78.35-.78.78s.35.78.78.78h1.56c.43,0,.78-.35.78-.78s-.35-.78-.78-.78Z"/>
      <path class="cls-1" d="m31.17,31.95h-1.56c-.43,0-.78.35-.78.78s.35.78.78.78h1.56c.43,0,.78-.35.78-.78s-.35-.78-.78-.78Z"/>
      <path class="cls-1" d="m34.29,33.51h1.56c.43,0,.78-.35.78-.78s-.35-.78-.78-.78h-1.56c-.43,0-.78.35-.78.78s.35.78.78.78Z"/>
      <path class="cls-1" d="m10.91,36.63h1.56c.43,0,.78-.35.78-.78s-.35-.78-.78-.78h-1.56c-.43,0-.78.35-.78.78s.35.78.78.78Z"/>
      <path class="cls-1" d="m15.59,36.63h1.56c.43,0,.78-.35.78-.78s-.35-.78-.78-.78h-1.56c-.43,0-.78.35-.78.78s.35.78.78.78Z"/>
      <path class="cls-1" d="m21.82,35.07h-1.56c-.43,0-.78.35-.78.78s.35.78.78.78h1.56c.43,0,.78-.35.78-.78s-.35-.78-.78-.78Z"/>
      <path class="cls-1" d="m26.5,35.07h-1.56c-.43,0-.78.35-.78.78s.35.78.78.78h1.56c.43,0,.78-.35.78-.78s-.35-.78-.78-.78Z"/>
      <path class="cls-1" d="m31.17,35.07h-1.56c-.43,0-.78.35-.78.78s.35.78.78.78h1.56c.43,0,.78-.35.78-.78s-.35-.78-.78-.78Z"/>
      <path class="cls-1" d="m34.29,36.63h1.56c.43,0,.78-.35.78-.78s-.35-.78-.78-.78h-1.56c-.43,0-.78.35-.78.78s.35.78.78.78Z"/>
      <path class="cls-1" d="m21.04,26.5h4.68c.43,0,.78-.35.78-.78v-4.68c0-.43-.35-.78-.78-.78h-4.68c-.43,0-.78.35-.78.78v4.68c0,.43.35.78.78.78Zm.78-4.68h3.12v3.12h-3.12v-3.12Z"/>
    </g>
  </g>
</svg>