<?xml version="1.0" encoding="UTF-8"?>
<svg id="Ebene_2" data-name="Ebene 2" xmlns="http://www.w3.org/2000/svg" viewBox="0 0 45.95 56.98">
  <defs>
    <style>
      .cls-1 {
        fill: #72b62b;
        stroke-width: 0px;
      }
    </style>
  </defs>
  <g id="Ebene_1-2" data-name="Ebene 1">
    <g>
      <path class="cls-1" d="m41.36,0H4.6C2.06,0,0,2.06,0,4.6v51.47c0,.51.41.92.92.92.24,0,.48-.1.65-.27l2.6-2.6c.37-.37.84-.62,1.35-.74v1.77c0,.51.41.92.92.92h14.71c.51,0,.92-.41.92-.92h0v-1.84h1.84v1.84c0,.51.41.92.92.92h7.35c.51,0,.92-.41.92-.92h0v-1.84h6.75c.73,0,1.43.29,1.95.81l2.6,2.6c.36.36.94.36,1.3,0,.17-.17.27-.41.27-.65V4.6c0-2.54-2.06-4.59-4.6-4.6ZM4.6,1.84h17.46v.03C12.93,2.37,5.95,10.18,6.46,19.3c.23,4.19,2.05,8.14,5.09,11.04L1.84,40.06V4.6c0-1.52,1.24-2.76,2.76-2.76Zm15.62,52.39H7.35v-.92h12.87v.92Zm11.03,0h-5.51v-.92h5.51v.92Zm12.87-.38l-1.03-1.03c-.86-.86-2.03-1.35-3.25-1.35H6.12c-1.22,0-2.39.48-3.25,1.35l-1.03,1.03v-11.19l11.7-11.7c.36-.36.36-.94,0-1.3-.02-.02-.04-.03-.06-.05-6.2-5.25-6.97-14.53-1.73-20.73,2.79-3.3,6.9-5.21,11.23-5.21.51,0,.92-.41.92-.92h0v-.92h17.46c1.52,0,2.76,1.24,2.76,2.76v49.25Z"/>
      <path class="cls-1" d="m26.65,18.38c0-2.03-1.65-3.68-3.68-3.68s-3.68,1.65-3.68,3.68,1.65,3.68,3.68,3.68c2.03,0,3.67-1.65,3.68-3.68Zm-3.68,1.84c-1.02,0-1.84-.82-1.84-1.84s.82-1.84,1.84-1.84,1.84.82,1.84,1.84c0,1.01-.82,1.84-1.84,1.84Z"/>
      <path class="cls-1" d="m42.69,25.83c-.31-.16-.68-.12-.96.08l-6.74,4.98-2.09-4.35c4.62-5.54,3.87-13.78-1.67-18.4-5.54-4.62-13.78-3.87-18.4,1.67-4.62,5.54-3.87,13.78,1.67,18.4,2.87,2.39,6.62,3.44,10.32,2.88v7.31l-3.48,2.57c-.7.52-1.12,1.34-1.12,2.22v6.43c0,.51.41.92.92.92s.92-.41.92-.92v-6.43c0-.29.14-.57.37-.74l2.38-1.76v1.96c0,1.9,1.53,3.45,3.44,3.45.76,0,1.51-.25,2.11-.72l6.25-4.81c1.29-1,1.71-2.76,1.01-4.23l-1.81-3.77,5.55-4.11v11.96c0,.29-.14.56-.37.74l-10.29,7.72c-.41.3-.49.88-.19,1.29.3.41.88.49,1.29.19,0,0,0,0,0,0l10.29-7.72c.69-.52,1.1-1.34,1.1-2.21v-13.79c0-.35-.2-.66-.51-.82Zm-19.71,3.58c-6.11.02-11.07-4.92-11.09-11.03-.02-6.11,4.92-11.07,11.03-11.09,6.11-.02,11.07,4.92,11.09,11.03,0,2.28-.69,4.51-2,6.38l-.64-1.32c-.83-1.72-2.89-2.44-4.6-1.61-1.19.57-1.95,1.78-1.95,3.11v4.37c-.61.11-1.22.17-1.84.17Zm12.52,9.71l-6.25,4.81c-.7.54-1.72.41-2.26-.29-.22-.28-.33-.63-.33-.98v-17.79c-.02-.76.51-1.42,1.25-1.57.13-.03.26-.04.39-.04.61,0,1.17.35,1.42.92l6.25,12.98c.33.69.13,1.51-.47,1.97Z"/>
      <path class="cls-1" d="m7.35,31.25h.92c.51,0,.92-.41.92-.92s-.41-.92-.92-.92h-.92c-.51,0-.92.41-.92.92s.41.92.92.92Z"/>
      <path class="cls-1" d="m3.68,8.27c.51,0,.92-.41.92-.92h0v-.92c0-.51-.41-.92-.92-.92s-.92.41-.92.92v.92c0,.51.41.92.92.92h0Z"/>
      <path class="cls-1" d="m9.19,4.6h.92c.51,0,.92-.41.92-.92s-.41-.92-.92-.92h-.92c-.51,0-.92.41-.92.92s.41.92.92.92Z"/>
      <path class="cls-1" d="m3.68,35.84c.51,0,.92-.41.92-.92h0v-.92c0-.51-.41-.92-.92-.92s-.92.41-.92.92v.92c0,.51.41.92.92.92h0Z"/>
      <path class="cls-1" d="m3.68,19.3c.51,0,.92-.41.92-.92h0v-.92c0-.51-.41-.92-.92-.92s-.92.41-.92.92v.92c0,.51.41.92.92.92h0Z"/>
    </g>
  </g>
</svg>