<?xml version="1.0" encoding="UTF-8"?>
<svg id="Ebene_2" data-name="Ebene 2" xmlns="http://www.w3.org/2000/svg" viewBox="0 0 33.09 45.49">
  <defs>
    <style>
      .cls-1 {
        fill: #72b62b;
        stroke-width: 0px;
      }
    </style>
  </defs>
  <g id="Ebene_1-2" data-name="Ebene 1">
    <g>
      <path class="cls-1" d="m18.61,0H4.83c-.87,0-1.65.55-1.94,1.38H.69c-.38,0-.69.31-.69.69v24.13c0,.38.31.69.69.69h1.38c.38,0,.69.31.69.69s-.31.69-.69.69H.69c-.38,0-.69.31-.69.69v14.48c0,.38.31.69.69.69h2.19c.29.82,1.07,1.38,1.94,1.38h13.79c1.14,0,2.07-.93,2.07-2.07V2.07c0-1.14-.93-2.07-2.07-2.07ZM2.07,25.5h-.69V2.76h1.38v22.87c-.22-.08-.45-.12-.69-.13Zm-.69,4.14h.69c.24,0,.47-.05.69-.13v13.22h-1.38v-13.1Zm17.92,13.79c0,.38-.31.69-.69.69H4.83c-.38,0-.69-.31-.69-.69V2.07c0-.38.31-.69.69-.69h13.79c.38,0,.69.31.69.69v41.36Z"/>
      <path class="cls-1" d="m17.23,14.48H6.2c-.38,0-.69.31-.69.69v5.51c0,.38.31.69.69.69h11.03c.38,0,.69-.31.69-.69h0v-5.51c0-.38-.31-.69-.69-.69h0Zm-.69,5.51H6.89v-4.14h9.65v4.14Z"/>
      <path class="cls-1" d="m17.23,24.13H6.2c-.38,0-.69.31-.69.69v5.51c0,.38.31.69.69.69h11.03c.38,0,.69-.31.69-.69h0v-5.51c0-.38-.31-.69-.69-.69h0Zm-.69,5.51H6.89v-4.14h9.65v4.14Z"/>
      <path class="cls-1" d="m17.23,33.78H6.2c-.38,0-.69.31-.69.69v5.51c0,.38.31.69.69.69h11.03c.38,0,.69-.31.69-.69h0v-5.51c0-.38-.31-.69-.69-.69h0Zm-.69,5.51H6.89v-4.14h9.65v4.14Z"/>
      <path class="cls-1" d="m17.23,4.83H6.2c-.38,0-.69.31-.69.69v5.51c0,.38.31.69.69.69h11.03c.38,0,.69-.31.69-.69h0v-5.51c0-.38-.31-.69-.69-.69h0Zm-.69,5.51H6.89v-4.14h9.65v4.14Z"/>
      <path class="cls-1" d="m31.02,0h-8.27c-.38,0-.69.31-.69.69s.31.69.69.69h8.27c.38,0,.69.31.69.69v41.36c0,.38-.31.69-.69.69h-8.27c-.38,0-.69.31-.69.69s.31.69.69.69h8.27c1.14,0,2.07-.93,2.07-2.07V2.07c0-1.14-.93-2.07-2.07-2.07Z"/>
      <path class="cls-1" d="m22.75,19.99c-.38,0-.69.31-.69.69s.31.69.69.69h6.89c.38,0,.69-.31.69-.69h0v-5.51c0-.38-.31-.69-.69-.69h-6.89c-.38,0-.69.31-.69.69s.31.69.69.69h6.2v4.14h-6.2Z"/>
      <path class="cls-1" d="m22.75,29.64c-.38,0-.69.31-.69.69s.31.69.69.69h6.89c.38,0,.69-.31.69-.69h0v-5.51c0-.38-.31-.69-.69-.69h-6.89c-.38,0-.69.31-.69.69s.31.69.69.69h6.2v4.14h-6.2Z"/>
      <path class="cls-1" d="m22.75,39.29c-.38,0-.69.31-.69.69s.31.69.69.69h6.89c.38,0,.69-.31.69-.69h0v-5.51c0-.38-.31-.69-.69-.69h-6.89c-.38,0-.69.31-.69.69s.31.69.69.69h6.2v4.14h-6.2Z"/>
      <path class="cls-1" d="m22.75,10.34c-.38,0-.69.31-.69.69s.31.69.69.69h6.89c.38,0,.69-.31.69-.69h0v-5.51c0-.38-.31-.69-.69-.69h-6.89c-.38,0-.69.31-.69.69s.31.69.69.69h6.2v4.14h-6.2Z"/>
    </g>
  </g>
</svg>