<?xml version="1.0" encoding="UTF-8"?>
<svg id="Ebene_2" data-name="Ebene 2" xmlns="http://www.w3.org/2000/svg" viewBox="0 0 146.72 26.27">
  <defs>
    <style>
      .cls-1, .cls-2 {
        fill: #72b62b;
        stroke-width: 0px;
      }

      .cls-2 {
        fill-rule: evenodd;
      }
    </style>
  </defs>
  <g id="Ebene_1-2" data-name="Ebene 1">
    <g>
      <path class="cls-1" d="m22.08,4.17l-.81-2.7C21.01.59,20.21,0,19.3,0H2.83c-.88,0-1.67.56-1.95,1.4L.11,3.72C.04,3.93,0,4.15,0,4.37v4.66c0,.33.13.65.37.88l-.26.79C.04,10.91,0,11.13,0,11.35v5.07c0,.38.18.74.48.97l-.37,1.11C.04,18.7,0,18.93,0,19.15v4.66c0,.68.55,1.23,1.23,1.23h19.7c.68,0,1.23-.55,1.23-1.23v-4.27c0-.2-.03-.4-.09-.59l-.45-1.51c.34-.23.54-.61.54-1.02v-4.68c0-.2-.03-.4-.09-.59l-.35-1.18c.28-.23.44-.57.44-.93v-4.27c0-.2-.03-.4-.09-.59ZM1.23,9.44c-.23,0-.41-.18-.41-.41v-4.1c0-.23.18-.41.41-.41h19.7c.23,0,.41.18.41.41v4.1c0,.23-.18.41-.41.41H1.23Zm.43-7.78c.17-.5.64-.84,1.17-.84h16.48c.54,0,1.03.36,1.18.88l.6,2.01s-.1-.01-.15-.02H1.23c-.09,0-.18.01-.26.03l.69-2.06Zm19.18,15.99l.25.84s-.1-.01-.15-.02H1.23c-.09,0-.17,0-.26.03l.28-.85h19.58Zm.51-5.34v4.1c0,.23-.18.41-.41.41H1.23c-.23,0-.41-.18-.41-.41v-4.1c0-.23.18-.41.41-.41h19.7c.23,0,.41.18.41.41Zm0,11.49c0,.23-.18.41-.41.41H1.23c-.23,0-.41-.18-.41-.41v-4.1c0-.23.18-.41.41-.41h19.7c.23,0,.41.18.41.41v4.1Zm-.13-12.69c-.09-.02-.19-.03-.28-.03H1.23c-.13,0-.27.03-.39.07.01-.07.03-.13.05-.2l.24-.71s.07.01.11.01h19.7s.02,0,.02,0l.26.86Z"/>
      <path class="cls-1" d="m2.87,5.75c-.68,0-1.23.55-1.23,1.23s.55,1.23,1.23,1.23,1.23-.55,1.23-1.23c0-.68-.55-1.23-1.23-1.23Zm0,1.64c-.23,0-.41-.18-.41-.41s.18-.41.41-.41.41.18.41.41c0,.23-.18.41-.41.41Z"/>
      <path class="cls-1" d="m4.93,5.75c-.23,0-.41.18-.41.41h0v1.64c0,.23.18.41.41.41s.41-.18.41-.41v-1.64c0-.23-.18-.41-.41-.41h0Z"/>
      <path class="cls-1" d="m6.16,5.75c-.23,0-.41.18-.41.41h0v1.64c0,.23.18.41.41.41s.41-.18.41-.41v-1.64c0-.23-.18-.41-.41-.41h0Z"/>
      <path class="cls-1" d="m13.13,5.75h-.41c-.23,0-.41.18-.41.41s.18.41.41.41h.41c.23,0,.41-.18.41-.41s-.18-.41-.41-.41Z"/>
      <path class="cls-1" d="m13.13,7.39h-.41c-.23,0-.41.18-.41.41s.18.41.41.41h.41c.23,0,.41-.18.41-.41s-.18-.41-.41-.41Z"/>
      <path class="cls-1" d="m14.78,6.57h-.41c-.23,0-.41.18-.41.41s.18.41.41.41h.41c.23,0,.41-.18.41-.41s-.18-.41-.41-.41Z"/>
      <path class="cls-1" d="m16.42,5.75h-.41c-.23,0-.41.18-.41.41s.18.41.41.41h.41c.23,0,.41-.18.41-.41s-.18-.41-.41-.41Z"/>
      <path class="cls-1" d="m16.42,7.39h-.41c-.23,0-.41.18-.41.41s.18.41.41.41h.41c.23,0,.41-.18.41-.41s-.18-.41-.41-.41Z"/>
      <path class="cls-1" d="m18.06,6.57h-.41c-.23,0-.41.18-.41.41s.18.41.41.41h.41c.23,0,.41-.18.41-.41s-.18-.41-.41-.41Z"/>
      <path class="cls-1" d="m19.7,5.75h-.41c-.23,0-.41.18-.41.41s.18.41.41.41h.41c.23,0,.41-.18.41-.41s-.18-.41-.41-.41Z"/>
      <path class="cls-1" d="m19.7,7.39h-.41c-.23,0-.41.18-.41.41s.18.41.41.41h.41c.23,0,.41-.18.41-.41s-.18-.41-.41-.41Z"/>
      <path class="cls-1" d="m2.46,13.13c-.68,0-1.23.55-1.23,1.23s.55,1.23,1.23,1.23,1.23-.55,1.23-1.23c0-.68-.55-1.23-1.23-1.23Zm0,1.64c-.23,0-.41-.18-.41-.41s.18-.41.41-.41.41.18.41.41c0,.23-.18.41-.41.41Z"/>
      <path class="cls-1" d="m4.52,13.13c-.23,0-.41.18-.41.41h0v1.64c0,.23.18.41.41.41s.41-.18.41-.41v-1.64c0-.23-.18-.41-.41-.41h0Z"/>
      <path class="cls-1" d="m5.75,13.13c-.23,0-.41.18-.41.41h0v1.64c0,.23.18.41.41.41s.41-.18.41-.41v-1.64c0-.23-.18-.41-.41-.41h0Z"/>
      <path class="cls-1" d="m12.72,13.96c.23,0,.41-.18.41-.41s-.18-.41-.41-.41h-.41c-.23,0-.41.18-.41.41s.18.41.41.41h.41Z"/>
      <path class="cls-1" d="m13.13,14.78h-.41c-.23,0-.41.18-.41.41s.18.41.41.41h.41c.23,0,.41-.18.41-.41s-.18-.41-.41-.41Z"/>
      <path class="cls-1" d="m14.78,13.96h-.41c-.23,0-.41.18-.41.41s.18.41.41.41h.41c.23,0,.41-.18.41-.41s-.18-.41-.41-.41Z"/>
      <path class="cls-1" d="m16.01,13.96c.23,0,.41-.18.41-.41s-.18-.41-.41-.41h-.41c-.23,0-.41.18-.41.41s.18.41.41.41h.41Z"/>
      <path class="cls-1" d="m16.42,14.78h-.41c-.23,0-.41.18-.41.41s.18.41.41.41h.41c.23,0,.41-.18.41-.41s-.18-.41-.41-.41Z"/>
      <path class="cls-1" d="m18.06,13.96h-.41c-.23,0-.41.18-.41.41s.18.41.41.41h.41c.23,0,.41-.18.41-.41s-.18-.41-.41-.41Z"/>
      <path class="cls-1" d="m19.29,13.96c.23,0,.41-.18.41-.41s-.18-.41-.41-.41h-.41c-.23,0-.41.18-.41.41s.18.41.41.41h.41Z"/>
      <path class="cls-1" d="m19.7,14.78h-.41c-.23,0-.41.18-.41.41s.18.41.41.41h.41c.23,0,.41-.18.41-.41s-.18-.41-.41-.41Z"/>
      <path class="cls-1" d="m2.46,20.52c-.68,0-1.23.55-1.23,1.23s.55,1.23,1.23,1.23,1.23-.55,1.23-1.23c0-.68-.55-1.23-1.23-1.23Zm0,1.64c-.23,0-.41-.18-.41-.41s.18-.41.41-.41.41.18.41.41c0,.23-.18.41-.41.41Z"/>
      <path class="cls-1" d="m4.52,20.52c-.23,0-.41.18-.41.41h0v1.64c0,.23.18.41.41.41s.41-.18.41-.41v-1.64c0-.23-.18-.41-.41-.41h0Z"/>
      <path class="cls-1" d="m5.75,20.52c-.23,0-.41.18-.41.41h0v1.64c0,.23.18.41.41.41s.41-.18.41-.41v-1.64c0-.23-.18-.41-.41-.41h0Z"/>
      <path class="cls-1" d="m13.13,20.52h-.41c-.23,0-.41.18-.41.41s.18.41.41.41h.41c.23,0,.41-.18.41-.41s-.18-.41-.41-.41Z"/>
      <path class="cls-1" d="m13.13,22.16h-.41c-.23,0-.41.18-.41.41s.18.41.41.41h.41c.23,0,.41-.18.41-.41s-.18-.41-.41-.41Z"/>
      <path class="cls-1" d="m14.78,21.34h-.41c-.23,0-.41.18-.41.41s.18.41.41.41h.41c.23,0,.41-.18.41-.41s-.18-.41-.41-.41Z"/>
      <path class="cls-1" d="m16.42,20.52h-.41c-.23,0-.41.18-.41.41s.18.41.41.41h.41c.23,0,.41-.18.41-.41s-.18-.41-.41-.41Z"/>
      <path class="cls-1" d="m16.42,22.16h-.41c-.23,0-.41.18-.41.41s.18.41.41.41h.41c.23,0,.41-.18.41-.41s-.18-.41-.41-.41Z"/>
      <path class="cls-1" d="m18.06,21.34h-.41c-.23,0-.41.18-.41.41s.18.41.41.41h.41c.23,0,.41-.18.41-.41s-.18-.41-.41-.41Z"/>
      <path class="cls-1" d="m19.7,20.52h-.41c-.23,0-.41.18-.41.41s.18.41.41.41h.41c.23,0,.41-.18.41-.41s-.18-.41-.41-.41Z"/>
      <path class="cls-1" d="m19.7,22.16h-.41c-.23,0-.41.18-.41.41s.18.41.41.41h.41c.23,0,.41-.18.41-.41s-.18-.41-.41-.41Z"/>
      <path class="cls-1" d="m3.28,25.45h-1.23c-.23,0-.41.18-.41.41s.18.41.41.41h1.23c.23,0,.41-.18.41-.41s-.18-.41-.41-.41Z"/>
      <path class="cls-1" d="m20.11,25.45h-1.23c-.23,0-.41.18-.41.41s.18.41.41.41h1.23c.23,0,.41-.18.41-.41s-.18-.41-.41-.41Z"/>
    </g>
    <path class="cls-2" d="m146.72,19.25l-.63,6.96h-19.7l-.63-6.96c0-1.63,1.33-2.96,2.97-2.96h15.02c1.64,0,2.97,1.33,2.97,2.96Zm-10.48-5.46c-2.17,0-4.09-1.04-5.28-2.65-.81-1.08-1.29-2.43-1.29-3.89,0-.99.22-1.92.62-2.77,1.05-2.23,3.32-3.78,5.96-3.78s4.91,1.54,5.96,3.78c.4.84.62,1.78.62,2.77,0,1.46-.48,2.81-1.3,3.9-1.2,1.61-3.12,2.64-5.29,2.64Z"/>
    <path class="cls-1" d="m29.19,15.2l26.68,9.8c2.46.9,6.55.89,9.01-.02s2.45-2.43,0-3.33l-15.75-5.82,58.23-.12c3.55,0,6.37-1.06,6.36-2.37s-2.83-2.35-6.37-2.34l-58.23.12,15.73-5.85c2.45-.91,2.45-2.43,0-3.33-1.27-.47-2.91-.7-4.55-.7s-3.28.24-4.55.72l-26.55,9.88c-1.18.44-1.91,1.05-1.91,1.69s.64,1.24,1.92,1.68h0Z"/>
  </g>
</svg>